<mxfile host="app.diagrams.net" modified="2022-04-06T09:08:27.582Z" agent="5.0 (Windows NT 10.0; Win64; x64) AppleWebKit/537.36 (KHTML, like Gecko) Chrome/97.0.4692.71 Safari/537.36" etag="seHN8xoEqkh85VMUE4pC" version="17.4.0" type="github">
  <diagram id="M8zARw196X_hpI1-x9yp" name="Page-1">
    <mxGraphModel dx="643" dy="744" grid="1" gridSize="10" guides="1" tooltips="1" connect="1" arrows="1" fold="1" page="1" pageScale="1" pageWidth="827" pageHeight="1169" math="0" shadow="0">
      <root>
        <mxCell id="0" />
        <mxCell id="1" parent="0" />
        <mxCell id="IyXD50Ujy94JnM1tyRpe-2" value="" style="shape=image;verticalLabelPosition=bottom;labelBackgroundColor=default;verticalAlign=top;aspect=fixed;imageAspect=0;image=data:image/png,iVBORw0KGgoAAAANSUhEUgAAB00AAALSCAYAAACxnUmMAAAgAElEQVR4nOzdzasdSZrn+UdBVBCQVEINJF2bLCIuSpCIXCjQTote1KIHLRoFdEIH1AWtcj3UskAQEghqWX9ArS7cgmjIRYhciIamFsW0Fg0iYpEaBZS4GTAzMEXSL1STkB210CxOmK4dP+bu5ub28jxm3w8I3Zdz3f34Mf/5Y8fc7dz4+NadtwIAAAAAAAAAAAAAg3qv9QYAAAAAAAAAAAAAQEsMmgIAAAAAAAAAAAAYGoOmAAAAAAAAAAAAAIbGoCkAAAAAAAAAAACAoTFoCgAAAAAAAAAAAGBoDJoCAAAAAAAAAAAAGBqDpgAAAAAAAAAAAACGxqApAAAAAAAAAAAAgKExaAoAAAAAqObq9Tfv/vnfTx8zfXzodwAAAAAA5MKgKQAAAACgOX8QdfqzpccAAAAAAJADg6YAAAAAgCbc4OfZ7Tuzj3G/i3ksAAAAAACpGDQFAAAAAKjAHaQAAAAAgFYYNAUAAAAAVBVztygDqAAAAACAmhg0/cHVt3TIAQAAAKCG6VS7S1Pvzj0WAAAAAFDeSONnNz6+dedt643QwL3oZ7f4fBwAAAAAAAAAAABgpPGzoQdNRxodBwAAAAAAAAAAADZ5+1bkxg0R6X/gdOhBU2ekUXIAAAAAAAAAAABgzWjjZ8N/punVt98M82IDAAAAAAAAAAAAa0YcPxt+0HS0FxwAAAAAAAAAAABYMuL42fCDpgAAAAAAAAAAAADGxqApAAAAAAAAAAAAgKG933oDoM/V629WH3N2+87R485uj3ebNubFtKEp2hCmrl5/E8yapfZFO4KP8xn24nyGHDifYS/OZ9iL8xly4HyGvTifYS/OZ8iB8xnWcKcpjqydfFxAuMcRGIix1E6mbQoQOW0PZA+24nyGEjifYSvOZ9iL8xlK4HyGrTifYS/OZyiB8xm24nyGGNxpilmcXJAidEUgbQh7rF3tFfsYjIssQgrOZ8iNcxX2IouQgvMZcuN8hr3IIqTgfIbcOJ9hDoOmeCcUEgQH9qD9IIXfbmLbEG0Nvml7oH1gL9oQUqSczwAf5zPsRRtCDpzPsBdZhL1oQ8iB8xliMT0v3pnefr40iMoVPaeuvmVfiGyfxoDpD67Rhg62TK9CuzlFO4prF5zP5tGGDjifpaMNHTBd2D60I85ne9GGDu2C81k62tAB57N9aEecz/aiDXE+24s2dMD5DLEYNPUQIMumweK+5+RzjTa0zG8rKQXPKGhHceYyCbShNXNthTZ0jTa0jPNZHNpRnGkboj1dow0t43y2jja0jPNZHNpRHM5n82hDyzifraMNLeN8Fod2FIfz2bxR2tCNj2/dedt6I1oZ5UUGAAAAAAAAAAAA9ji71fdA8tCDpo4bPO39xUZZV99+QxvCLrQh7MX5DDmQRdiLNoS9OJ8hB7IIe9GGsBfnM+RAFmEv2hD2Gu18Nvz0vIQGcuCuZexFG8JenM+QA1mEvWhD2IvzGXIgi7AXbQh7cT5DDmQR9qINYa8Rz2fDD5qO9oKjDNoR9qINYS/aEHKgHWEv2hD2og0hB9oR9qINYS/aEHKgHWEv2hD2GrENDT9oCgAAAAAAAAAAAGBsDJoCAAAAAAAAAAAAGBqDpgAAAAAAAAAAAACGxqApAAAAAAAAAAAAgKExaAoAAAAAAAAAAABgaAyaAgAAAAAAAAAAABgag6YAAAAAAAAAAAAAhsagKQAAAAAAAAAAAIChMWjqvH3begtgHW0Ie9GGkAPtCHvRhrAXbQg50I6wF20Ie9GGkAPtCHvRhrAXbQg5DNSObnx86844zxYAAAAAAAAAAAAAJrjTFAAAAAAAAAAAAMDQGDQFAAAAAAAAAAAAMDQGTQEAAAAAAAAAAAAMjUFTAAAAAAAAAAAAAENj0BQAAAAAAAAAAADA0Bg0BQAAAAAAAAAAADA0Bk0BAAAAAAAAAAAADI1BUwAAAAAAAAAAAABDY9AUAAAAAAAAAAAAwNAYNAUAAAAAAAAAAAAwNAZNAQAAAAAAAAAAAAzt/dYb0MrV669bbwIAVHHj8Y3WmzCEt4/fzv7u7PanFbeknqVzKe2unqW2pwXtoR6y6Bhtrx7tWURbqGfEHBIhizTQnkMitIWaRswickgHsgg+sugYba+NErnUa/sVqThoevXtN3J2606xx6fo+YUFYMPV66/l/PxcRERevHwl9+5+Enxc6u8uLy/l4/9QNktxeB3nzim9X6Qz97zfvn7LebaCtQxxP0v9XUjK795e0h5qIItOkUV1+FnkK1HbpP6OHKpj5BwSIYtaCtVEJWqjvb8ji+oYOYvIobbmaiJHS21EFtVBFp0ii+rL1Vfzf3Z5eZl/Qz2txxJvfHzrTtHLX66+/ebd17Eb7v6m5KDpUmgBQC1rBbVIenEscjiJrS0febx4+Sr4857PN0vPbaldoq49GQJ7yKJjtO92tLwpiPpGzCERskgDPwc0ZRD51MaIWUQO6Ub2jIksOkab1GFvdlxeXhZrv1vHBkuMJRa909QfMA19v/XvF73lKgUAfVo6UcUUG3MFGvLpudhNVbKAwrVSVzLnRnuogyw6RdurI5RFqfVLid+J0BZqIYfCaH/lTXNIy8DE9He0hTrIolO0vTqW+meaaiPaQx1k0SnaXn2uHfqZsPe95pRtkBvbpmbeM5a4dwC1+J2mjoYR4qPlE1oAFIi503QP7jSth6sHj3H1INAGWXSMLALqGzGHRMgiDbirCr4Rs4gc0q3EBa1aLpLFPLLoGG2ynZyZUHrw2023Gzvt7tbHr6n2maYi2wdAS3+mKQCMgDtNy+u52E3F1YN1lL7wIhfaQx1k0SnaXh0Wsoi2UAc5FEb7K89CDonQFmohi07R9uoocafpEu401Y0sOkXbq8/lksUB61bjie9lWQoAYLelwU33u9Bjln4HoH/TDPCzYMvvYpa9Z30A+ra1RknNCWoiAGtK1EYl6y0AfdHcPwMwptS+2trPelX1TlMrrl5/3XoTAAwmNEXC5eVllmX/9t9vmwMe2914fEM+FmZH8N14fEPk37feiv7deHxD3r7e/0kL7mroaRblqoloD3WQRadoe3XkzqKpHDURbaEOciiM9lfejcc35O1lnk+fCmXRvbufkEWGkEWnaHt1lK6J6J/ZQhadou3VtyeXYj4vvkcMms7gNnEANbiCd+7EkyOLKNDKu3r9tZz9B84bvreP33IurWRv23M5NPf5FuSQHWTRKbKonlxZNLv8na8jOVQHORRGFtWRo+3NZZG7u4IssoEsOkUO1UP/DA5ZdIosaiOlHY58YyHT8wIAAAzOdchHmm4FAAAg1kh3VwBob27AFABQHoOmAAAAg3MDpnTMAQAAAKAtLmgFgHYYNAUAABhc6E5TOukANCCLAADAaEIXtFITAWhhxOzhM00BYABXzx8s/v7s/rNKWwJgi6VjN+dx6zrkfse8xF2ntZ4PgHxa1xBkEQCR/o7b1tkKYLuax22o/qEmAiBSv4YYcUYyBk0BQIkSU2O6E+naCdM/4WoojGO3G8hBU3ubFr9L26Rpu9fEbKu2HBKxtY9hn6b2tuV41LTdS2Kfk7YssrJ/0Q9NbW7rcZtrm0ve4UX/DFinqb31WBOJ0D8DYmhqbxqyaKSPdGLQFAAUyH3iCZ0g565EOrv/LPi4mkXB3ECRpgIF/Zm2ry0DlqW3ZfrzKf+4zXmctM6ipb8rLbRdZBFqIIvK2vKcLNREtbcHYwi1L21ZVDOHStzhRf8MWEdNVB79M2CZhZootE1OySwaZcBUhEFTAFAh9yDFluI29PvSBUBswUFBjBLm2tNaEVqy/Z3df3a0vi3HrX+c7NnGEgOmqVk03R8lbHl9ySLktjQApiWLYgbpSmRRTqFtWTqOQ89ZW03k/42W/Qy7ltpSyyzyl9+iJgrZc6cp/TNgGf2zMPpn9M9Qj9aaKKV/Nu3HaOqfWcGgKQB0JFQEr50Y566cKk3DVVIYS44r/EuLbeOh4tcV0ynHh+uQ5+qY+9uR8pxqWRs0mT6WLMJee64UXnpcLn6HPKZ9W+qIxxy3oX1d47nFtgf3WLIIe22pidzjatdFqfWD/+Z+zmMjtT6ifwbMo382r+SAKf0z4FqP/TOOh/0YNAWATqQUwb6UOxiWpktZE3tllva7WGJcvf669SYML/Wq2pT1TMUeRylteloQp3bMSw6Ybt2WrVm01JlZW8+W14sswl5b73r0f791PSExx1Fqe/azp8RgRQrLWbS2HstXj5ND7W2tifzHODHtrXYWTY8HDVlE/0wvsqg9+mfL6J+t/x1ZhL1y9M+oifrEoCkAdGrPyXCuWHXc784fvZn93doVgrHbV+vq8VLObn/aehOGt+cKf/9vYtr21mNibn1b5Ogghu403TMN3d7tcZayaGmf+78vkUU5rh6vjSzSZesV/v7frV0NnXJMxGzLmlLHQ69ZlPKGy3RbLGSPjxzSZ8tdC/7fLJ1He82iHOif6UAWtTdC/2zv3WehAdNeayL/d3O/n9sW97f0z7BXSv9slJoo953vFjBoCgA4sXRSvXr+QM4fvXlXsPsnzhcvX8nZ/cPJdG4ZqSdrq1cOQo9cV+qFlrv3mGjdrt02+9uuoSie2y9un4vI7H4/f7S8jD1ZZHXAAjrsOd7nsmjvMaEhh+ZYzSL3/dp+T0FNhBxS20/ojiP/e/+YmOaQyPoxQbsOo3+GHtE/mxeqf6zWRO5npftn5BBS1aiJROz2zzRkT23vtd4AAMDB3qsGnZInVbfsuRO+/3WOqytD/MKhxPLRl+nxkPvYmB4TIsfHgv/mOW02rxcvXy1mkfv9+aM32ff7tE3xumKNf94qdY72jwn3vePuJC91TEy1Pi5qvMHgvyE7N2Dqvi6ZRdRE2CJnFoXuFJseE3M1Ua5+Tymh7duzzfTPgGuj9M9GPB5a989G29/Yh/7Zdtrrt5wYNAUABSxMdeBfJSUy3yH3uZOyfwUphSysmntzMCTUMRc5PSa00V4Eu33nvw5rWRTqhJBFsMw/BkLHhG/uTcIaHfOeTe9gEQkPmPqm+50cQk9Cx4RjsSbSeofXFP0zjC5H/8ydmzkO0tA/A8bpn2mshUph0BQAFMh54ilRbK5Nb7Pk/NEbEyd/YIulDrmz9CahRtov3nD7fEuH3EcOoTfumEjJIisdc41SBkx97He0UupOir01kZVjYs+FZRr7Z0BruTNp6eINZ6km0sjCBa0a+2cMwKIV+mf9YNAUAHBkrfPippAQWS+C/ccCPVobaJx7k3CqdcfOPQ9Nx2tMFjlL263teQG5xVzw4J+35x7bOodyyvlcYrOImgij66UmmtPywjL6Z0CcLTWRyPI5vHUWabyglf4ZEEdj/0zL56Na8X7rDQAA2OGK25jivVQhrPVEf/X66+UHfPdY5KPHRdZ9dvvT4M9Xt2mPgs/HmpgBR/cYrcfFlmM7VsnPB/Hf4Fja5hodcm2ZtHjcFz5uq2eRwRwqdVzEXvhQ4lh3tB0LTo0sinncSG8OUhP1b+6YWssiP3+01kTW0D+bRxbpVuL87B8Pa22d/lle9M/m0T8bE/0z2xg0BYBOlP4Ac5HjAjj2ysHpib/GdtY2V4j6rp4/iHrcVmvFbol1ipR7PrnlaG/37n4il09vHn1GhZv6ybX1pYLY/53rmLtpV3IfB6nLnG6j+1mK0sf4tEM+t53THDp8ffNkO9em8bJk7Zgsedy2yCIrOZTLNIv8n6/lkMjpm4Ml717ImQHas0hkf000Ug6JUBO1kuuYCGVHbE3kP3ZuWblo6G+UyiF/SuTU/plfi5JFeZFFy2r1z2JyyEL/bPqzFJb6Z71daEb/rG9W+md7j3+Nd76XxvS8ANAhVxRvncZh7cPKUzrkPRW8sC1lapPYO0inX889bmlZqVOv5HwD1N/+HEVxqeeU1iFfXlbO7QNyix2AiJ0ec255OY7ZEneN7FUyX3PURKlvRJBFSJV6TOTOotzbp/mYsNA/G/FNUbRVsn8Wk0Ml+mfuOC9xgYrmmihX/+zy6U1qIlSlpSYq2T/ba8TagEFTAFAix+CifzL1rxrOIbVDrvVKKYwjdxF8dv/ZUWcuZeA0dDXiVtMOuaZjYppFKW8SzkntkMe8abKVpn0O3facj7dMMTf9eu6xbrk5aM0hkbJZJJL3IjL/SvOttO136LWnJnLtONTettZE7ve55K6J5mYOSVGifxaqRefM9c/matE9/TeyCLFq9c+2DJzm6p+549z/XgNL/TNqItRA/2y7kW6KYXpeAFAg5+DidOqVaSGQ+w0EZ64QzvXc/AIfSBU7NdHWu6RjrlT2H5dq7ljOVQiXyiK/YPd/nyLXHaZTsa8hHXHsNX3TasmWduy34dipoFLlqitqm2ZR7ZoodplkEWqoUROVzKKSOZT7Di+N/TN/SszQMmNzSMTWeQD65Mwi//fTgdPaNZHG87Sl/hk1EWqifxZnpDtOGTQFAAVyn3hCVzQ7KZ3b68+5CXfM565gXruSOda0CKYoxlbTDuLacRA7bdz5o+vHx3bMUyxtr8YBUydnFl3v8zfB369dwRyTQ1s65OQQtpp7o2ptqrO15blz8zR/lrIo5dy81hHXekyEBif2vFGYUhO5r0X2Z9E0O7Xud+hVuyYqlUVzObT0XPbYW9dp65+t2TpIQRZhq1JZdHb/WTB/6J8d9NQ/oybCXiX7Z+6x9M9sYtAUADo194bg3M9TT6bTE35Mh2RtfdMpMuiQI5eUK2u3fH7L9A7rrR1z/9hYump5+jd7bX0jbYsaWRTKIf/nc89pTxYBKdbuNnI/C9mSRUs/27KNsTm0tN0azG370s9rZRE1EVoodbdRqCaa/jxlG2vWRHNy1Ef0z4BTuftnoYvIROaPg+ufhe++bt0/K6GX/hm5gxxK9c9a10RL2411DJoCQOdi3hAMnVxDy5lezbzc6Yi/UiqmIGH6J+w17QTOXVkb+pu55YXu8nJCP9tyTMQUxrmUGjD15cii2Bzyf56aQ9NtDm03kGLtmN7yxtv0mIjJIq05VIu1LKImQil+W4+tiebeHFyriUTIIh/9M+Cgdf/MfR0zKEj/bH4Z9M9gXcn+GTWRTQyaAsBAloriLVzhvnRlVMxJP1dRAmwx7ZyfP3ojL16+CrbBmDesRE6vaHamd3DGFMKh7Sjd/kN3muacvmpqTxb5nRCR5Snp1q4cn25DaP3udYvdPiBG6BgIZVFMDoXerJo6PbaXj4kWOTRHaxaJhPbrsS1ZtLR+P4e2bB+wJnRX0fmjN8k10dpUmP4xo7Umqq10/2zrm7JkEVpo0T/zl6kxi0IDplprIvpn6EHJ/tlaTaS9f1b6Ag6NGDQFgEGlnFz9K5nOH70J3kUnEnfVcagg4Sop1OQ+e8VdXews3UkxdXxMHH4W+ryW1Cvxax0Hbjv9QrhWUbw/iw4/m+7z68708puD0ywKXbHp1gGUsJRF/v9Lpm9WzZ2fY46J0LJb0ppFsTVRTBat1URuHSJl3zDFuM7uPzvJCffz3DWRW4fWmqil3P2z0xza3z9bGhQB9qrZP0sddKvdP1v7WQn0zzA6+mfHRhswFWHQFADUsHLlzukV6adXQ6WcwHu8chx6TQvWtWmgloTu0pgeF7Tt/Gpm0dpUU0Cq3Fm0lEPT5WO/mBzyHxdrqSYih5Db9A7Fs/vX7atETeQ/Tqvad3jtRU2EHtA/s48sQg/on82z8r51DgyaAoACFk88OU/slooE9GGpY5XaHntox2TR8rLokCO33FnUQw5ZRA7BMmqiUy3v8NqDLIJlZFE/yCJYRv9snoVaKJf3Wm8AAGCsEw8AnSwOmAIAANTAG/MAaiN3AKANBk0BAAAG5wZM6ZgDAACc4sIyADVxQSsAtMOgKQAA6BqdzXVuwJR9tR37DLFoKyiFtoUtaC8ohbaFWLSVdVzQmoa2hS1oL5jDoCkAAOgWnc04oTtN2W9xGGxGDLIoHfttHTmEWGQRSiKLEIMcihM6nthv68ghxCKL4o24nxg0BQAAXaIIjuc6ln4Hk85mPDrnWEIW7cOxFYccwhqyCDWQRVhCDsULHUccW3FcDrG/MIcs2mbEY4lBUwBQghM2kA9FMGrjTUKEkEWoiRzCHLJom9C+Yv/FI4sQQg6hphcvX5FFCCKL0o203xg0BQAFKOaAvEYq5nJiv+3D/sPUXJu4ev6g8pYY8N3jtN8Naq4NkUMIIYs2+O7x/B1eZNEJsgixyKENqIk2I4sQiyzaYJI3I71vzaApACgw0okHgE5cvAEAABDGG+8AaiN3AKANBk0BAAAG5wZM6ZgDAACc4sIyADVxQSsAtPN+6w0AAMz47nGW6SHO7j/LsDGAbqMO+GWZQuaHaeiCHfNMOSQyZhaN2i5HFfN6+8fT1fMH8uTihoiIfPHwrTy5uCFfPHxbdBu1u3x6c/Z3I0+Z5dqG315EjvfJUsaSRWNZe72nx5KfRSIyfA6JkEVz5s5Zbp+s1Xpk0ThSa6LQuW5U/v45f/TmKJdGziGRfVlEDo1lT01E/+zAz57zR28abkldDJoCgGJn958lFXXubzQX0xSryGX0tpQrJ+auZE5dfmgdo+EO3nHEvs7uTZyr5w/k7P4zefj5Z+9+/vDzz8xdXBD7RnnssuY64pdPb2bbN27fW+Laht9etjwPsmgcMa+z326mWTT9vRU5j+saWZQzO2sKnbPIIkztqYmm5zpLStdE7vvcNZGIvX29J4vIoXHsrYks989q1ES9Y3peADDK+lQtTDeDve7d/YQOT4TSxxnH8TKXdeynfo2eQ6FOuT8As2b62KV9uWe5vhEv5KDu6t+oWbR0PGvNImtvwOZEFvVt1Bxy5o7t2MzYki05ljtqFpFD/Rs1i0rVRL5R9it3mgKAEiMWbj1f5TfCG7Kx0wKW0Gu7QZ9cW23RbnvPounzs5RFfmfUfb31zbKWvnj4Nnhlf8pzOTz2MPXVXC2UutyLL796973b1qvnD0zta5FQe9k+VVjLumukLGrxJnSuLAp9r1/4WNiTRaF+2WH/3syeRf7UyFYc7wM7WdR7DonY7Z+FjitLWbRWE02/XhJzXKUvV06yaMsytNmTRdRE5fRSE1nsn4mU6Z85I71vzaApACgw0olnqqeB02lhMp3qozf+lEpOrWkPe2gvGo2cRTXUardzWdRzDonYy6KLL786egNr+qa6Zkv7d+tzcY/94uFy+0xdbsjWKSVbc8/Fby9r+2tOqxwSGSOLQp+NZSmL3PdW+Pt3uq/3ZFGoFnI/Gz2LRI73gbUson9WTo4cmp7rLFiriUSWc8C3pSZKWW6ItRwSyZdF1ERl9FIT0T87Pa5Geq+IQVMAUGDricc93v1vfQDJ+vaLnHZMpz/r0Vxn3Fqnq1d+rsRkxdYB063LR3mhjmno5z2Ze84W3gCyeiXzFw/fHt0ZZWFfi4TfOLd0l1eOO01r8e+ic/+7n/cqVBNN/9fK6p2m7s6uWtydpntN28OTixumskhk/52mtdA/s9M/s32n6fUxkDvzS17Q6m+ntZrIsZBF1ER2ayL6Z2Nj0BQADPEHJvy7MxmwaCvmTfoei+Lp8/QLYX+foL5pPqxND+tnSkzHfOvyUV5Mh3S0HPK/Rx61BylKs/omoWbTY48ssvEmoTUtsqjUwMXFl1/JxZdCFmVG/+yA/llZJbOo9gxA1ET50T87oH9WVm/9My0YNAUAI/wBjemdpiJ9TXNriaW7mkoLXUGZC207Xmjwc+6Ci6W/ybl8hOXaV7w5f83PH/9Nwhz7I3fbtjL9U+/tysKxk3N63pASWeR/P6LQfrCQRe57jbQfp3tZySKRPNPzhuTMIhH6ZyJ2+mdWpued7suSbWtL/ywXCzkkUjaL6J/lR/8sP9pVee+13gAAwHauKHjx8lW3gxMjzZWPZQzCbef22TQrlo6rrVPzbl0+TrHPyijRcRw9h3rvkJd4M9mSUlnUc5uJQRblt5RFPRzHPTyHPaiL7Bg5i1wO1TjH1Ziad4ocIodKoCbKr/f+WWsMmgKAIX5R0HtxYKFYtfQ5MbVMr3bb2+EavRDeKrS/cu6/mOVbOHY1ybW/uNr0WOiK5lSj55B7Y9Cf2i/0mFxvsJXY12vHRc03QLXKmUUiDJg6ueohEbLIz6IaameRf+fNyMfP3iyif3YqZ//MzXo1ahbVrolaIIfon5VC/yyfllk0yn5n0BQAlAideELT8PrT84YeE/obqxh8GdvohXCspQwIfR16bM7l95hFpZF1epFD12oNWNTe57yRdY0s0ossuraUQ7kyKnQslNz/DFIcI4t0ms40M7LaF3HktHbxBjl0QA7pRU10rcUFZaMcFwyaAoACc58DOL2r1P/f/wzBpf+t035StthRKi3nG1ZYNzddtz9lbuh3/v8llt9bFpWW87NzkA/t91TpjnnN8z7HzKnUNs++LIssOlY6h0IZ1GKazJHtafP0z8L27hdy6FStwYoa+54sOkX/TCey6FStLNL83mxu77feAAAY3eXlZfgX3z0++tZ/E3HujrFei4denxdQgsuKUE6430/F5lDq8gH0pdRUY1uyaC/exAJsKznlYa0sIocA+6iJAGjAVNB5MWgKAI2d3f40+PO5q4TcgMT080RGuuJHE6vT8pTkf3YH2vGzYS0ntubQ1uWjDjpKsC4li6AD5330hCyyjTwKY7/YQg71gf4ZYBPT8wKAIXN3ePV8lynGwGBbXtOsyJ0TpZePA46Lutjf20zffNX6ZmzojSrevNqGY6Mu9ne8UO5YySJyaBuOi/rY5/GoicbBcVEX+3sbK1lkAYOmAGDM9LMCp58lOAoNxZNfgFCMHEzvMl3rgDHYVk4oKywtH+ELZeb4VzGTRcdvAK29GUQOpbPY3nhzcLutWSTCnTBObD0kQhalIofGEJtD9M9O0T+rw2J7I4u2o3+Wjv5ZHbS3PJieFwBgkitWKaLs4vduMxMAACAASURBVPUD1oWmQUY+7Nex8OZgOrKoLPbrPpamP7SynRpNPw6CYyY/smgfsmgM1ERlsV91c+/F9o47TQEAZmk4WU+vlBv5ii5/H8R0wCiEgXhLx8v0KmayKP6OCnJov9Hb22hismj69aim+4IsAvJYm+GE/tk1+mdAOfTP4tE/q6tUe9PwHmwtDJoCAIr67V/++bt/JYx00oYOpds0yuB1GwNXzWMObaO+kd8gpL3VZ6G90S6A/pFFwDHaWz9Geu+V6XkBQLHrYvvmzCPmfn79O1UF+7+J35bzR2/k8ulNOX/0RkRELp8enk+o2Gp9JZrrGI12BeH0efrPXWth7LZvrn1ttqFNl7KeE0u/W3/e+5Z//TtVx8XGLBKRd+1lKYtaCh1/qvZ5IUs55L5Hedrbm9ZzUo/8msj/vncWa6IeaW1vWz7bFnnQPzsgi9qYtj9NNG5Tr+ifHdA/a2OU9lYKg6YAoNjZ/We75vPXUpj89i//XD7+m7/f9Df37n7y7vmL6D/h+/s3NAWS5m1PNZ36yv+ZZq5dTdvXFiltOqccx7bLlrW26ZY/chaJHLcbrcfzdN9Os0jrdu8RylkLOdQj/w3CJxett+aANtHGyFlkrSbqkebzNOqif0YWAa1RE5FDLWnsn1nBoCkAdGQ6qNFzIWZB7/t9y/PbM+CGsLmOR+t9HVo/WVRG7Gvd837f+txaHx8jOLv/TB5+/lnrzRARBk9qIYuoiTTpuZ1hHjl0QBYBbZFF9M800tQ/s4JBUwBQzN3htGXe+GnB4U8D4qaZrO3eP/yTSMLc9/7z3jp3fuvCazqg1WNRHHO1oHvdNBXBoeNqc/tKbNM5XD69GbxaPuX5bH3c1sf3kkUiaXlcmv+ZznPH2Ch3VKzRmEW98acf03IlM1MS1kEW2a2JeqYpi0TCdzoin605JEIWkUVAftRE9M800dg/s4JBUwBQzBVcsUXE0mNbdtRTp8Q8LTjjP3cyplhFWa0Hruf4x1VqG2k1Pe/SMeyeQ+x+v37c+nG1JYvWHmcxi0Sm+yDxM3AL2Pq6j4bzQH2armTmTtN6yKJl7Jc6/Au0NGUR6iCH1rFv6tD8+ZVcwFEeWbSM/ll9OWsi/320njFoCgADOX/0psldXi3uNBWhWG1N6z63fqdpL1oU2r3daerTery1xn6pQ/ObgyK8QVgTx1wY+2VsfgaRReVxvM1j39Sj8VjXXKv1iOMtjP1SR4n+2SgDpiIi77XeAABAPS9evpKz+8/k8qmeu6RqoChDD9y0vD0YMYeAXml8UzCENwqBvpFFADSwkEXkENC3Ujk0yoCpCHeaAkDX5k6Uta92bjE9L675HSLtHbgaLE3Pu/TaWbpbIbSdLe666HF63hamb7LEvnZkEVqzlJtYl5opZFF/OK7RUkqmkEN9spRF1ER9oX8G5MWdpgAwKK4uHEvpAnikK85qGaEDQw6VVfK4PLv/LKldkkV94c02rCl9TKa2v5LtlhzCGuqf+jRmETURMB76ZyiN/lkeDJoCwOBGPZlSuOXDZ8aWkdrpsWiU51nbSJ85IkIWIQ6DFXWRQyiNNwcRgyxCaRaziJqoPrIIsIFBUwAYlMWiPqdRitXSnSCK4PKWOrMWOrpLWTN6DtVQI+tW2+B3j8miDk2PX63HcygnLWRnT1wOlcyiq+cPRL57vPqYkq87OVRfKHesZBE5VJ+KmijyMXuQRfVZqYlCyKL6VGQR/bMuWc4ibRg0BYABceI8GGXgtBSKYMAGDVlXeipMsqiuHuoI3iSs68XLV0WzKLY9lmq35FB95BBSaKiJSiKL6iOLkEJDFtE/60utLBrldWXQFAA61UPxXoOGYtWqUYolDXrsyJJRdfV8vPb83DTq6djtMVu16/V47fV5aUUOYY+ej9een5tGZBH26Pl47fm5aVRzwHSU908ZNAWAwfRU2OdCQQcAwLoeawjeJARsIYcAaEAWAdCgZhaNMmAqwqApAAylx8IeC1Y+2wu2zHViNXdu5zKHLOoQedO9no9bzTkK4Bo5BBOWaiLqpS5YzqK1rCGLOkLedM9yFmnHoCkAAFg10hVlwCgsHtcWt9m6q+cPVjvk2jvssW8A8iZhfdWO6YxvHJJDbcQew5azyP2eLKrP4nFtcZutizk+tedQLHKoDYvHtcVttq52/2zE2fmaD5pevf7m6B8AoIxeivcaKPqO3bv7yZBFkkY9XPlLFulh7TNJyKK2rGfPkp6fm3bkELbq9XiNeQMU5ZBFiOEfn5azaKlPafl59YAswhY1jtfSbXI6NqhlfPD9lit3O+Hs9p1331+9/ubd9wAAtOCKAoo/imCgd1byzsI2bvXw889OvvZ/psWTi+uvXce8pzf1r54/kCcXN959r/E1EAm1l7ftNiYzcqitaZvXegxMs6jXHHr4+Wfy5ELv6yAyPWeRRbVZ2MatQnWQ1mNglCwS0fsaOGRRWxa2cSur/bMnFzfk4suviqyr9ICpiByNBWoZNG1+p6mIqBpFBoAe9VbM1+AKVUtX+eXWYxHcA8t3m5JFOmm/opks0uPJxQ15cnHDbAb5Hn7+2cmbg2iHHMIWLoc0vpG5FTmkC1mELaiJUApZhFhPLm7IFw/fVquJSrzu2u4yFWl8p+nZ7TsnO4O7TAEAWrhiYNSCcMTnDIxK8/Guedv2uPjyq3edW/d1qSuEc7v48voiCCsXQ0y39YuHb01st4i8axt+e/niof03aac0H+uat20vv2257y1wOXTx5eF7i1lkZZud0DmLLKpL87bt4bcpv51Z4NdEVlmqiUTIIg00b9seVvtntWqi3IP5/uyz05+1pmJ63unPtOwcALDKetGuTa8FIVASOQQsszL90zy706C5uyks7e+ep+dFW1am5w15cmG33rCYQ06vU2KiHUvT84a4LBKx8xEG/uxFZBFwYLl/VqMmyn33s+axwaaDpr7QyDIAYD+rbyQAmGfx7gRr2wuUZvVKZmfuzoqUNxhi3uxKXa6/Ty1mp8g4d5qiDat3mjoWs8ixtq9HubsL9Vm+09RxWeRLGQTekkPbl3u6X63VRCJkEcqhfzb9m7oXI4RmpW1FzaCplh0CAMCIRp2CGMC8FrlAFtkzvbNi6xsMsW92pS53up2wpVUmkEX2TN8kJIuQEzURYvlZ5I792MzYkkMpy51uJ+whixAjZ//s8vKy2HZOaRofVPeZpgCAfKrdTfH738nf/tf/IfLBhyIicva9yH/605/KX39QftUt9FY09vZ8arv69rSWObtVfjoRS3dMkUU2uc8sqZUPI2SR/wbVYWrG468tv4F1vO1vN1zxf/3Yped/+F3acsPLssO1Db+9+P9bOA+kqp1DImNn0fR31pxuO1mU09w5iyzKb9QcCp3rLErPonAO+VPpHv9u+3LXt1U/sogsyon+WYj32O8ev/upf2xdvf569/b5Y4PaxgnVfaYpAMCaf5ZfyE/kl3/2k+Mf//6f5Rcf/Fh+1WajimrxBl4pvTyPVkIDpu7nNQZO4Rsvi2qolXejZJHraJ7eEXX8vzXus/nmrl5eurLZ/W7p4gr3u5jlzP3ui4dvTb+J5reNuam3elUzh9z6ejeXRSK2c2hvTuzNor3Lt8I/Z/XwfGJRE+UVyqHpuc6iPVm0lBPT/VUy66wgi8iiHOifzf+u9HHljw1qGyd8r/UG+B/squFDXgGgF/WKxg9Evv+d/Pz7P7z7yc+//4P81fci31ZYeyuuULVslCK4hrNbd47+VVvv5Kpjjcgi+0rnHVkEYE2tHCKLACyhJgKgAVmEHmkaG2z+maaaR5QBADE+lF/9icjPf/8/5W//2+9EROTqj38iv/6TH8tvGm9ZadbvOLW63RrN3XGKmsbNohpK5gVZBCAGOQRAA7IIgAZkEXqjaWyw+WeaOpp2CgBY5u7qqnv32Yfymx99KL/8UcVVKkExOTZ3V6k/aNpiWl5Ln29a1rhZBFtGOlYffv7Z0f9z00DtXb77OvfytRqpDaGcUdrRNCdEymVRqeVrNUobQjkjtaHSWVQj67QaqR2hjJHakJaaZXpnqabxQT7TFAA6VH3w5Pe/k7/9r/9D5IMPRUTk7HuR//SnP5W//qDeJgAthO4wdT+rNXiqeYpesggYl98J9wczc3XOp8tx62jd+QegyzR/Ql/vXb5IuawD0IcaWVRy+QDs01azaB4bbH6nqeadAwCI8c/yC/mJ/PLPfnL849//s/zigx/Lr9psVLf8wbEtg1HWP39Vu+kAKdP1tkAW1ZQ6NTlZNAZ/AHN6JbPIaUc9dfnT5c69EYB+pWYKWTSG6cUU7mcieXJiKesYsBhLSqaQQ+OomUUllg8b6J9hSen+WQrNY4PNP9PU3YbrdpCmD3wFgNZc8aK7iPlA5Pvfyc//6I/lNz/c3fXz7/8g//Z7kV8POkVm6c853Xpn4fmjNz9sz81i2zS6q2+/CU7VW9vWzNj6uNzLzYssqsl9pvMWZNGY5q5kziF0J0XO5UO/Fy9fyfmjbX9DFo1l7e6rXG8QhrKOQYpxuCy6fBqXK+TQOEJZk7Muilk+A6djoH+GWCX7Z1tpHRtsPmjqaNkhAKCJK3piB+BcgVR3Lv4P5Vd/IvLz3/9P+dv/9jsREbn645/Ir//kx/KbiluhiV+slhw8vXr+QOS7x4uPOX/0Ri6f3pSz+3z2aglnt+68GyRt+bmmbiB9S2ZcP269g5S6XLKob/5gxdqbhPfufkIWdezJxQ0RCd/1GeqQh/9/u7iO5b+VowHT0NXTbhvRn8unN6MGTs8fvSGLOhc69v3v5+7Eis2iJxc3FrNo7/Jh2yGL3qzWRPTP+relZgn9zZOLvMsni8ZB/wxOjf5ZTtrGBm98fOtOlWfv34FR4vGbt+f113J2+9PNvwOAnBaz6IfPAtw6aOoKo5qDFT//7/+3/B8icvXBT+Qfv/+d/O//6zBY8dc/Otzt9du//HP5+G/+ftMy3fP2Bx+rfz5iBu555Np2t5zp/3Prngq1pdyPq7XulGX6x1Xs8kLL/Lt//a/etem5O0vP/+IvkrYx9bFXzx/I+aM3q4+bLs+9wbNnmXPLDbXNkq/5n337X+Tficj/++Pb8n/+X/85mEV/8Q//lPR8/Mf7x91Ix48Tahdzywsts0Tb6H2fb3lciWWuPe7q+QN5cnFDLr78KvjYn/3sZyd3PMTuo6XHTTv8//iP/zj7uC8evj1qd7zm2x9XYpl7ns+ec5RIOIu07XNe7/jHuXPzXBaInGaRiMzmRsy63WOnd3It5eBaDbFl/Rr2u+Z1l1hm7nq51jbWWneJZWpb99pj17Iotn7Zsp0/+9nPROR0WvA9WWRtv/ew7j3LLNE/G+H1LrFMLe03V/9s7/NO1XosUc2dpgCAU+5ENHdyD4m5ujWvP4j86Kfyyw9+GDz94Kfyyz8Rke//ID8XGf4Or5J3mq5xg2FuOw4do9Ptid3GaQG2NAicsswcj9u6TH9QftMy//W/EpHlqXiXlpn7+cxN1xybHWvb6i9nSx6F2km51/wP8s/f/0i+/EDk5//Pf57Noq3r99vIns5BqTa85XExF2+k7p+lq5SnWTR3d3Pu56Nhn/eyzK3rng4guDfzfK6j7h4z93pen7+eHS33xctXJ1NLhda99zlZeH1KLLPkunNn0dYcun5j8DSLUp537ZqoxDJ7bb9zWTTNEv9nS/XyXBZNhd6IDOVgr/vdyrpz1xEpNRH9M3vrTlnmXGZMM2qtJhK5Pof5dc60pnJCP9+TRdb2u4V1a+6facjVFo+zssx6/bOZmqjzmw4ZNAUAxVznK/ZkeO/uJ++K6Jp3Zd76lz/Ibz4Q+bf/S+TKfXbgv3wv8sPnCqIdN4C+9fO+EG/6Wab+lL21bcmM68eVm563NrKoHr8zHsO9MUgWjWH6BqDI6ZRxez5Xy1/GdB18btdY/Np37bzjHnf+qNVnb6O2uSzKlRNLy59+jb65LIpB/2w8LbOIHBoH/TMsKd0/6817rTcAAJCXGzCt50P51R99L7/4/ffy6z/9qfz6X34nf/Xffyd/9Ud8jqAmW65CwzZX335zNEjaasBU29TV9beHLKrpxctXSblCFo3Hdb7dAGfpdWAsKZly+fQmWTSg0jlBDo2NmgixyCKUQv8MsWr0z6zjTlMA6FTVu00/+LH86oMfvv7RT+Q3P1p89PC23D0M3fy7Sqdf11L3Iontqn4WMVkEqOFfxSwiR1/n6JxPl++vg84/AGcui3LlROmsA9CHVllEDgFwqFniMWgKACjj+z/Izz/4kDu8ArZOuwy9ph82X3OwFJHIIihU9WKChkpPUekvc7QppUZpQyhrlHZUK4tGyyGRcdoQyhmpDZFF5YzUjlDGKG1o5JzYgkFTAMBOf5C/+v9+J2fTH3//ofzHP2OgYg4Dp/2Ym463xgCqK+w1321a7653sggAAAAAAADp+ExTAOhYncGUD+XX/9tP5Jd/+tPJvz+Wbwuv2To3cNpKy3UD+ZFFJZXMC7IIQAxyCIAGZBEADcgioBzuNAUA7PabDz48/SHTYUZpeaepP2jLHa/pQneUzt19mpOl6WNq3W1KFuVXIyNGyiL/Qqar5w/kycUNERH54uFbeXJxQ754+LbVpmUxf6HWW/niYfh3Ty6u/27pQq/D/kpfx9ryNXNtw28vIsfPx8r5IAU5lNf0OPCzSERM59DenNifRfuXr9ncOcs9n55zSIQsyi1UE4XOdRalZtFcTkwvhq+RdZqRRWRRLks1Ef2zcBaNgkFTAAAG5gpgpgpOMzcFL59tih7UzIVRssh1NN1FBA8//+zdzx9+/pm5jqjfib748iu5+DJtORdfLl8I4v8udR1fPHxQcbrwvFzb8NuLxeeRolUO+d/3xm830yya/t6K6RvlWrPILd+xtq9D5yyyKL+Ra6Lpuc6S0LG9Jyemz3+6v1KX769jumwryCKyKJelmshy/8wdEyX7Z71jel4A6Jz2zzuEDr0Wwb2yWLySRfa0yAWyyKZpHvkDMGtqPdZ/Q40ssqNVDpFFdizdWaQ1i2APNRFi7cmiLdmyd7lkkU1kEZb4fZ1a/bNecacpAHRopCvtetTzlXzIj2MdsMnvjLqvLXVQv3j4NjgAmfJcDo9dnvoqdbkXX361uDwrTtuL7anCoMf0WLB2bIi8DfZ9tGeR22Z/amQrjvcBWYT9QseVpSxaq4mmXy/ZkkPblyvBusjSvvaRRcjNev9s7jgoVRP1jEFTABgAg6i2uM+PYOAUIZaPZbII6IN7c1Dk9Li++PKrxcHKKffYuc/UcVKX6/jbaHmwAsA1P4umyCIANazVRCLLF3H5tuRQynJ9/naSQ4B9LfpnPWPQFAAAhTQMnLZeP4B6NB/vmrdtD9d59b+O7ci21MuFD5Yu4nBtw28vPb6JoflY17xte/lty31vgZXjd421LBI5PmeRRXVp3rY9/Da1dEekRj0cA5ZySIQs0kDztu1B/wwOg6YAMAhrhTDaD5y2Xj9O9XAMk0X6aD/Oe80ia9M/ffHwMD1TT8euP5We9jssep+eV/sx3msOidibnpcsaq/nKTG1H+e9ZpHF6Xl7yyJrOSRCFrXUexb5X2vOot5ySBMGTQEAUKx1EdprMQzgwMrx3WMWWbmS2b2B1mtn3J+azv9ek97vNLVybPeYQyJ27jRdO0atX5RlJYtE+r27y8rx3WMWWbnT1P/MUo3HaKy5rLSQQyJkkRY9Z5H/teYs0nqM9uC91hsAAKjHv3oQiOWKYbRl+Y3AKbJIB2udXLJIL+3HdE/52RtyCCMhi/Qii7DF0nGsvSaCbmQRciGL9uFOUwAAsMpS4Q49rN/10TuLx7XFbbbOyl0He5BT7VQ7pj96LPLd4yyLIofa8LOox7tNe85YCywe1xa32boeaqK1jLSaob2weFxb3Gbresgi7bjTFAAGw9VG9kVfyfdRnjcH0V6PnVeyqDPkTffO7j/r8rjtMV+BnvWcQ2RRJ5ZqIuqlLlATwQTypnu9ZpEGDJoCQKc4cfbrxctXcv7oTevNgAJ0bAHU1lN9QYYCNpFDADQgiwBo0FMWacGgKQAMiBOqfZdPbzb/7IjW6x9Fzx1Ysqieno/Xnp+bVj0cuz1nq2a9Hq+9Pi/NyCGk6vl47fm5aUUWIVXPx2vPz02rHrJIEz7TFAAq84uH8/PzqMe6/0OfFTAtRuY+OH76uPNHb2aL41CBE7PMucelLnOp0Cq97q2PW3vs+aM3m17Huce5x7o7TVvecfri5avZ9gY4lj9frBfXx+nN1ptSBFmkg9ZjXeM2jarnLCKH9CCLsKT345Qs0oEcwpqeayIRskgLrVlkAYOmAFCZXzRcvf5azm5/uvjYtULD/93SY8M/vxk8gcYWNlsKoK3LdM9lywBlrnXnepz/2LVCZesyr54/kPNHb+Ty6U05uz//t6WvNqMYLse9br0XuBTyZdU4Ps/uP5Or18uf33X1vOgmkEUNWD52rW63VUsXjeVy9fzBD5/dNf+6UhP1hxzCFipqIiGLekQWYQsVWUT/rEuWs0gbpucFAMCg80dv1BSfS4PbSOcK3d6nWOn9+bWkqZNao+NGFtVncRoo3kioy+VQjTcHcz4uFTlUHzmEGJpqohrIovrIIsTQlEX0z/pkMYs04k5TAOjY0lVGFMh23bv7yeodplOliyYthX9v/IHTHo/XXp+XFsXv6qr4d7HIIiwhc+orfUxqzCJyqD5Ld1ZY2c7eaMwiaqL+kEVYQ/8MsIFBUwAYjCuI/M/YLO3eP/yTSMK6pp9v2vLzOzXZ+tkXdIau+e0+9vNzQ1LbdKqlzyC2yk0xXfPK0z2vm99uRs+i1HbYU/vFNStvEFrYRmxDFsFnIYu0bx/SpLymtIN+WbjLiyzqDzURfBZqIu2YnhcABuIGKUZ/wx+wyA2cOpaK4OmbBy6LAPRB+xuElvISQDqtWUQGAePRmkcAxkAG7cOdpgAwiJad9d/+5Z/Lx3/z95v+xn3Wg7u768XLVz88B6b2sELT53U4h2mNnwXb1xYpbTqHs/uvzL/xZjGLRK4/j0VrFmk83jRgvwB1ccyFsV9gvX6zhONtHvumDs2DFWRRPRxvYewXWMCgKQAoFppGNOZv/ALEFey1p8E82iam501muaD0B5m0sDo9r296x6mT8ny2Pm7r46evvdUsEtE9Pa+240wTjTnUK1dvXD1/IE8uWm/NgctK3hysg2NtHllUj+bBCpTHcbaMLALq4DibRw7Vo7F/ZgWDpgCg2NZiYvpY/w2DlgUJd5qm6aGQ1FYQ57zTVESa3G0qcn3HqX+lsHsOsfv7+nHrn4+75XUMPU7DwEXqa6b9TlNNx5dWe451bHd2/5k8/Pyz1pshIgye1EQWrdNWE/WKY35cHF9xyCKgLI6vdfTP6tLUP7OCQVM0cfXtN3J2687J/+53IvLu+7nHrz1mad3Tv13bLv9v1pYP5OTuytrW+Q8PgDR/A+HfpKz/5szX/eup0NbWMb8+FjK0r6R2nVf42F5/PrHZ4h6zLYuU5pDIjtfs5uT/9jQdV9ptvagA27njW9OVzP42cbdpORxX8bTVRD3TlEUi1xdxkEVlcFxtQxYBZXBcxaN/Vp7G/pkVDJqiGTcQ6f8/HQSd8gcwY5a59HfTgdC1Zcz9LVCSuyMu1LleKiyO74Zq3zFvfVeeNT0WjVqeT47jQVN7dsd4TB6Efh5zF5a//NDdlWRRO1qOK0vYZ+VpupKZO03r4Ljahv1Vjqs33P9asgjlcVxtxz4rx88ibbiAoyyOq+3YZ+VRE233XusNwHhiBiNjf3/17Tfv/k1NBzRDA5zuZ2e37gQfPzegGru9AK71MkhRA0Wjbh//zd/Tno3itQPK0P7mm9Y3LgGMwR+kIIuAMWisjcggYBwaM8gSBk1R1d5BxungZsw0vO7r0Lr9n88NyE7Xv/Q9gDAGKQAA6JOVDjlvFAJ9I4sAaGAhi8ghoG8Wckg7Bk1R1dogY+iOzyVLg7DTwdW5O0nXpvxdmzIYAJDm3t1PWm8CYAbHSxns17HwJuF+HDNlsF/34c3B8XDMlMF+3cdSFlET7cfxUgb7FRrwmaZQJ3aKXn+wc23gc2lZSwOnqcsFSnNFhPuf6Vzt6vHzS2O9ePmKNlyQ39kosZ9LLx8H7NuyyKF9LL05iH04Tsoii8bCZwqm4zgpiywC1nGMlEUO7UN9kQeDplAlZcB0yv1u7vNHp79fGizdOygL5OYXDv5gGwWFPbxmB34bHn1f5DTNh9z7ufTyccD+rIP2OxYGK7bj2KiDLErD8TwG+k71kEVpLGYRNdF2HBd1kENojUFTVLX2GaGhx/oDmNMpd5cGTqfLmltX6LHTn0//fml5QCmuWLh395OTO01FTgdSoRev0yn2Rz5+Vvg/E8mTE6WXj2vsx7rY39tM32TT+qZb6A1B3iTchmOjLvZ3vNBxrPXYnuYOObQNx0V97PN4VmqiELJoG46Lutjf21jOIm0YNEVVWwYapwOkqY8J/W7LY7f+PVDD3J2msIHCD6Ut3QlqYfkAdOuhA86bhIBtPRy/5BBgXw/HMFkE2McxnBeDpgCg2PSOUv//6SDF3P8A+jZ3zE/v/oz5m9zLj10HADt66pDzJiFgU0/HLTkE2NXTsUsWAXZx7Ob3XusNAADMcwOjof+nn+sy9z9gFYNtcfxj3j/u3ffuIovp7/z/SyyfLDoIfc566Hf37n5y9Dj3u+nfT3++tHzsRw4d67FD7t4kxAFtXidel2vk0Bho8/rwmhwji/pHm9eJ1+VYj1mkAYOmAAAUREGXLnQHI+LM3f2ZawCz9PJ746b1d4OboYHQy7/7u6Pvp9YGRhk4LYMcutZzh5w3CQ/Icb3IogNyaAxkkU7k0DXLWbSWNWTRATmkF1l0zXIWacf0vABghH9H13S6zOlnnEIHXpNTbmDH/2zoq2+/8HNJ+AAAIABJREFUkbNbd45+53724uWr4GDQdBBq7vcjmsuKXDlRevk9mLbL6QCp47d79/2ctTY9cpsvbfS27d44W+qQa++wx045p/15lDRyG7eCLFp/E1/7MbyWRf5ghebnUdLIbdyC0IxXI+khh2L18jxSkEP6URPZ759px52mAGDQ3HSZI9J6d1WNAu7q+QORjx4XXUcJoQHP0NdaX1tLSk+RyxS8YWe37rz7t/SzpcFV6MIVzXFvFFrV83OLMfKbTtaQRf0er1fPHwz/BidZZIP/ER2j8Y9Py1m0dDep5eeVAzlkx6g55Bv9eC2JO00BwJBpUeB/bbWwc3cUhn4WuvPQ/d79PPT4kJp3YdUqtM/uP5Or1/oHTWPvupvizrl0c1lRanreka84jzXNui13mYb+HvXlbt8PP//s5Gv/Z1o8ubj+usc7oK6eP5AnFzfefa/xNRAJtZe32ZZNdttSMotC32sxzaJec+jh55/Jkwu9r4PI9JxFFo0q5+sVqoO0HgOjZJGI3tfAKZFF5JAt9M+uj9uLL79qt0Ed4k5TADDGv7vUfd1LYbf1zsPp96EBhRaDDFXuMDVkeoed//3S68Ndd/uEssLS8nuw1Ib9QVA3gDr9rNMtywNqeHJxQ55c3DB3Hgp5+PlnJ28OArDB5ZDGNzK3IocAu6iJALT25OKGfPHwbRc1kSbcaQoAqC51SsqUAdDeBhksX8nqD35PX8u5u+7mXj/uuoNmc2156c7S6R317m/m7sQPrQu2XHz51bvOrfvayhXCF19e311h5S6L6bZ+8fCtie0WkXdtw28vXzy0/yYtdPDblvveApdDF18evreYRVa22Qmds8gi5OC3Kb+dWeDXRFZZqolEyCKUY7V/ZrUm0oxBUwBAdaE3/GMGwFIGytam7UUba1Ms85rButCg6NrU3TH5Flou2tkzHbuV6Z/mhadBS3kuMdOqpS439EaHu5vC0v7ONT0vn9XVp1xZFPpesycX828Mas8iiznk5JgSkyzqT44csjA9b4jLIpHji5xTns+WHNq+3OvBaP9zTUfNInKoT6P2z1rURD1j0BQAjOqhuFv7PEsLdx5SaK9beh1Dg+ahO+7cY/2f3bv7iQh33a0q3T5p/6dCWTSXFUu5xYCofu7zfVOOA6tXMjtzd1ZsfS6xdwikLtdn8c4ukXx3mlKz9CtXFrnvLbGYRf6yLMl1dxdZ1KccOWTxTlPHZdHxzw7PITYztuRQynJDrNVEInmyiBzqF/2zejVRz/hMUwBAE6E7Daf/TwfDUgbESg6iUWjHCX1+6dznmvqf8Rhaju/Fy1dy/hd/cRg8nSwX0OLe3U/Iis65jvmoLH2Wl6VtzY0c6h9ZNO7xbQlZ1LfRc8iSkTOTHOrf6Fk08vGdC3eaAoBi1ye6mwl/nfI3dUwHTN2dhXOf9xd752HorsVSg6YU2jq412Dk16N0Tuxb/p6/s2/kdjma2Cua/Q7sYWrG46+tdnBPt/vthiuTrx+79PwPv0tbbnhZdri24bcX//+1u0TIonHszaLp76whi8qaO2eRRfDtyaHQuc6a8HbHZkY4h/ypdI9/t325cdur254sIofGQf8sf01k8c70VAyaAoBWHz2Ws9uftt6KImLuIpz+POZvtix3DwptfUZ9PXIUrVevvxaRmeV0nEM1jNouRxXzertjdjpt0sWXx/+PaGnaXItT6ubmt425qbfmkEVj2ZNFImPnkAhZFMM/Z5FFCEnNoem5blSh42opt0eVkkXk0Fjon+0zct4wPS8AABtRaAMAgN6EPgrB/37t98hrur95LTCqpfbOsZBfzLlg7ndAD8ic9qhH0Rp3mgIAAAAAMLjQxyWI8AZ5a9M3Cmt8DAWg0VJ7D+VUiRmHRhLa3/7A0fTn7G/0hsxpi3oULXGnKQAA6M69u5+03gQMiHZnQ807KObaxKjTHC366HHa7wY114ZScyh0XKCd3K8FWbQBWbRJ7iyaSj0WGLxIU/I8QA5tQA5tliuLyJy2UurRrfueLNpg4Lxh0BQAgBUMhNjz4uUrXjdUxWcd2+M65aEB0+nvUt9AIYtQ054c4s0+XXK/HmQRaspZEy0dC+7cTH7lE7O/U5FDqC0li0oeA1hXI8/JIsRg0BQAgAUMhNhFMYxayAk7pm92nN26c9I5Z7ACFpXModLHCE6VeGOWLEINubNo6Vggi+rKcS4gh1DDvbufJGcRmaNXznqULMIaBk0BAAjYU2hDD4phlEZO2DLtXOe4mzQGWYSScuRQ6IKCud9xp0UbOd6sJYtQUquaiEzKZ+tnOKYgh1CSyyH6ZzbVyCCHLMISBk0BAJig0O4LryNKon31o/TV47QVlJKjbfl3XZ/dujP7RlTo7mzkF7OP3Wux9fUgi1BKibZV8ljAqdh9uHd/k0MoZW/bInPamtajMY/bM3hKFmEOg6YAAExQOAFAn7ZcvQyMJnQMzL15FfOGFvabvik7t795HTACP3c4FsqbZg/nAoxk2ubJnDZCr0FMXQTs9X7rDQAAAACAGpbuoJs+ToSBVIxl6U2o0JtSvFFVFq8HcMCxUBf7G6PjGGhv7jVg/6MW7jQFAADD4bMrkIJ205e5OyhCjynVGadNYSvaDHKjTSEF7Qa50aaQgnaD3GhTEOFOUwAA3n2GKcbx4uWrd8Uwrz3W0Fb6ounqcbIIsWgnKIUcwha0FZRCFmEL2gpKIYsgwqApAGBgFEJjc687g+ZYQvtAaWQR1tA2UJqfQ/73gI8sQmnURIhB+0BpZBEYNAUADIniBw7tAEtoH6iFtoY5tA3UQlvDEtoHaqGtYQntA7XQ1sbFZ5oCAIZE8QMAAAAAAAAAcBg0BQAAAAAAAAAAADA0Bk0BAAAm3Gd6YSy87tCGNjkmXndoQnscE687tKFNjonXHdrQJsfAoCkAAMDEi5evKIYHw+ccQyOyaDxkEbQhh8ZDDkEjsmg8ZBE0IovGwKApAKB7FDRIQTE8Djrk0IwsGsO9u5+QRVDL5RBZ1D9yCJpRE42BmgjakUX9Y9AUANAtim3sRTHcPzICFpBFfXM5RBZBM9dGyaJ+URPBAnKob9REsIIs6tv7rTcAADDv6vXXaX/43eO8G6LQ2f1ni7/X2Om/ev4g/0KXXuvvHpdZp1H79sXNbNtR3Ed5j/8xcijt9V3LIY2KZQJZFGX/fjCQRZkzyOk/i9JfW7LoB+RQNLIoHVk0jyz6AVkUbYj+WYEsIofmkUMesigKNRFCGDQFAMXObn+6+W+unj+oWijWXp9b5xptA6YiIueP3ojI8RVpc19PzT3u8ulygebWGbu82G1bW69WIxwbW3NjrdNtIYdarNNqJ9PPhD05sDUTWuSfVv0fG/mfY0oOHbaFmkirUCZMpWRRzDpTlk1NtE+bY4MsqsliFu3JhCn6Z+n6PzbyPkcrOdRinRZzSIT+mQb9Hxs2LyhoSeWg6dW337TeBAAwTWOxmGubejnR+4O6c18v/c2e9W3ZhunX1qcfqd0ONR6LtWh97lq3qzZ3bKfkgP91SibUzj9tcrZBsmidxueucZtaij32c2VRy/zThJqoLo3Pn/7ZQWom5Frv3M/Iom3IonVan7vW7aqN/lk79M900TA2qHLQFACww0ePt99p5p2sS3Z6z+4/G7owyN2pPRSpy1fylehIx6y3V1vacMqxNF321mUc7hpV8MbVzhwS0ZtF1nOsVSa0yD/N9rajmllkNodEuq6JyKJTl09vytn95Tf3qImO1WpHQ9dEIl1nkWWHzHiW9WNd6J/VR/8sEv0zteif6UD/TJ+rb7+Rs1t3mqxb3aCpP5K8aVT57dvkKQoAoGdbT/prj89RKOforPg0fn5pSO4OeUyBm3vf9HA1s0j+NlhqGTWOx1o0PvfNnQ3DnXGnVSa0yD8LWmSRxmOxpi3PP+axe59/q/NRayWy6PxR/XWSRelGziKNz33ELPKnpsyB/tk+9M/q0/jc6Z/tR/9sH2qiMq5efy1y48b2v/thfLD24Km6QVO3AzbvEAZMAWDW3OemOJdPb8r5ozfv/l96nDZWBkx9e7c55e9z7CeL+1qjtWPM/d7i8bhm5OeuTatMaJF/ONVzXRAjJovWnrt7LPZpkUXURHqMXBeMnsPa0D8bG1kU1vtz14b+2dh6rwvObn8qsmHgs+VdpiIKB019LXcMAPRmuYi5+W4qjbXHaWKtOMu9rbFTrrj/9+wv/2+tT7vSWtyxOP36mOWrOOeff//PXYNWmdAi/7Csx7ogVo7nThbtUyKLYqbnzb1Osmi/keuCkXNYg7XMSEH/zCb6Z+PmsAb0z+BQF+ihetAUAEZ3mHd+Xer05H5x66Z3sDIQaWU7fW6b9xTD/t9tnXIldb3Tv6FTVIbbr/5UK+5nKW0lNj9yLicli0I5hHJaZUKL/EOaaRbtySGRPBlSOodEbNdEFpW4m2LtCn1qInta1URk0Rj8zKB/hpCW/bMcObS0nCX0z+qif4Y1GvtnvWPQFACUOj8/j3rc5eXlrvW8ePnq6ApbK4WO9TcOUgrTFm+Y8CZNXaHPnthzTMbmSI5l7MkiqzmENFbyb2TTLKqRQ2sZkiPP1pBFbbTKhL13dKCs80dvTl6b1llE/6xvVuoTcqsu+mcH5FDfrOTfyDT2z3rGoCkAKBYqQPwrinIUrhS/9Uxfz60FZvjvt025snedsetFmhLHY44cKZ1F5FA9ezNhfhl1s4gcKiv3MZkrQ8iifpSoT2Kn5825XrKoLI1ZRP+sH6HMoH+GKfpnKI3+GWJorIl6xqApABixd/qFEK4Kqyt0JV7s1Xlzf1t7nbHrxXalj0f/dduzrtxZRA7VtScTlv6+5HpT14k0tbIoRw7tXY6PLKqrRH2yZXreretc+nuUYSmL6J/ZNJcZ9M/g0D9DDfTPsMZCTdQbBk0BQLmWJ68Sb0ru3Y4R5Z72hOnodKh1bOdaj4Ysos2WEZsJTEHXn5rnea0DFJbW37sW9Ynm/BtJzWPLehZp6Z+Njv5Zn+if2Vj3CDTXJ2RVWdb6Z716r/UGAADWtTyBtT559l6QxTy3Es+/1Xpx0OJNYU3LSV336BdQlNQiE8ghHaxlUcsBU9pjeWTRuGqe5y1nUet1j4D+2Zjon6Wtm/5ZOdRE47KYRb1h0BQAFNPwBl3LIljD869haR+X3P+t1gt7HUwNx6KGbehdi0xYW66l48SqGvu4h+PXWm5bpi2LeN3rqJETOdahIc9ok+XRPxuPtfO8lixqvQ29oyYaE/2z9pieFwAwq/WUvKOcwLVNx6RpW3pWax/38Fr28BwsmMuikpmwlH9kUXnW9m/r7W29/tG1yiKUx36Px76qQ1smaNqWntE/i9fDc7BAW/8M5bHfdeBOUwCASqMVCqErW0sXqi3WCUC3aS7UyASyCICvVSaQRQB89M8AaED/DKiPO00BQLFeC5Kr5w9ab0ITa6+nf0VfTEF6+P3NbOuMFbNe7UZtg6nIon6U+wyufFmUK/8sGKUN9pohOYzSBqZyZ4KIyOXTm3J2f/5xW9shWdQf659lWtIobcC3lhki9M9qGrEN7kEW9YP+mS6jtMHYdnf1+uvCW6ITg6YAoFjOeey1fPbA2f1nyX9rvXiJLzTjCpiY13TLOnOuV7M9bTCH2vsvx/rIon60yoQW+add6zZYcx/mWpe25ezVug20lDsTRETOH73Jts7Y9WppS3u0rs2tZRE10THL/bO1zHDon5XX+nxI/0xH+2ndDlqhf6ZH6zaosSY6Pz8P3nl8eXlZYrPUYNAUAJTKeQK6fKrjaq+5TvX5ozdqtlGDFtOeuAKo1ytWfa3f3KnZ1mNz5Oz2p7uXEUPLcd66DVjQKhNGmfapdRvUmEO5lrOUZ++WpSCLWrcBK1pkETVRPdayiJpoXPTPymrdDjVmEf0zTNE/K6t1G9SYQ04PA+JbMWgKAIrFvPF3MlXCd4+LnuxzL3vrgGnrQmaP3IVmjilXSq23d1ra4cl2fPf46NukDJmIWcbJcgrnkIie18AardM/lVjnCDQcB2s5JFIvi2rXRCI6XgOLSmRR7ul5Y5BFeo6BHDWRiM0sav0atF5/qpjpebeif9aOlnZI/wxb0T9r7KPTvsseV6/zLq/UNqRkUeiO014xaAoAvfnocXQR3Zq7Yi13Z1Wr2Cv0YovXXFOubFln7Ho1aj3VSg2HolbB8zSUQ6NplQkt8k8jcqgyskitElmUY3rereski/Qii7AmdnpeEfpnpZBFFZFDatE/a2uE4yLX55JafY1TvNd6AwAAYxplio+tXBHS6rMMRiqCAIS1yoQW+QdAL2oiABqQRQBao38G1MWdpgCg1Pn5+WJhYn3A0fr2p1h7zv5Aspv2Yulvcky5kjJ4bXbalYEtZcn5+Xny34qMeSxbpnX6pxL5B332vOFCFvUldyaI5J+elyzq054c6r1/NpqY6Xnpn6EU+mdw6J+hFQbD53GnKQAo9uLlq5OihALYrqWCJFSArn1eQOyUKznXGbte6BPKjtg82fO30CXm+PZf21yZ0CL/oNOeuoYs6keJ+iRmet6135NFY9hbE9E/60PKlN70z5AT/TOI0D9DW9Q1YQyaAoBy08KDQqQ/2qYqHunD3UcyfU23vM6hx9FG+jOXRSUzYSn/yKI+7alraA9ja5VF6M/euob+Wf+0ZQI1UZ/on2GNtv4Z+rRW14zYHpieFwAUcycq/wRFIWzX0sDA1r+5/l36lCsl1wu93GubkiV7/hY6tMqElPxb/ztyyKq9dY2fReSRTSWyaM/0vNREY0qpa+if9WMpM+ifoSb6Z2Oz1D8jh/oTU9eMmC/caQoAQCWpV4POPUbz30KnEa8QxDFNeUIOIQU51ocSWZQ6PS9ZBHJlTHOZobmPRRb1h/yBpjwhh7BkpLxi0BQAFJteNUgRMqbcU68w3cq49mYJGdSn2ExoMTUc09H1aU8WTf+W81k/WtQnmvMP5aVkEf0ziNA/Qz45+mfkUH801yfURH3ZUteM9LozaAoAyk1PYHSm7Jr7LIqSf5t7nVv+HrqEpm5KaQtkkW17MmHP37fIP+i0p65hCrp+lKhPLp9un4auRv5Bn711Df2zPsxlBv0z1JKrf7b1b6EL/TO0Rl1zikFTAFAsdNUgbxTatfe1TPn73OtMWQZ02PNa0g76keOcoiGLaH927XktyaJ+lKhPUqbnJYvGtLcmoh30IZQZ9M9QE/0ziNA/Q1vUNWHvt94AAEDY5eVl601AQSlTMLlpUGpe9dVincjn6vXXUY87u/3p7O/IIuRmJf+QT2wWLSGL+tUqE8iUsZBDWGOlPqEmso3+GTSykn/IJ0dd1DMGTQFAsaVCGfb4U16kFpZ+YXpYRvxUdKnrnRbDMetFe7H5sVYsk0N9aZUJLfIPOpBFCMnxBts0iy6f3pSz+/PLpSYa15b8IIvG4WcG/TPUQE2EEPpnqG1rFo34ObZMzwsAQCW5i4wtU67svQLQL5JGK5aAnrTKhBb5B0CvElkUOz0vNREAkfXMSEH/DMBW9M+g3YivLXeaAoBiTJfQp713V6ReebgX067YkDs3yKE+tcqEFvmH+krkBlnUpxZZRE00DrIIseifoST6Z4hB/wwl5ciNke44ZdAUABSLmTLh6vXXR48LnQhrf87A1fMHcv7oDcXTRM7PfLhezvqUKzlf/9j1jqb2Mba0PpcH02yYk2v6J399c8vUtJ9G1SoTWuTfaFq097l1TuuSWlmksSZqtU7tSmRRzPS81ETltTjXH177Zye/21oTuccusZpF9M9Oucygf9afFu2d/lkcaqJT9M/6panfkaN/NsqAqQjT8wJA99wJ8+r5g2rrPH/0Ri6f3qy6TgtyFkyxV3jlLtJGurIs1tXzB1X3S+315VI7i1pknwWtMqFF/o2kRS5YzKIWuUAWhZXIopjpeamJympRE10+vVlkmtWS6J/pcP7oDf2zDrk2Tv9sHf0zHeif9Yn+mW3caQoAgzi7/0yunj8IXoWdkyu8zu4fiuEa67TE7R9XxMx9PRX7uLl1xi4vZdtGVrt993A81cqiVuuzIPXY35sJLfJvBC3at/VjqkUukEWnppkwVSKLWuXfCFrURCLybp0W716if6ZDbH0Sm1ex61xaBlmUZpoLtdZp/Xiif9Ye/bO+0D+zj0FTAOjY9M2D0sXp3Po4eR9MC0v/56GvQ39/+n36lCsx2zD9mmlXrk3bde5pdWLWJ6L/TUK3fRqyiBw6bacpORBeVlwWxS479Pen35NDLXKhdvbl0iIXyKJ5c5kQelzM1/fubp+et1b+jaBFTSQiZNGO9ZFF8u4u5dRMCKF/1k6LXLBeE2nIotFzSIT+WW/on/WB6XkBoFNzJ0hXnNbiTtxMwZJ//v/YKVdy4yrC+av4Sl1l2WOHslQWack+rVplQov8652mK5i1X2HeIhfIomUl2kvM9Ly5aW73tbSoiUTq3kmWi5ZcoH924AZMc7ZT+mdtLOVC7f6Z9ppoCf2zNuif9aPX/tmIg68MmgJAp5ZOaqWK07l10jG/lqNw2XrFWK5iiSvVDtYK4dz7qPb6cqudRS2yz5pWmdAi/3rVIhcsZ5GmmqjkOq1pkUXURHm1qIlE5gdMtb8mmrKI/tk1+me2xVxIQf/sGP0zfeif2ddz/2zEAXEGTQGgQzEntNzF6do66Zi3tbcYphA+iLly8N7dT7IVlbFXKmotYmtnUYvss4pMsKtFLljOophMrl0TlVinVS2yiPzLo3YuxN5hmrMOy6lFTUT/TDeyaL8WuWC5JhKhf6YZmWDXKP2zkdoXg6YAMLBcxWlscUbH/GBvoZH693vWO1JxNCe2KM21r6xPybul09ZiWrrRc0ikTSa0yr9ebMmFXFesW88ikbh20yIXyKIDa1k0eg6J1M+FLVPyWn99cuYC/bN49M/saZEL1msi+mf6WauJcvy9dSP1z7ReDFICg6YA0KGtRcve4nTL+ix3MnJKLTZyTJ1Se5092FqU1u44aOyotNimrVlEx7xNJrTKvxHtPQ63HiPWsyhXLmjcD5pRE9nSKhc012Ex6J/pRxbZozkXesih2uukf3ZA/6xvOfpnmrOvFwyaAkBnzs/PNz0+x9XFWwsliuG0K8xaTLfCFC9pV/Ht7Ty0WGdutXMh5fmTRW1YyT9taufCljs4fFvrkNK0ZxE51C4Tcl3tP5LUXNibRdZrIvpnNlipT6iJ6J+l0l4T5Vgn0ljJP21a9M9SLnTS1j+zQMWg6dXrb+Tq9TetNwMAhrWnY55aKI1YDE/3U8pncG39+9zrTFmGZalF6Z43Yq1P+7QH02OWtzcTUpfRIv96onkqTM3Oz89N1Cij5ZBImfrk8unNzX9DFsVrkQt76jDrbxDSPysvlBn0z/Sjf1YX/bPy6J/Z1KJ/1msOubFBTeODTQdNpztD284BgBquXn8d/Jfq8vIy6e9SO+Z7CqPRiuFQJy2245b6t7nXueXvrdtblKYcG3vWuedYzJ1De7YnNRfIojh7MmHP37fIv17UzoW9AyOpdYiInppIpH4WjZRDImXqk/NHb4qtM8ffW7Y3F2rXRCJ9ZBH9s7LmMoP+mV70z+if9Yj+mT0t+metaiKRcgPiobFALWOD77feABGRs9t33n2tZccAQC1zV0GnntT2XFXtCtMtJ+S9U3K4dfZ6xVQOuac9cVfZjnYl4BY52uTWfbx3nXs6KZpySCQtF8iidLGZwBR09dXOohx3ku05/kfPopFzSKRNfaI5/7TIkQu1ayKRfrKI/plO9M/qo392MEpNlLrOXmiuT0bPqhb9s5Y1kUj5AXGNY4MqBk217AwA0KD15yv5HXOR9av2c64zdn2XT2+aLJznplJaKpiWfnf4+fap6GqsV6OY48pN05WrfdVcZw9T0fm25kKLdVrsLLbKhJT8W1+evRy6ev4g+jwnUi+L/CkKLZ5fS6qdCynZRxYdHOrD+X1BTXRtS30ikicXWtRhObU8zuiflTGXGfTP6ompi+if6UH/rAxL/bNRc0ikXf9M07k19/vVZ7fvqJ15VsWgqdtB7msAGNXRCei7x3HTkXz3+GialhxFuV+YXj69KeeP3sx+TlSuYnmE6VfmCszUgYPYKVdSlrv0N5anXXHteUnOonTtuClRCL/Lgw0Z4pwUwbHLcI/9Yd253hxwueC/bhqyKKYdabXW0Q39PkcmpOTfWoe9d7WyqMSA6dH0cQlZFPpdq5pI5DSLNOSQdSXqk5jpeVPfmFxaZu9y5cLSZ876x1XTmuiHx/pc27h39xM1/TOHLNpnaT/RP6uH/llAjprIPbZw/2wt23Oucwn9s9Nlpq6Xmmhe7f5ZkRwSSc6i3K+xPx6obeBUxaDp9HNNGTgFMKqjE9BHj+Xs9qeRf5n/yqPpZ+jUuLopZh29FmLLV+v1s04Nlp7f0h0qKeuZW55rx7mPqxcvX23IjYND8XwevmpwUw6JlMyiUvtsaZ3z7F1BG2uu41x7nTXW29Lac7OcRSk5JHKdRUGNayKR0zfsSmcRNVH8z62vtyUNNVGpvkauLHLH2YuXr0Q+ulTRP9NVE5FF1tepgYYson8WT2cW0T8rvc4a622J/tmpxf5ZRtoGTEVE3mu9AQAAjGKtCJt2iNbegIgpWHOvM3a9sGXPNKmwJeY19nMgVya0yD8AepWoT5budolZZ8p6yaJx9DowOLK1zBChf4Z2ck+DCb3onwH6MGgKAEAlMUWme0zMAFbslCux64xF560/rr3x2vavxGucO4ty5R8AvXJngkjc9LxbkEVA32I/H5H+GVrggtZx0D8D9FExPS/T8QLAshbFBwV6G26/19z//rp43dupfZxPX/fpwOncZ0zWRHtso1UmtMg/HNNYb5BF46ImGpeFY1xjXqIMsmhMrY/x0OA5NdG46J+Nq3UWue9LbofGsUEVg6bTeYs17igAaK1mkcIVYmXA5bmQAAAgAElEQVTEvoaxV5UeHrN/Kjq3ztjHx6wXaWod53NT7cRM+9NqG5FHq0xokX9Io63eIIv6VCKLLp/eXPy8KWoiWywc49ryEtusZYaP/tmYWh7joWOemqhP9M+wpnW9UfrY1zg2qGLQ9Oz2HZUf+AoANa1duUOBal/uKXZi32zOXWDRFsuxsG8tbCPmtcqEFvmHNFb2rZXtRFiJLIqZnpeayI6W+1brHV7IK2Z63q3on/XFyn61sp0Io3+GNVr2bak7Tt0gqabxwaafaeqPGp/dvvPuHwCMhs8ShNPisyXdOmmHYNodiLTLBD5bF4Cvxee5URNBpM1dFtCL/hmA1uifQYPc7WA6WKppbLDpnaZuh2i8BRcAaoo58bSejgH7rb2G/puD/mdMLi9v35QrKW9IMu1KOS2nVortDDH9k20lXr/cWZQr/5DGSr1BFtmWOxNE8k3P6z+eLGpH2zEe2h4reYmwmOl56Z+NrfUxTv9sDPTPsKZ1FpXijwn6X2sYG2w+PS9T8wJAHApU++KKzPnvQ8urvc7Y9SJNq33rd4LWtoHX37aYN+L83+fKhBb5hzRW9q2V7URYifokx/S8ZJEe2vYtd5/2J2Z6XvpnY9M2TfgcXn/b6J9hTe/7VuP4YPNBU//2W207BwA06fXKIhzMFawlp6ZrsU4sa3WV8JZpd7iSuW+h4790JpBFulipN8iifrXKBLJIFwvHuJW8RBr6Z2h5jNM/g0P/DL3XG1evv1E3Nth00HR6q62GW28BQCsKVPvmCp3UwjPHlCtzf7O0TUy7Uo6mO02X2ivsWsqEueM+Ryak5N/SesmhcrQd42RRn0rUJ3um5y1ZiyGNhWPcwjZi3lJm0D+DiL47TamJ+mSpf7a+PHKohNbH+JY737fQPDb4XusNAABgFHNFxpYpUWKWF/uYkuuFLe419V9bXuc+tcqElPxb+j3tcxy81n0qkUUx0/PmXiftE7BrKTPon6E1pgQfh6X+GTk0phFf2+bT8wIADtau3Ol9OoZRxVzFV2IKlFbrxTILUytZ2EZs1yITyCGdrNQbZFGfyCI4LY/x2Du8rOQltqF/BsfKMU5N1CdqIjhasqjUHacaMWgKAArEnHhGOTH1LLXQmZt6JXXKlb1FLtOulNP6OCeL+rcnE3JnUYw960QaK8e4le1EWIn6JGV63hr5hzQtj/HYO7zIIdvWMmMJ/bMxWDnGrWwnwuifYY2WY1zLdtTA9LwAoMBIJ56RTV/nLZ3j0GBWypQre9cZu17YM9JVgyPbkwkierKItgrYVqI+2TM9b+p6yaJxcFdNf0KZQf8MmpA7Y6B/BujDnaYAYISW6RiQR8rVxHNX9JXUYp0jazW1kv86rx3/TP+Evazk36is1BtkUT9aZQKZopu2Y3xuGt9ayKLyrNQn1ET1tDzGt1zQqi0vYY+V/BsV9UZ9DJoCgBGcuPqyZyqU2uulCK6n1XEeO2DqHot+tMiEVvmHOFaOcSvbiXXURAixcIxb2EbEI4sw1XqacPpnY6J/himO8foYNAUAI7iyqB+t7ozYs16uIKxD052mc9vClcz9aJEJ3Bmmn7Z6gyzqn7UsIofqsHCMa8tLpKN/hhBtd5pSE/XPWk2U4++xrnW9MeJHOTFoCgBGjHaCQl57C1mmXqmj5Z2m0/XPbQtZ1AcyAXO0HeNkUd9aZBH5Z4OFY9zCNkIvski/1neaxvxs6eewhUzAnNbHeOv1t/Be6w0AABxQ2Nh27+4nRwNP/vdTVqdwCi3j6tuvT547gLamWXT17dcnjymVCSX+JubvySFAH61ZRE2ENaHXl76aXdMsCum1f0YOATporYlyrHetf0YO9WOkWog7TQFAgZipDlpPx4BT/jSm/uvz4uWrd0Xw2a1Pj36e68q/6+XcXHxc7qsNQ+u9/LvLd89zyzSvONV6aiVNWUQOxfOPNf9497PIqZEJIaXz7/LvLkXkkLnk0D5W6g2ySJ+5LPLrBKdEFl0+vSln9+eXVyP/XO6SRfu1PMZjf2YlL0ezlEUi1/0zlxm9989at13LrBzj1ET6tK6JtPXP3GPcerGNliwaKQMYNAUABWJOPCOdnDSbGyjd8rfT5YS+ngq94bal3UwfO7femK9jB9X8/UOBHKflcR77ORVkkQ5LF23E/F3ojfxSmTB9TI38I4fSWTnGrWznCFyepGTR9Gvf1iw6f/Qmap01848sSqftGA+9Xtq2cWQpddH5ozeb6pO1WsVfRsy21uqfLbVdcmhZ62Oc/pk9e2qiUfpn0/VhHcd4fQyaAoARWq4sSnX1/MHR92f3n2VfRyl7Bkp9l0/dVXf+FX9zX0/NP+7q9enULiIi8t1jb52xy0vZtnXTAtlacTxtvyJl2nCrq4RDd8PMsXwlc63XsbQ9x9BxJuT6+iAui/Lm3xbWc0ikzrnUSr3RUxZZzqHUYymcCVMJWfTRZXhRJzVR3vzbgiyKo+0Yb323HlkUFhqgiLUvE6Zs9c96zCGR/G245TEeO2DqHlsD/bN5ewYBR+yf9TSA2lNNJMIArcOgKQAYYfXE5QqI6dX/V88fqC+GsxZvHz2Ws9ufrj8uSf39eCi+09abe/qZ0q6ePwjeveLads523Oo4jx0wdY+1Zi6H3O+0Z5GzO5OK5pBI7SwaKYdEwlnUUw5tZWU7fZZrIp9/7CQdQ9RE71jLoqU2LDJeFlnYxpAesygJWSQi9nJIpF7/rOUxTv9skCyif2b6Ig76Z/1i0BQAUMRaoXD+SHcxbK1YsyY0nYtGrggObaP7DCTN7ThW6E5Tza/LFkuvoYj+LBKxf/WtVtOppDTv37l27D6/UXsb3kPz67LF0mtkIYdEbBwrFk3fFNe6f9dqIvcY7e14ZNb7ZyL5ZgDCsR5qIpE++2fTn/Wgt/5ZL6+LBpYu4hipf7blzvdeMGgKAEZYmo5hrQgWOTwfrcWwlSLt/2fv/l30OtKE718advQYhjHMA4ZNZrBvFEjIgYSyDidYUDDIgeE1+AZFEy8TDgjcBsGE+wc4EtyGecHBCAdiYd8NNlAmWoFFN6y4JZ5JdjH7gxkMfrSB3qBV3dWnz4+qOvXjqqrvB4xb989zn1NV56q6TtWpnfYrCkuU41JLK43d+2Tpnk2pxQjKXY5LDW2RtrrRGnugUOO+dmmLNncfV9cOiay7p3tLbdHTZy9kc/eFynZIhLYohxZiIpE626IalgkXoX8morNutKaFtihmOS5Zx8fqfA8xkYjutoiYKL0aEqe99c96S5iKkDQFADWWrtzp8SRVQo7gbPK+EhO22+3kc7vdbnI5l/3x0ex7zftdpVw2pobAeMrpNq+7v5lRQz2vYRtboK0tcmlLptqIpTLj0w6JpGuLam6HRE6XN4vRMa+ljteynT5iHcOYUteJmDGRyPSgEjFRfUrWcdcZXi22Q1ppaovWxEQ1tUWop47Xsp21o382LXZbVEMs5LJtrfXPeppxStIUABRwOfGUvrLIleuV6CJxk00x5AzKfIJKe7uGf7uYmkV1cOem83b4DmqG0BgYu25LrGC49FXCmtqiGDMqXI8HbdGysfbDpy2ae69Pe5i6LdI66zTnObWWeIO2KI8c+zlGTGT+vSRGW0RMNC/WzIqSddz1sVrayxb6Z5raorUxkUgd/bPaY6IYMxVrqePERHnQPxuXqi3S2gb5aK1/1kvCVISkKQCosGZ5utppmVVRQyBmL6Hqu63D5Ve1/lYtg4RmcMlVrGBY26yKMbRFaWko/3OGSzivaYs0/85a26IY5biWOl7LdtZKe7ywJq5Z247loqUdKkVbHe9ppikxkbtY/TPNv1NLW+QbE8VQuo733j/TopaYyPzdWlukpQ0yfM+PPfXPWkLSFADQtVruSREym2L4WvtKPc1Bl7aguAf2PtdcNnqgudyvbUvWtGMl0BahZ5rL/Zq2qMaYSETvQGZPNJeTVmkv87H7Z5p/r+ZtaxX9Mj00l/9e+md2fdB8PNAOkqYAUAktyzG0RHvnNKbafmevyYpSSyv5JExrWf6pNjV2An0Gc2o9nhraotzfXUu8QVuURuny7qqGbcQ6NdTxWtrLGmlvi2Icj+Hv036MtR+ToRgrAZWs4/TPdKix3LfaP+v5QgLijfxImgJAJWo6ce0eXpPNXbeT+u5hmftU1Bb8rlXj7y29vT7lOJaS9bzVzpWrUm2RUbq8h/ApCzV3cms6NjHKcS3HqYbt3D+5V3oTmlVjXLNGyd8aWo57WIquhm00auifGTXU7xhxzfB3ao+VNFxIlrt/Vvp49N4/E1l/LlmjdHkP0Xr/TEM75Kun/llLSJoCQCW4sqhvw4DWJ8A1rw19f0m1BcRr1XCVcA3bWJtayvnatmRNO1ZaLccohtLxBrMqyqjldgUi69qimmMiEdqiFKaOvUu5KN1etqimMh6zf1bbb65le9eqpY6Xbi9bVEs577F/1ls7JKKrLaqhjMRA0hQAlFg68dR0Utrcfex0ReD+yT3ZPnhZ5Grm2gKsseV6Qt/r+/6SSgbEruVYJN5sohqOSw3baPgcP3O8c6upw7emLam5HRIp2xblLselj0trsypKnEta13NbVIpvOa69LRrrl421/zWVne2Dl879M2KiZWvbkjV9u9J66p/Vclxq2U4R+mex9RoTlT4+PcVEtl4SpiIkTQFAhZ5OPBpoCIL3x0dZvme322X5npR6vJKwFNqivDSU6xxtUQvtkAhtEdpWdPnXiO3Q5sbtyedaaItoh/KoeSC5VhrKNf0zd6WPFZBS6fJN/8yNhvNGb3qKhUiaAoACmpahE4lzIly6CvTic/lmmmoJrLbbbZTPWQp2c31PaqUGCV2uZo55FWzJpZVaWhLTPmauxy83DW1RrPZBZL6NyPU9rfJph2KoJd6ooS0ycp9LfJVuj2K2ERq+J7UaYqIYtNXxse2ppb0UOd3Wzd0XHv2z/tA/86N5tmmsc2rpOk7/LL+WYqLW+2faZ73XGBOJ9JUYnUPSFAAqUeuJS9tSc6WTFLaQZb7s96wZ5EnxPakVnQUzU45jduhK7Wu7w7G0DVrKg6tSSYhaTNWr2G1Eru9pVc5yXMt+rmU7bbnOJT5KDw4atEV+Sh2zpbaohZhoSkuzT4mLptE/c1d65nuOtkjbMuFTNJQHH1r7Z8REab4nJQ2J0xxK7+cekTQFgEqEBAGhwcPaE7K5ompz9/HoNtiP5QyWtQTBNpf7JdX0PanlPIbDcixyuYMQuxz7/rZYddw1YSqSry2K0Q6JnHZmtg9eish4B4+26BRtkZsSHfPc59Ra4o1S7aUvl3OJ/dqctLVFU7Nsav2e1ErERCIye061X79WDfFGLe2liN7+2fC7NSAm0it3/6xkHW+1f+ZyLqF/doq2yI22/lmKclxTvNEKkqYAUInQE1fuE54Jfu3AYHP34ol69/CamCV5zet7liu4qy34LW374OWgHF+8YjlFOQ6pr7HqeOormbW1RU+fvXj33PkxPD2m/cnVydQ4GBEiZ8e8xDm1ljpesr304XYuERG5ljUm0lofiYnc5W6LhoN+dltkl2Pz+rXn1Braohq2UUR3/4y2SN9v95E7WZG7f1a6jrfYP5s7l9A/O0f/zE/O3xAyzrBWLXW8JSRNAQDRmXvmmBP0MDAeXlWY40SuMRgkEPaX+3fYVzFPlWOzXQSk+jx99kK2D87/PdcW5Tx+rdTHnuU8hj7lWKT+znGL7anvuSTHvby0tUPERGFy/ha7HItcLMstxkSt/A5DY//M/j4taIv80T+Dj7lziQj9M4TJ3ab21j+z9dK2kjQFACWWTjxLAcDYUjT2lXlTSzFNfVYM5ruGVzIDa5QIiEXylGPfej6s48PXzH1Orm0UOW+Lcm2jzf4eDW2RtkEyBgfDlGqHRNKX49Lxhmvdr6G9tGmLiVqrk72iLUoTb4z1y8Y+p3R7GUJTW0Q71I5W+2eudfN8ZtnlOm6/ZulzUm0n/bN52toi+mf+SizRW0tMdLp9ceKNXhKmIiRNAUAFlxOPy4nJfo25ssn83zzXywmuBiz7hCGfej5Vx10/Z0zstsi+2nv74GWUbQQ0KNExz2VNHd89vJYt3ijdXtZMY9klJgpDW5Qm3nC9oGPNNtrP9dgOaUVbBJvv8ril4g36Z0Db7aqW/llPbQRJUwBQIPWJZ/cw732ytNE6mJQr4GgtsNF4LFvQ01WDJWksv7RFYTQey9x6jy9qpbHs0g6F03g8W7R2Pw/bS9pPnWWXtiiMxmOZW4r6TP8sD43ll7YojNaxP9SHpCkANGgYsPfeIddot9s19T25aQ2Gc9yHLgV7pkprHSdNtJVb2qF1tB3PEog36qSt7MZsIzY3bhf/nty0Hc9WrY2PaC8v0lhuiYvW0XhMRfL1z2JfCEG/LA9t5ZZ2CLH1Hm+EImkKABUICeLsAFtTEIh8A22aBvSwbE09X1vHXROmJbcR8dEWrdPispi1xButt0UpB3e1lVnaofVoi07lruO1tJdwQ1uEId86au5pSP8Ma9AWrdNimSbeKIOkKQA06umzF9XOeouNIKE9HNNTu4fXROS8k75GqiuZY25j7Si37eGY1hNv0Badosy2ieNaRx2vpb3MgTLbHo7pKfpndaHctqe1C8lCEG+sR9IUABqyf3Jv9rF8y9L4vydVwE7A1K7Ux9a3LJvOZ2oa6vkSDduo7fjRFrVJWztk3pN6ECxlHY+5HF2tbVHK40db1CZtbVELMVGstqjWdkgkbUKFtqg9OY5pj21RLBq2Udvxox1CiB77Z7Zelg4naQoASoydePbHR34f8vpw9mnvz7M+0+e9u4fz23HJh4eyP3Z7z3a79doe8/pSgvZ5JfbHRyJXFGyDI9+yI68P/TtqjmXZe1sG2zUndpnTso2ajl9Iu0hblMbZ7yrYFnnt28rPqWcStkNTnXAVbZH1ecnaosTHj7YoDWKiEQnPqcP3Tgktb2P9MjOwrqG9DKn7ms4l2+22aKKi1XZIpGxbZOqN170Sfet/wDn19PPpn6loi5SdS4iJ0ijdP3v67AX9sxExylsvCVMRkSsfXb/1NscX7U+ey+b6rWSv996e46PJ9bvnngOAmPbHR2edxqkTj32forHO+/C53W5HG2Yp1abvT04Dks3120W3IxXze4a/s8Q24JxpU2w+ga39Wpd2aQrt0GUa2qLW6oz9e2iL9BjGNi7xi2s7RUy0Tsl2aHP99vn/G6szdkxk/84S24Bzc/0s37Zn+D7f52iLLtIQE5XcjlTon+lk989c4pg5vu0ZMdG8EuW1l5hIpFz/zFy80dJ+NebGe0Lbh9D2KPU+Lp1L/Em0T4pof/K89CYAQFZzJ6O5Dn1IZ783pa8eRDoc22UlEqYYR3ltF8d2nGv8Yv8/1mdiGvunTbRD00onTFn68TLKa7s4tvOW4hjDtBt2+xES/3DOn0d5bdPTZy+aPrbDuCK0f+TbHuWkITeobnlee6d47aC3b5u8ggAARJaTqgAwxjdhav5PmwMgBteLwnySF7RP4UouiWlmG7Sul99ZM9NODAcEl2ZZhLY9tEsAbK6zSWO1QdCHWAFrxGwfQtujEKfLx/ut2WznBlOuSDtG3UzTzfVbF3aC+ffifyRMAVRueDXh8KrCpecwzuueKhFtrt8WybIAfmFvyyz9JFLu2NZorO2wn5tblmXufVPP4TLaosRoi1Rail+mZpoSE6VRsh3qoi16a/3WzGiH5i3FMXOzUefe5/MczhETJUZMpFru2AjTSpTXbmIiEdqiRFL0nVzao7U2N2675/ne5QaH/89JXdLUVmKHAEAJc/f2cn0OAKaMzapI+RwAiFxuJ8auiE7xHADYcsU/xEYAluSOjQC0JXe/qnR7Uio/eOWj67eyXNtQ+uatlz5/5kbLw2TE2r+HYn1uye9r8Te1/n0t/qZWvm/qCqjtdtv01VE5lVqNYH/cx7Ir7F/ADXUlLfYvsKzkCk091BXaIcANdSUt9i/ghrqSFvu3bSmPb+lcIklTz+cAIKaDO9OzROeeAwAAAAAAAAC079X/81w++n9P82VmzNj8336uBaVziaqX5wUAAAAAAAAAAACA1EiaAkBBczNJmWUKAAAAAAAAAEAeJE0BoKC5G2qXvtk2AAAAAAAAAAC9IGkKAAAAAAAAAAAAoGskTQGgIJbnBQAAAAAAAACgPJKmAFAQy/MCAAAAAAAAAFAeSVMAAAAAAAAAAAAAXSNpCgAFsTwvAAAAAAAAAADlkTQFgIJYnhcAAAAAAAAAgPJImgIAAAAAAAAAAADoGklTACiI5XkBAAAAAAAAACiPpCkAFMTyvAAAAAAAAAAAlEfSFAAAAAAAAAAAAEDXSJoCAAAAAAAAAAAA6BpJUwAAAAAAAAAAAABd+5vSGwAAOLU/OTr7e3P9dsEtAQAAAAAAAACgL8w0BQBFSJYCAAAAAAAAAJAfSVMAKOjpsxdBzwEAAAAAAAAAgHhImgJAQQd3bgY9BwAAAAAAAAAA4iFpCgAAAAAAAAAAAKBrJE0BoCCW5wUAAAAAAAAAoDySpgBQEMvzAgAAAAAAAABQHklTAAAAAAAAAAAAAF0jaQoABbE8LwAAAAAAAAAA5ZE0BYCCWJ4XAAAAAAAAAIDy/qb0BuyPn1/49+bGrUJbAgAAAAAAAAAAACAlrbnBojNNhztl6jEAaBXL8wIAAAAAAAAAeqE5Nxh9pmlIdti8RstOAYBcDu7cnEyOzj0HAAAAAAAAAECt7PzhUn5w7PkUs1OjzjT1zQ7byVISpgAAAIB++5PpuH1/8vzs+bnXAQAAAACAPg1zgyEJ07nH11C3PC8A9ITleQEAtRgmRO2k6Ni/7f8DAAAAAACInOcGtdzH1BY1aTr2AzX+aADQ4uDOzaDnAAAoYXP91tn/N9dvkRQFAAAAAABBXJOnU89XsTzvcCOZTQoAAADUbThzdDizdIpJsgIAAAAAAIzRlEdMtjyvS4Z3c+MWM1EBdM0swbs/OZp8DgCA0kh+AgAAAACAGNbmBu17osb2N7E/0Gykz8baO0dTRhkAUju4c3MyOTr3HAAAJbkmUfcnz0m4AgAAAACAS0JzgynziFGTpmNL885li0mQAgAAAPoNl+LlXqYAAAAAACBESG5wLMG6uXFL9hJ3fCJq0tQkSe0fPJc4Na9lpimAXs3NJGWWKQBAk+GMUTtxaj9nHmeGKQAAAAAAGArJDY49vz9+LnIl7rYlvaep65rE9pK+3OMUQE8O7twMeg4AgJzGEqCb67fO/ht7HAAAAAAAYEpobjBlHjF60tT+kT6Z4ZB7oQIAAAAAAAAAAACow9rcoL08b2xRl+cV8d9I83qSpQAAAAAAAAAAAED7hrf7dHl9aklmmrrMMh2+nmV5AQAAAAAAAAAAgHbZkyl9coM+ucdQ0Weaipxnh5emyA4fJ3EKAAAAAAAAAAAAtMvOB7rmBoe5RxERuRJ3u5IkTUVIgAIAAAAAAAAAAABYb2xm6l7izjyNujzv5satyxvMvUoR0f7k+aX/xl4z9rfLY/b/x14HAAAAAAAAAACAfIb5x1S5x6gzTUmQopRhgtP135vrty49RrIUAAAAAAAAAACgvJy5x6gzTYESXJKcJjk6/P/S+0mgAgAAAAAAAAAAlJHzdqBRZ5pyH1OkNJfA3Fy/5ZT8nPr/3OcCKT199iLoOQAAAAAAAAAAepAr/8hMU1RjKoHpktice+/Y7FMgl4M7N4OeAwAAAAAAAAAA8USdaQrUYixBylK8AAAAAAAAAAAAfSJpimoMk5pmSd6lZOfY864J0v3Jc2agIimW5wUAAAAAAAAAoDyW50U1zFK6dhJzbGnduddMfcbY48PPBVIYLsG7PzmafA4AAAAAAAAAAKTBTFNUaSlxOvWaqeddHgdy2Fy/XXoTAAAAAAAAAADoDjNNAaAglucFAAAAAAAAAKA8kqYAUNDcErwszwsAAAAAAAAAQB4kTQEAAAAAAAAAAAB0jaQpABTE8rwAENf+5Cjr+wAAAAAAANAGkqYAUBDL8wJAPPuTI9lcv+3dfh7cuSmb67dJnAIAAAAAAHSMpCkAAACqZxKm+5MjefrshXfi1H4/AAAAAAAA+kPSFAAKYnleAFjPTnhurt8WEXFOnB7cuSlPn7248H4SpwAAAAAAAP0haQoABbE8LwCsM5YwdWUSpgaJUwAAAAAAgH6RNAUAAECVlhKmSzP2x54ncQoAAAAAANAnkqYAUBDL8wJAGNcZplOz9g/u3Jx8jsQpYllaNeLgzs1kZazkd9dgf3LEPsIZ1+XcAQAAALSNpCkAFMTyvADgb82SvLa5i1OGiVMSJ/C1PzlyurduiuR8ye+uganbu693sxdW7L7edbuPeuJSX8xy7pQFAAAAoG0kTQEAAFAN34TpVGLUZTa/nSwhcQIfdjldWlUi9qzmkt9dg2EbMtdGMOu8fdQXAAAAADaSpgBQEMvzAoC70BmmY7OHXGfzb67fJnECL2PldFje7H/HLF+u320e661sT7UhuY4PdJmqL/bx77m+AAAAAD0iaQoABbE8LwC4ibUkr8j5Mos+GCzHErOM81g5XVr6c2358v1uu/z3UrbXtCG97KNeLNWXobn6QnkAAAAA2kLSFAAAAKqtTZgOB8FDZ/KTOMEUu2wuldOppH1o+XL5bpM4jf3dtVhqQ+zEcq/7qBcx68vwbwAAAAD1+5vSG6DRdrtlhlcHalj6lHLYh/3xkcgV6+93ttvthX8j3ObGullpoXo5fuxfJHVFViVMDXvwO2SmqXEpcfI2eJOClapzLVvVnjiW0aXZpiIB5StS/Qj67lqwjy6poQ1Jco6PXBZEpInyMIcYD6WVbK96KIfUcfSOOpAW+zeBw8DnEqihTxGKpOmI3W7X9EFHXcnIGpK7CLc/PpLtdivy+bsHthef3263l96TQsvtXulgyezX/fFRU/vY/B4t+68zD7EAACAASURBVLcHZ+1FRqXbhphL8hprEqbGhcTJlXjbZswd691uF/W7cG5un0/VgxRl1LV8Ff3uzO1RaFvks49MUnupfYhR/0vuv9LnbR8xzz8p6ovI5fKw/bz+2J0Yb70SMduU0rHcGqXLoIic1YVa9+EY6nheWtqDmtuCVDTUgVbbF/N3SS3tV0NLeyLS/riEyuV59yfPS28CAGQ1N0CX+zkA9Wi5DTCzdmINcJvfHOu32zOLci3NWMNxa4XLvg4toy6fvVS+YtcPn+8e0hqnaNpHPlpu10tJWRZELpaH3deXB5A4pgAAg3YfQEwtjidryA2qm2lq7xSvHfT2bZNXEADow9zs59zPtabUVVj7k3fLLl8v8vX5XBHZS5pByCVarrArZW6pz9DnNEkxi9P87qiJ0wQzTafUcNxaMdzXk1dKX5Fkx9+UL3l72s7G+G7Xsr/43XLxvo9TYj4XdLV6yeMTIEW7fumYJzhvx5jBb5wloSPGUKFttc9vmptpWm28fuW8bOeO83qP8XCqaD9OpP2+HHU8uxb6aC0pUQ67aV9EGCvKJOeY8Zp26vTWdFf83mPlBjfXbwV9byh1SVOzA/Ynz/12BglTABUjQAbgq9pBWB9vReRG6Y1YkHEbufo8rblz8eTFmZ6DHb7HcHP99nT5Kvjd++Oj7G1J0AWyJY/PjKkEMBfKnTqbuRmTZ1sd1N6+FXl6o62YPsmxABztdjvZbrdF4p9eyn4vv1OL1s7XCEO9w1qlxpDXfOfmxm0Rj1xfyYSpiNLleQ0NU3EBIIeSAXLrg/Ctr7PfM44tfD199qLqNo/BlLTYv35qrks94Tjllaodib3EvHbEeDB6KfO9oY5DA8ohatTTpJsSyVJDddK05I4BgF70cLLt4Tf2qKclV0pocZCKtgBzWizzKQ3rE/tPJ9q9+pnBsZ4GyYjxYPRS5ntDHXdDbJUW5bBNB3duNp0QL3FeLNkWlcoPqlueFwBwKugk//pw/vkPp5+fvFfY60PZPnjpvj1L2zBlZtts2+1Wdg+vOb++tKB7sFXi9J4EZb47JBD2KjsZyrGIfz3f7Xar6vnS9owNzA7L8NQSmS2X9SU9//aWMDDrx24n7LaD+uAmxWDO3ODf2XEpdN4OUWNZin1cNzduXzgv50qclozxLmyDKxMbKeofhJaFqXq8pmxpqUuh8W9JWvZdbLXV8RrLji1ku037b1sVZ70+lP2Te9PPB/YhvcZmUvaxfcetpHzStOn2RaSaNsa7fSk85jm5nQnGiUTG26IekDSd8KrRhgunDiq6mmiuLH7U6L18qX/nQu7fNRcIr/k81/fun9yTzd3H3t/h+vnmZB10b7MCzHa2GBBvbtyWvZT5XU+fvfAuAz5lZ//knmwfvPS6om7/5J7I60On8r+mHM/W8buPRcSz/lll02yXHRTb27hUjrXXyxRXSKb4zS22Fwi3P3k+eYWteW7uNanY7cSw7dDeFpRWot04i0cKnbdD2DHU8FyksYzF3ib73sFj5+eUSsZ4Iv5xnm9/Rava46wlNZ4jNjduNxmX1VbHayw7a0zdO37tfpjqR4b0IX23J6R/fXDnpuweXnP+fNdt0aLl9kWkbMyZsn3RPOYZfTx4oi3qAUnTCa0mo/BORRW+x7LY1W9+FyDFvHrcPnmHnMzX2j54meU9Psy+RTs0HtPtg5enVwQmNqzjw8dC9LTkX820lXnEsz95LiIXlx8yjw3/5hYmmFOiPadtQkwaY7yciMku671MtIhjWobpM8bqQ7aAsghfGsc8jdLjwS0haQoACiwlTH07zruH12T74KVsH7w8uzrP9yTdUuBoJ6U1iH01Ya7lUmu6arNGofVc5PzKXR92fWBwrg4cpzbZCdOx5Once+y/Xd8bCwP7+owdk9Sxz3DpWPiZq0NLywbGjPNai/FqapuG9cZl22v6fSJt9Svpx60X43xRWx1wFbJfSvYhER9tDIYYDy6DpCkAKBB74HF4Qsx1VZNm2k76se6fsXTfhVzfk5u241mCXa/X1nGSH3Wg3KeVux7YiU/733bydI69LG/p5Xmhw9xSftBreBGT+ffSsSt9L7ZUYp3rpu67HPpYrM+Jda7JtY2x9sna36pJrrrXah2PSWvdDvm+ud8XU8w+ZAtabl/mxnByfQ/yYzw4DpKmAKCASyDsEsyZzxleSWT+7RoQtjjApnEGxNj2LO37kNmBub4nF43HMhafeh7zM7QdY4zjOKWVe/+6JkeHhjNLmWmKOSnPl/b5mNmm64zdI9g2NcA+tb9rjfMoQ5iirWzkqnut1XG484mzSvUhW0H7kvZ7ctJ2LGNZUz8ZDw5D0hQAKrHmxGUSqD2f/LQO5uVaRi/3cn0IE6OOhnxGiSUdAW1KJwGHy/OOJVSHCVFmmmIJx0k/e+bR8DHz+NyMpKkkK4C0ctW9luq4xv64Vj6ztUv1IZEWY0UwStfx0v3kEkiaTngVeW1v6HJQ0TInlEWEMlcT7R5eE5HySzKMDQjlpjX4y7VdWn+/r5K/Y2l2x+bu42zbErOOs6QjUK7MDxOkw2Sp/bzvEr4A6mfapqUlHFvQyu9AfFrLBv04P638jlxSxKZ23zHkXoexuayekJrGcpnrAgMuZIhDQzk2hnU8hh7HhkiaTviIGxi3raLKTllsnEdS3OfEu7l7fi+kkCTO2hPiwZ2bMyfni4/nDNK1BYQEwv5y/5b9k3szz56X5Vjl2Leel6rjANazZ4kaw1mj+5Pnl/5t/z/37FLoNnUPtRTGzsdaV/XQzuy3kHtAtrS/W/otSENTGaEfF6a136NFrrGiWLPdGCtCCjmPYe5yrGU8uKcZpyRNAUCBpWW3RMID1NwnNBM4mJPzWOBiP2aSUubEnhKDeXXLfex2D69dKMcil5fOi12OQ+prjDreU/BbM9qutpiE5zDxaf977jmXx9GXsVgyRds+dz4m1gpjJ07tf/eCMrNOT2UF9aKe+0u9PG/JsaK5pemHfewcNMUvXJThL+dvWRrznCrHa8aKtNTxnuINkqYAoIDLleUhAUBo4LD2RGiCh/Mgd+wKrNOE1Obu426DYZZz8pP7d1wuxyKXy3Lccuz7G2PV8Z6C35pxnKBJb0mdGuS6P/XSZ7YSd6yxVDem7l/q+v6xz6lZK7/DRYp2s5f2mH5c3Vr6LTn41OtcY0WxxolExJqlx1gR1is/VpS2HNc0HtwKkqYAoIBLQKzlyiJX+yf3FpeCcHlNClqC4VzHpoWgp9Txyl2OmWmKOaXbrNZRD/ywr/TJcX9q1/OxhjirtKkk9lRie3g/rJSzi7TpqbzMHtvXh9NvnHuuI/Tj6qThmNXGZ8n2GsaKTOLI/v+cUmNFWtDGuOthrKiGOt4akqYAoEDPJ7JSv710p2232zX1PT3LfQVsCj23QTXhOKXF/vVDkrkOMeMdn0EpLYmNMXP3BF56bnjf4Tk+SeylFSDGbuURM8bb3Lgd7bN8aS0nubnEkr0nEbTIVfeo431rNc7S3o6VLquME9VBeznGeiRNAaASOYO3tcH5/sk9p5udl042lezA+XRc547HUrC73W5nn3f9/fvjI6fXpVDyykGXciwisn3w0lpiKFyu3+kz8wXoRauDU6mwr+qw9jjZ92XyPS/YdUrbOWWY/DTJUmMueWqed72X8NhMUtvcfd3M42Mzjojx6uQTX07ZPbwm2wdxP7MmpS/KiNWPW9JCHRfR1/7Xwmemaak+ZAif/nWpsaLS5ybXNmbpeMyNFcVqX0T6bGNyl+PS48E99pNJmgJAJWo7QdE5imsYpPje48QlSaZR6Q6Lz4ya8ftY+Cl1THIs6QhoN1fmSw8GACXEOAcPE4GlzunDpKj9+FLy037v8G/XxOkapm1yHcQixqvLwZ2bXhfe9ZYgnVI6cepjTT2tuY6LUM/Xcj3OtZQHkfz96xA9tS8iYbcH0KLUceplnEjL95dA0hQA0C07SNQeEC8t2+bzXt/3l6T9uABon30l9tSMr96fgw4xVw1IERtpGoScm2U69zp7hurc+2xL9cXsl5D6RYxXD3NcUiQ87c+s5fjHUEsZWlNPa67jQAyllkDVFLPMWdtGrBlnKq2G49OanvqBJE0BQAGXgcjSyzH48BkMiLWsaQ+mlm3zfX8tQU7pILjEVfyalueFPnQKy5s7V9f+HAnT+sUaOAtZitfVMBbJ1a6NJTlN8nMpeTo209QlYeoz+8NOnM69bu67RIjxNDPH9HRp3ZcXHt/cfeG8fJ+5vYn9GfZn9tZO525L1lhTT2ut47GOy/Dikla4XlSzpKbleWtSS+JUJKyNGGs/aznGtRwXkThjnlrGg2spHzGQNAUABeaW3Rq+BvHVEmz1pKYgOKZS9Zz2pQ4cp/KWLm6q+bnQJCx0GzuXbj/fyoFcPKYpE6VL22Vvg9k2OUnzvVMzRe17mI7dz3T4vMuyvK5J7N5mkvUa4xmbu4+jXKBq198Yn1mrnstSb+aOda3lfzK2en3oFXfV+vtr0HIbU2ts32McUeNxqh1JUwCohJYri1qmPfhae1xqOa7aj0NKzDTFnF7rRS7DBFLpmZ8uz00JeS40CQvdhsdtc/22yLPzf2toV+xtMH9vrt+O+h1jM0SHCdL9yfPJ+5ea17jy2a9js0NiLNOrUc8xXgyllqmsQQ1la009ra2O5z4WLcYpPhesMdM0LdoXPWo4FikwHpwfSdMJr46PSm8CEjqw7k2lHWVx3kc34g6oLCl5PFo9ce0eXlMzAKB5+ZVhh8mnY+izPFxpWva/Wfpsc9dtW2LtS2aaYg7HKS2XZTE1PRcbq120ScM5VYOxWaPDx4ePDe9hmtKwjk3FbS7xIDGeG20x1+buY9kfH4nIxFjFh4cioqPPpFFN/bipx2K/Nzct+1/jvpkyXGrbxkxTPVptX8Zeq7V9EdHTxpyPFbmdk2OMeWo9Ji0jaTohdyIGmVXU2FAWdYl+PBpMip/fZ2d5oE7jiV9rQLw0mObzXt/351DqquQlrmVBU/I/xFRnC+jJ8J6CYzQ9B7igDF02lQAdPm7+PfV4LPYFG8PHzONTM46I8cKVGhhO8b25f4ed6NFU3mrpx009Fvu9OWna75qTPksO7tw8u/ehz0zTWvgkm7T9bntVCC1lXaSP9sXQtN9dad6fPlpri1yQNAWASrS4HIPWRFOODvc+U8J8t9tl+Z41tHU8DNfZpjHrS6mllWrrMAEp5GqXW7GtaOUWoGbmfDw8L9cQ49VgbqZXLUoOZmobSK2tH7eZuSi7ljqutS+nqVwOmW1bant8ZgvmkHOfMlaUVi3ti4jONsb1AoBY5bj0eLDm9jQVkqYAUInaTlJLwaT23zO8v1TMIGWucxxTru8JlWLfppAzSNdeL4CWTbWZ++Mj9e1pbiSYdWLVgDrZs9x9ElCa2yU7xtNeBjd3HxN/edK+z+jH5aMxmWHsHl5Te0GEaeuH2/j02QvZ3H0h+yf3vD5Pc30cs1Q3tf8e+1wdu/zTxpzTulKFLdeYp5Y6oe1CqZRImgKAAnPLbtmvyWXtSdBcdSUisn1w+thwyTGtVw4OaV2GpWY1BL/G3HLTpp7ELMulkrM9Bb81q6HOACiHK8PrNVwevNbzsvYYr8Z9qsXSjFyN+3bY/9RaLmtUw8Wv2pP7Isvb6HPv2xxi7E97ht6wXqboX6dC+5JWDft0aayoxnEiEW4dY5A0BQAFppbdGntNLUxwcH6V5LXR52uxehmW14feV4w6+/Bw8juTCfzsGoLfofOLAK5NPh9LqXpeW/vSK44TNKk1qdOb2s65PQpKdqeMKxuO8ZbarRaW6sW4VX25Ev24FF4frv6+GpKlrdRjnzirtnjMvsh+rI/d1VhRyvZFJP9Y0crP1X7x1dDcWFEL40Q9I2kKAEiqtoB3ztqlnkznbbici8usgqnX7R5em15ScqbD6LINc9u2ezieQBxT0xJtU1oqx2NY0rEOHBNoQue9Dhwn/YbxpXls6dgNl3QMjetixHj276hZDTPTcjP9iVgz4kpas6Rmqj7V02fztwaIlUw5m90XsCRnbX25murx5HZ+eCgHd15WUa9Ctda/XjNWlPJ87jJWFHt8ype96l4NbcxQa2UZp0iaAkAltCzHgMtLsQwf8/2Mqb/n3uNr7L0u2zD82/dq11o611qUWlqJ5XrrwDGBJrQTdeAcXAfX8/LcRU4hcd3w8323VXP5srdzbFUf38difU6sdjPXNppB9bXfp8XaflzuPpXI+gH50MRrbTO+auSalHL5nBw01mlt1rQxuc/nY9899/fce0IM9w9tzTTGg/MjaQoAleDEpdNUULz9fCu7r3eXXhvzOJ5+9/yVfCkGtYffu/18K/KMRGkMper52JWiHEMAc7THJfuT5xf+vbl+a/T5qcen3lcb7ccJ44OqY7NOL89QSx/jiZzGeQdSR6LUGG5jSFxjEk0aZ5DkOAbmnoM+aosf5/px8uzya2PXt9P73bntr9DEp8sxHOvL1XYsW1mS1zZ1oczUa6HP2EoScvLu3ycXX5fjfD72mtTjU1Pty/nr4aJ0He/xYlmSphm8Oj4qvQkYONhuS2+CszXl56OApVdyoE6E4coi/exjtPt6d6nDHWvZEd8OVKyO79L3EvSup2GmqebZAbZhYsNmJzmmEiPmuc31W2f/B1C/qbZhrL6P1X/7sf3Jc9oHFDd1Xs4R4x3cuSm7r3eyua6zX5mSWc40JHlYu9DfXGOyzRjtx1lJjRT1bfvA732+x8Ql0WrXcdfZZZq4Lh9dK2aatmHp+OQcs0nxvVPfaSYS1Nq+aFJ6PLjHuk/SNAOtiauuVVTZWyw/Lf6mYB4J5B5PUjXbXL996QrlktYGw1Pv1fY7a0c9d2cSGmOPi1xOnNjJU/s58zeJEaBtYxdTDOv/WNtgP6/d3NKt0Msct9AYIHWM12PC1PBJnO4zXBgc4zuW7mnZY5J4aK7sp6pvJbRQx1tNlvpiH9Sjl/ZF5PT31Ny+aKKljvc045SkKQAoMHefIrQj1r0aLn7O8pIrY3+Hfqfr96IuNbY9S7PJRC7PGHP5TM2JEU2dYKA2LvXbbiuGf9eAK8PrFbL0LjFeHj6J06WE5JKlpGjqzydhOi1FffNZnhfjWlyW11ZjHw3+Sp3PS4xPoW49tUckTQFAAZflMEsvx4D17Cv/Qq8CHH6Gz+tDv3fsM5CGhuV5WzKcTTb8uzatHqcatXIs1g7MtLIfRKZnp5u/a0mcDrV6sUWOWX05bLfb4GQ3MV4+PSzV2/JviyFFfWs52ZeSnShteaapT5zF8rx1K3U+LzE+hTCMB+dH0hQAKsGJqy0hS6+UWG5F2xIvrStVz3ta0tF11qlGrR6TmtV6TGK0NVrjktA6Plzau5X7HWs9Tmttt9vSmwCFUpZ3O3Fac7JrbB+dzniMlzBttd1Zgz5VHCa530MZ8703JbBGLeNTvaKO50fSFAAqwZVF9RseQ99jOv5+9+V5Y3yn6/cijJaZpjXMIJtaRnPsNcPnx95bQ2JE+zHpzdr7DpUS63YAWtuJpYTp0n2PzWtqvbhiqLbyiXl2vVsb401/Rr0x3u7h9LbHWAbVJE5Hv+f1oeyf3Fv3Ba8PZ5+L8flz+ygGl8+vcUnaFH0qluf1YxKmtV+44IqZpv0odT4vMT6FMIwH50fSFAAqwYmrfmOD664D7lPvzf2drt+LMBpmmtaSCFpactdOgk69toZEKXSrpb4YMbdV67lg6l6krknQ1toFrccppbmB5tDnNBhu35oYb+79Ncq5rOzUd8VY3nYpKRrj81Pvq1aX+E3Rp+oh8ReLSZQy03T6tahXqfN5ifEphCm9b7XHyCmQNAUAQLnYA/K1DfIjveEg7PAxjVwTGy6vay1JgrxqaVNr2MZYxur08LGlek+7UK+581focxq4bJ9re9RTewCkUsv5vwXbBy+jLyNdA+3nJaSj+XxOu9efHtsikqYAUAmWY6jf1FK3c0Hn3HMhS67k+l6EYWklAEConu5PbaSYVVrTc3PvIcYD4klR31ie1w8zc6fRh6xbqfN5ifEphNEyHtzTjNPiSdP98cVlkjY3uKIXQH/swGTqBNTLiallUwFm6FXKoUuurH0PZTEdDcvzQq/Wkx810z7bRPO2IZ6xdrz1tj3FrFJNSdGl7fQdaCXGA8Kk6FORBMQSluftQ6nzeYnxKYTRsm9TbMcwNyiiIz9YNGlqdorZEfvj57I/fq5ixwBATi7LYWq5sghpzF+t1853Yl6pq4Sp83XgOJWzPzkSEZHN9duTr9GaOE21TVxsUQdt5TGW3W5XehOy2G63we+dGghFOkv3JJ3juuzomu9AGvSpyhkbR/F9LNbnrP2+IZ84i5mmbStxPqdd06XV8WA7Ybq5cWs0gVpK8ZmmIuMZZQDARQSo9fO9H8XSQPea5XlDv9P1exFG00xTOkT6cEz005Y4TbktxCV1aPU4bW5MX8AQw/746MJ3DP+dw/74aPZ5l7pttwHEeHmEzB7cPfTb5zm+Axel6FOxPG84LXFWSksrkQ1fi3qVOp+XGJ9CmB7quLb8YNGk6VgGmVmmAIBWuQSZdufIJYiN+Z2uegjYejOWMOU468MxSWsqQbHdbmUn7rPatCROYy6rNbd0F3QrXQ4Rx9itPFK0M9TpOHyWUQzd5z73m+O4rpeiT8XyvJhDnNWPUufzEuNTgE1zblDF8rzDx7TsHADQpNXlGHCROc45j7f9XQyullVqaSW7U64l4QPkNDeDLOScWLoerflu18F2YoU6cJzqN5Yw9Xnv2N/Ix2fAOcZ32d+JvFLXN5ZmrnQffHh4/vfrw+nX2V4ferX7LM/bvlLn8xLjU7is9Hhwqos4NOcGVSzPK3LxvqYAgMsIUOvnGui4DnTEWHLF/k7X17PsSjql6rnvPXYALCuVOGWwHGjL1HmZGK8euWMqzgHxpahvPsvzut7ztnU1zs7d7c4vznNd6v109ZOtc9tBv61upc7nJcanEKZ0Hc/1/Zrua6omaaplhwAAkErsgewYS66k+l4AQP7EKQnTvnF/6r4Q49Wh1OoxiCtFfXNNAFY5uzIRyjhapHV53hTfibqlXjZcU36weNLUnm6rZfotAOS2ZtkttCXnEl7D7xz+jX7Q9tSBulmnnMsyUkb6NtaO07b3jRgPyCdFfWOGad/oo8EodT4vMT4FvVK1RxpXoC2eNDU7Y3PjFglTAN1aWg6T4KQPdiDKIHt/Sh4HOuN14DhBEwby6sA5vi3UO0An+lSITdv9TNGfEuNTuKyHfW7nB7UonjQ17Eyyhh306vio9CYgoYPttvQmOKMsAv0YBkM5gqMS3wl9WNKxDhyTeqUeaCh171Tox3FqR0jC1G4XOIfUzyzTunt4TUSuXVjeleNbFn0qxMZKZLCVOJ/TriE3TclTFUlTDTti6COHG3OjYhUFHZTFxs0lxV8fut+/5MPDC//cRCo39vfPbUusZYNcfq/rvV9qMzXgXWKQvfUrCJfKWY7ybMrxwZ2bsnt4Ld532m3K68PpF9peH44mTOmg68MxqVuqxGmpNpuLLerAMWlDyK08xtqG1mO8XmwfvHyXOCVm06DXPhXSmqzbPuNEIhfGimKPE5k+rZaxolaVOJ/32K65lLGcY0X7J/fSjBOJeI0V5aItP1g0abq5cUv2x8/P7mWqKZsMAMV9eOgU1O6Pjy68LlaneRgI50pWtpoUnaMt8Gx56ZWl8mUGoHJ8Vwrb7fbsuA3bhin74yN5+uz2WdvR8vEHSotdv0rWVS62qAPHpH6xEqbDzwKQ1qr6ZiXGuK9pnybbfcdxIpGL/cHY8UDucaLc36VFifN5r3GCprEi++KoKN9njROJ+I0ViWyT9fPsfKC2VWiLJk3tnaHpRq8A0DufDlrMJK1rh3Bzt84AbirwnAtIl5+bD6TWfXb492rkEvhv7r6IekVfzu88uHNTdrtd0BXEdj1euscygHViDXJoG9CgzQDSmDovE+Oto60N9RFzIDXU/sk92T54We0+9JWivp2uNjP9/Obu465n19l2D691mzDTxqffWmKsqEalzuclxqc0cj2P5R4riv19a6Rqi4b5QDuJWtpPSm8AAPRut9uN/ldKiStatQQCqY0FGi7Bx9RrNL+3ZiUGKBgUAfqy9mrdmgf7kc7UTAS0iRgvnGlDNcZec31D01/aPnhZtO9k9ltPKwykqG89JgFDmLECDRcL5KRtnEikzLhND2NFmsZ7iCHm5R630TZOlLpfoSVhKqIoaaph2i0AlLC5cXv0vxJImOoUe0CCwfZlvSVOKQ914Di1JbRtpw3HlNDBL7TDtX3oKdk1R9tgpIh/3zD3cWTJ2HOcj9MzYwU9jhnEHifa7Xar2gsSpnlpPp/3HkOsjR18zx2aYpXYx93OB2rLDRZNmm5u3Dr7z/43ACC/0A7wmoCptyB4GBj5BEtj+9k1iI75na7f24I1wWnoIEqpgLjnTk9NOE7t8T2Hahqg1bIdmMdxaot9PNfEeOb9IbFl7Yb7SdNgpK+nz16c/ZfDWH+xl8HzFH2q3mZO+qo5Ybp/cu/sv0vPHR8t/qcNCdO0Sp3PS4xPtaL3Gacxac0NFr2nKQBAB2aY5mEHoSED38P74LkunbImeB27914PAyNGiY56ie/svdMDlOR6j1NNCVORvs4FNeM4tWN4rk7RJrReXqb2Wa2JmZzm+oux7tWtWYo+lc/yvGsGy2ss16UTpq77e+oYmsd3D6+JvD48e9x1pqimxCkJ0/RKnc9LjE+1JHcbRaySF0nTCF4pOpnBzcF2W3oTnFG+4Gu328l2u3UOeEiYlhEaFK8NpkPe3/IAiIsaEqdrO1pjCdPeOj0A/HCxRR04Jm2wByanzs/EeMvmfi+DkdNc+ouUpTTvsYXcA7XG2aylEqZ2onTsew/u3JTdw2tnz9n39p2yfVDnMTDWHoOQCypoOf0+4QAAIABJREFUh8u0L6XGp2pXQ+L04M5N2e12xW4DVyuSphF8RKGrT0UDwZSvxhVOisdKmLoGw73fA2fNVXw28/7Tz5jvhA1niIZ+r/1el+9tjb0ciuaAOJQ9CNvDbAFAm6V6p7FOcrFFHXo4JvuT57K5fnkpL/tx8/fUazWbSpgS4/lx2UckTi9zjX/tOLJFKerbaQLOf2bX0ufaj9WmZMJ0++Dl7HF9+uyFbO6+ONs2s53bB/WUe59+XqmkdY/tb6nzeYnxqRb5tFkx+nQlxqZ67OeRNAWAThEE5xd70NtnyZWYS0r1FiwZ9lXFc+U45nHONWgwXO5v+BiAtPYnz2Ujl9uP/clz2X7+uey+/lp9woc2AyXtT55PPm4nToePxfpeUz+N4XfOJXWH2z587dR5mRgvjRixV479mOM7fPpvrZefFPUtZOZoym0rTXPC1NbDxRUljkHL+3NJqfN5ifGpVpWYcSqSr+70eGxJmgJAg5YCrhQn1rnvJGF6Ua1L7NbcCY9J2xIstQ+QAD27NBNOLid0dl9/ffb88D2Arcclk6eSpSLnicy516TajmE9nUqMjm2bbx0nxnPj+xtDY70cS3HmXO7TZx9QjvJ9xlArA9qlkmchx6TWfZ57rKjE2FStSrUvpZb2bU2JcZvc39n6BVI2kqYA0Kip4JQZpuXEvAL4/HOWl1yJGSi5fm/rpoLTVAnM1InanoLfmtEhLWdzPd3tEuykifn74M7Ns2Qp4GqsHW+5bV9KhqZOloZ+/tjs0uHzLojx3PnuJxN3+cZeOfo7a77Dvmejy2t9v6vlC/lS1LeQ5XnHtLDPSyXOzCzTEBeX663/GIikOw5axqa0KnU+LzE+1boSM9Fzjk213K8Y+knpDQAApJM7KB37PhESpkbMoKXUkisk187Z95IwUg5ajH1frO/kmNaB49SX7eefl96EWS0M0vag5+Nkko/DJGSsmdpLn5MiaRvrvmdTn8155py99F1vQvuMLZehFPUt1vK8tSNxlt/U6mC5x4o47qdKnc9LjE/1IOW4jc939twHiIGZpgDQOBMI5Vzr3nyfCAnToeE9Jqb+HnJ93dR3un5eyLb1zL6qL8fV9am+r8clHQEf+5MjEUk74/T0809noD199mI24aJhiV7OCXVo+TgtzdhMbem7h3V0eM9T320fO1eHxnK9xXihMU3ojNOarf2tLcePWvpU9vtr39891S2NSo4VcdwvKnU+LzE+1YPc40SlvrNlJE0BoHEmgMkVlJrv2z54yUl6YBhY2o+P/T32/sv/Dl9yxWUbhn+z7MpluYPSFN83ljCl4wPkZ9+31Nh+/vmlpXpLJ0xFuNiiFj0fk7H6ZP97bT0KTdqGvMeOwYaDlOYYh8R1Y5/fYoy3Jm7qKXEa4ze2OlCbok/lujyvuRj59F62p/XT9AdqpqFOnScZwu5punt4reoZw6XGikofd21Knc9LjE/1pETykoRpPCRNAUCx/fFRlNflPmFygh7H8rzt0lTH7PbAtQ2ZG4R1/Qzf1wI4T9qMJVHsWacazV1sQVugR8vnbDv5OfW3/TpbjAsPpmaOTn22a5J1OJN8LGEqQoxnS73dduJ0LkGSeinfGJ8/ta9OE3hxEhlLx0PreW1OmuV5/d5jLkpuYcloDQnTnGLHRTH7Z5r6sb1ied52lSjvU985bAt82pEejy9JUwBQbHPDfxlABir1Wxuchrw/RkDMFWt18G039sdHlwZh7f+7fl5Ie1WL/fGRbLfb0puBTpkESqzZcanY7UjL7UEMtClx2HVh6u+xf8f8ft+lskPeMzwvjz1PjGdm4Y2LMRPMJE7nvufsPqjHRyv6cROJpA8Pgz/TvG9u+2MmsFIfi5Kob+tpm2loL2npw2dWXUj/LObnuXwmyivVvpQYn0J+a9qN3hKmIiRNAQDIJnYg6brkivn/mmD28nIxLLsCALFsP/98tH22EytTr0E7XO8dtfTc1HJriG8uWevynjWI8S5LnYiZ+/zZhKcWgYlXH0+fvZhc6rTmQdcU9c11eV7DXp63Zmv3YSpL502zHK/IxbZA2+9AfUqdz0uMT6FuPc04JWkKAEAmJohdG5ya9/suubLme+339hIk9aSn4LdmDMq0yXVwROsgI+KZa4d9nhtbPQDtIcYD8klR31xn3ZqZkGZ53hbqqd2f1RDXmH186vJ9SseSpeaYtHA8UFap83mJ8SnUradjTNIUAJTabrezJ6Tdbnf2N8vg1Se0g1jr0r7Iz16CaW4ZyKW2BnpwnNrj275qSpy2MnDbOg1lBfHM1TtivPKmlr80j69dlju0b8iynPGVrm+tnH81xTXDhOiY4eNzS1Gf+fBQzCx0n/7ZnKXjz1hR3WpaYldL/YWfWHFJy0iaAoBiY1dsmY7F2b1p6ARXww4mQzqIw9fnWHJlbBtZdqUepp0wx3HYwbbL4dhzANIJHWTQMsDYyoBt6zhO7RhbhjnFdxDjhbETE2P9s82N24vxmIup5bjn+oYkTdZL0afyXZ431rZoMxzziP37QmKmmEt9748PL362Y/9sydx7GSuqS6nzeYnxKehhxyUi4+POPftJ6Q0AAMybW3INdVkzQDIWwLouuRLzO12/F/rMlYU15aRHc53J3M+hTmuTnhrq6Nj2U1b14Zi0YWwwc+25OzS2RHy+xy30vQiXok/lujxvL+xlQg/u3LzQT7H/7UPDRWZz1pYrl8egX6nzeYnxKehEbHEZM00BQLGxqy05efUndmdPyywllLF0JeGwfHCF8il7mStgjVjtb+m2fG6ghXZjGW0KXM2tCjH32jnEgeUM+3chfTv6hjqUPg+3bGwGnI9Us1ZTidEe0Ba0RfP5nHavLS7jzhou2M2NpCkAAAW5BJvplmvJ/70oa+qY2gHwcPYpS7rltz8+mtzvJKPq1vJFMHY7QruRH+1Gu6ZWhZhCjFeXHgciW0J900dLXOSqpm1FXiXaF9o0jOkxTiFpCgCKmU6069XlqNNcxy5lp6/U96Ic2pI4Du7clN3XCWeJXRHZi5XkeJvuq5BPqnZVU+IU45K3GSK0G7iAGE+vGP074jldctY3jvmy2tq3tfWZMtG2EudzYoi++MQlPcUeJE0nvEp8Ne5Hnldfp96e3hxst6U3wRnHvl6+9XyKfQKz/412aBvw1rQtiGfYltiP0a7oxqy9+qVuV7WdR3DR7uudbD/fpk+cWmg3+jbVJtBO6BLSv6NvWI/Y9W338Fq0z4IOc/0z1/cuPYa6lTif06/oj2ts0VP7QtJ0QqxkRyzatqd6FVVyjn3fej9J9WQqIE09yJ77O1HOXHtCu+Jvc53zM/rGwJy7zfXbciA3aTewmm9yzeUxTNs/uRf2xteHk0+t7d8NX7v43teHwb9jc/dx0Pt6k6NP1fux2D28JtsHL0tvRnRr2gPGivpR4nzOWFE/aEvGkTQFAKV2ux2zBBqzFGAOr+Zburrv9Ln5K45jf6fr90KXuWNq7oM3dqUyxrFv4CPXldq5rwqnM+2HdgNrDROmLmXKbhOI8eZNJRaHyar9k3uLyZupGYFr24HQ97ts79jvHNsnvSbvUvSpTvc754a1ap0R59I/C3kv6lPqfF5ifAq60JZMI2kKAEAmLkGmvVSqSxAb8ztdMVDeHpZ28lPr4Azyy11WciZOp5aFwzjaDawxtpx+ijLV27nfTgpOJQPNa8zzm7uPZf/k3kLyUNeg8WxyZvBbhr937PVGTwnUFH2qFmdO5sa5FS0odT4vMT4F1IKkKYLQEOZT+74mgC1gxRJMNWm1k17i/hH2AFzLdbaHejG3HNycYRlgAAJYr1Q9ylWHudgCyGPN/cd7ifFCLCc+T5nXuL6+JnZ5WkqWGub5gzs3m9wna1Df0mMZyRUYJ6paqfalh7GBHupF6DiR0WM/j6QpgrXcYGpR+z7urUFV48PDC0u5xA4AQoPQWNthru6uUew6HWPJlVTf27rS9WBqO/bHRyLiv212e819ToH1Sg8urBngCK37tBlAGlPnZWK8cC5L7I5ptZ0zv8snvn367IVsH7SZTB6Tor4tLc9r+g0x+w+uyXE0aDBOJNLeWFGtSp3PS4xP9SCkHmgdJzJajX/mkDQFAKW22220E1OspX+m7s/jam3nrPZg2nUA2zV4jbHkiu93un6vZqXLYc766HKsttttjM3pSg9X3PbmtCM5zreOaCkbIeVUw3YDcEOMV49Y/TptcV1PA+Qp6hvL87prKckbox7HbKsZKyqv1Pm8xPiUZjHamTXlMGddjDne3CqSpgCg2FhwMlxCc81n+VvfKa45mM3B554Rsb9z+Her1pTBGIF0jP27tu6PLcVL0IzeDa++N/bHRyJfu32GtjaUBL8eHIu45i50aOk71+otxvMRsi/O33MtykUpIf26mP3Di5/ZR/Izpaj1bWRW4Fq9zAquQYx6rGmsKFY/MrSf3kO5LnU+LzE+VVILY0Wu53PXNmS320XYpvqQNAWASrR0fxQNy1WUsHTs7EDUJTCNseRKSPDbwsBKj2XQ7swOjzkJU2De5vrywKXWwYRUAx1cbIFSYicStH7nWJI29T3NWojxahDjGM7FdYgvRZ9qaXletC9WPe55rKj2PrqI3uV5U4xP1aDnsaKx4zt7YXHDSJpOeNX4gV/rgKX84Ii6tF5LAXDv3ILM6X+PfV7u73T9Xujh0oaMJT9ocwB3WhOmRorEKecCIK/hudqlTtvPE+NdVKLdjpks1XzOaVGKPhXL87rRHmOFiFWPaQ/aUOp8XmJ8CrrQhkwjaTrhowJXklal4YaQJUvioi4tcEwqlzyBtdhJ0WhqP6fc/yW+E+dy7ueQDg6dnnk9LVMEjOFiC3+0GwgVspz+WFmj/K0TY1ZYjP0f+xiGxnzEiqfoU6XR+mB+rN/FWFH7SpzPadfK0jRW1KuflN4AQJP9k3vy5aMr1U+rRztKByTc6zCuqWMZepxd3hP6uXPHnKBqPbN/tdSt3W43+h/mURcgUv5c7Sr2+XwsYaqlTdOshrICXaYSpnNlaapdIsY7tbn7WHYP8y4hWMu5wtXBnZvvlpft44LzFH2q3GWwJqa+tFRnYivdpmjrz9as1Pm8xPgUluUahy3dhmhH0hQYsbn7mMQp8A5BcDxTs/l8l02d+zzX16T+XszLGZy6fNfmxu3R/7CM+tC32jqbKTvg1AV37Cv4mBqYJsZbx6fPb1aj0pDESXXvO98xkJ4SpiJp6hvL804rXc9Sa+n3tfRbSil1Pi8xPgU37MvySJoC77AsL3CZGRggEC4rxewgjml51C2gbrW2pcwIBdrl2i7RDpzaPni5mCgc7qf9k3vNJLuePntxYR+YxOlc2Ti4c5Oxk3dqjQOAGOjLpqX5fE4MkRbjsDpwT9MJrxzvM9irg+229CYkZzoMdAbWoS6tk/okORXocHJOY2pZlXXvnV/WKfZ3un4v/LFcXp04Nn1jwAAhNLcb+5Pno49vrt8afW5z/dbs++bea7/faxs76l9MLpX/+nBVjDf12t5ivNMZli+CVpmaav+nllzVsIymq9PfMF0OehwjSdGnOp2tq/d8AN1S388y93f2rNT5vMT4FMKkqJPU53kkTSd8xJJ08xobIJpKjpI4XY+6tGBh0CfHYOzYDeWRxvBqQd+rk8fen/s7Xb8XYcaOzdr9zfFKj5kG/eF4c5X5Wq20GyYZOpcYXXp/SOK0hyXk98dHk7/TzAZcE+ONvafXOu3S37cTq4v3ovzwUEQufmasfev9OR8eyu7h4eLL7NmmuCxFn6qVGctrtXI+9BGjPUjdXjMGkE+p83mJ8SmEi10nOV7zSJqie0tJURKnKGXyyvLIOFGWERIImwHq3PfD7LEjW0rs+ujajvQw+JwS9QQ9In5YR2O74Zr0NAnS4f9DPjckYQqU4DMesD++mKSM1a8LjesYyyhPY5uvQY/7JEb/LMdYEXFeX2oZn+pZzDqZa7y5ZiRNAUCpHEkME9zYV07TqU7HDiZDA8vLn+G35ErI945/BsuuxPb02eXl4dbURxKhedFpRG/GZppS/v1oazdcZ4ua1/gmWREXMV49YsRkxHVlpahvvS/Pq+n8l0stbcHYOJGIdF1eUyp1Pi8xPoUww7GiteO2xBTLflJ6A8bQoUIurjNIzWxToGUkS9Mzg8uxltFwXXJl7O/Q71z7OVi2ufuY+lgplitFT8YSppR/f5r2m73Urgv7dcwYzY8YD8gnRX3reXneHhOmtaJvml6p83mJ8Sms00td1JAbVDnTlCtRkYPvkrss04uand53Z/6KL3NhABcItGltx1TbbJiaLdUx+3nqY32oI+gVAyXhtLYbPsvu2n8P30ffPi1iPCAf6lscvf9+TZbGiuib5kP70jfGbc+ZvoS5DUgJ6pKmwZ2rt2+ZWgwnpmEJSX7aM05JnqIWLmU19/K8rZ/gp8QKYi9+zvKSK7ECZ5/v1a5UGVyqXzGX50U5JnlEhxWAKw3txtpkpz3A4arkYEjtiPGAfFLUt96X58W0XBM2NPZNexwrKnU+LzE+VYMSZVDjuG1s++MjkStX/N/nuRJOLOqSpmYHeO8QEqZwECPwMO9n1inUen246iQf8l7fWduhag+gY17157qcX+wrDTUtIxgqV9sdo7x6f8brw9XfifXsOsfVvgBcaGk3TP97rB8+1zefex/SIMYD8klR37YPon2cs9oH3bHCynEiEd1jRTUrdT4vMT6lXS1jRTWOE21u3Bbx6CeYCytLXWCpLmlqo8OFmGInOVmuF5rlLJc+J+vak54xmMDUnlEy9veQ6+umvtP180K2rTY5y2HucwR1TB+WSUKrWjovaEO7AVehsVyLMd72wUs1v2O73ZbehDPb7VbNfqldC30qexJALjnOZ69+9+uzvz/6h39O+l0109w37b0fW+p8XmJ8SqvcZVDruK02LM8LJJJyOV2W60VK++Oj8Pc+ibghTt+X7wRc88n+9B4FIheXLJn6e8j1dVPf6fp5IdvWH9dymL28fngo+2P/qwi5xUFaJEDQohYGRzSj3cCSizFerL8RS2hfbiomC/08TQncmqXqU+Vennesb5Jy9qnLecx8//bBS9k9vCbbBy9FZG6fL/g7ZeMFEWZ42moaJzr9TmXHQ6FS5/MS41M9UDlWFDhOJNLvWBFJUzQtx0zQmMv1MnMVQy2fnHocCExRv087TROf++FhsjJUY+cndP/XVVb9f+OajjfcDa/AradMAePGriqnXMdlJ07rOhchOWK8C9bUjVR1K+T4LMVkWvqGPbZH2ftxidi/w54AYMaiYo5J+ZSTzd3HcnDn5tn/h9vq4tXvfl10lunchArXfWFet9QOa2kLUqB9iafEWFGNMcSa/V9PeQ37jT2PFZE0RZNKzP5cM+vUft/9zz6RR3/8U/TtA7RhABA1oIwiprF7FlLG9JjrFPbcYZwyljBl9ml8pn0ggQrER10KQzvUhuEEgJjJjl7LB5Mg1qN9QS0op20jaYomDIO7UoHK1P0h5rbHBKj3P/tE7n/2yehzQKsIiKEZZRMpTSVC7MeGr0VaLGG4DgnT9Gg3gDjseoMww/YH9RrONI0xDuVbJkxZss9j3vdm/Jd/FykUi+weXhudqRvye4inaF+gH2NF7SNpiuqMXf2mLbE43J6xJKp57MtHV0aTpfbrtP0+ICYSp9CIMomc5soa5TC/sYRUb8/57hfkR7sBhCHGi8fsR/Zp/WLPNO2JSZiO8a0j56/jHpG0L9CKMtkHkqZQ5/5nn8gX999OPl9jAnEpiTr2egJW9ISAA9pQJpHT2JXUlMFy5hKDLT9HwrQu5njQbgB+qCfxsU/bUuLi/akVFHyUu6cpCc6UaF+gDWWyDyRNoc7p/Tw/sf5uz1jwaWabfnH/rTz64/ljm7t/YrYpAACN4kpVnZaShy0+F5qERX60GwAALWKck2pcnnf38DRZylgdALSHpClU+uL+27P7fIq0mzwVkQu/0b6/6ZePLiZQAQBAO7hPjz4uScG552t/LkWCFnHRbgAANIl1EU8tM03tFeHGkqXcYgsA2vCT0hsAjDGBxqM//kke/fFPl+752Yr7n31y9hvnHmO5XvSIAVjkQllDCcNlNVFe721BigQt4qLdAPzQPpXBfu9Dz6sekBQtizYGuVDW+sVMU1TBTpy2MOt07LeMXY1mX6XGFWvojX21KZAKZQwlUO50mrrP5/74qNAWQURkf/JcREQ212+NPjf2+NTr7P+bz7Q/Y/i3/b3D9w63yXVbQtFuAH6oM+XQj2tfr8eXCQ060MYgB8pY30iaQq1hktAkGGtOnoZs+5ePrpAsRbcIhpESZQslUO70mrqXp4jI5sbt3Juj2v74aHKfxEgy24lJ+7FhQtP1vWOfsz95fvbauc8eS6oO32f/eyhGIpV2A/BDnSmPfly9XMafej6uTGjQgTYGKVG2wPK8qE6tS/aOLbtrjAVc9z/75Ow9Ble1oUfcKw0pEASjFModEG4qmWonQOfMJV1dE7FjSdXUaDcAd8R4etCPqwdJQD+MzelAG4MUiCMgwkzTSa9YhmvWwXab5XvmruCqZcle320ce33NV7JRlxADAQtio0yhBDpgwLK5JOTc0rpL71363KXXuGzT2L/Xot3AklgD9zX2NcdQX3Rp7Xi0XN/Mb9O4bTWpefyuRq21MSiPMgURkqaTPmIJrnlKruTRvGSv6zbZwdRwZqnNDrxqCsCoSwtIKgPApKnEw9hSmWP3JrRfa78egF5zScexGZ+uCculxKhrsnbpfTlmngJDa2Y9MWMK8NNafbPHmcZw8c642sbmAADuSJqiCXbyVEPi1Hc7fJO+BGcAgGheH5beglWGiROfmWe5MeCkG0t86TQ2k9PIdSFEypmkS2g34MO3f6gteQPUpIX6NkyY2r/JxESch6YxNgcAbSJpiqaUXrI39LtJlgL+uOIVrigrdQpdZlMzyqJuJEx1WJq5GTqzc6lNmZqtLnIxUbr0fSzPC+RFHakPx6ycYeJ2aoYpxwi1ouzCB+UFU0iaojklluwtkaglgYre2TOCCHIwJlX5ePW7X4uIyEf/8M9RPxcXxU485J4dNnRw56bsvt4FvXdznaXu0Y+5meIu9XhqGd6Qe5+Ofd/wvqr2e8y/Y7U3tBvANPoB9aIfV44ZP7LHksbGlDgu7hib04X2BS4oI1hC0hTqhQYguZbsXfP5Ib/L3h8EZ+idCXC4OgxDU2XCXEm9ffBSdg+vyfbBSxER2T285v8lf6dviS20aT+4//WG+4WjE2NL77ouxzv3uqnn5r7Pfm74ujXbmQrtxmVzM4nt1wwfG74XZTHQ2Qb6cWVoXCIYiM1uX+x/AyKcd+CGpCmal2rJ3pLLAJMsBS4i4MHQXJnY3H0sB3dunv3fPObj1e9+XXSm6dh9h9Z+ljaus7RKzyB19fTZC+eZX/vjo4sJjhsXnwPQB9qN+KbOFy7LPo89RiI1P+L+tnA882IMKY2sY3SvD9N/R4XG9j/tC8ZMlQvG2Ud03N6QNEUXYi7ZWzJZOoYEKgD0aardd71yUvsVlnPJUHumkH0vwqnXmdcCsbRy/1PNbQAQU+h9smu5MAdAu+wLHBn3AQAgPZKm6MraJXtTL/Xrg2QpAIQxyQ476eGbADn4l38XKZQ02T28NnoOCPk9tSR+lu5xuPT33GPAGrUmHWup+0AOc4nRuYt3SKYCyMXE/ilov5CyFtxKCwDaQdIUXfJdslfb7NIhAjLgMjp/ffE53k+fvTh7feh9TkotzzvX1vveG+r8dQH3c81kKfG5lCRd+izAZrcJPq+v7VwzbP+AHpDkrFeN7SzW4ZifSn0LDe73WBe7PGi9vUouXz66IiIiX9x/K18+uiJf3H8rIm63sKF96cvS8R7Wpf2Te5Plq1e9rnZA0hRVSJEUHFuy18wktf9vv1YbrmRr3OvDKMFwr2Wi1sFs+PM9zrXPNAWQRkgSsbZzTU3bCsREwrRONbVZUZIYc/cO66hvWNu5NaVUM0zZv2mkHJcznxnz812SjBqZsdrN3cdy/7NPvPY77Us/XI6zXWZMGRorXzWJ3UbU9vtjIWmK7o0t2WsnTrUjWdq2zd3Hkyf6uQDAPNf7FYgExG3r7eposywvAF1qOdfUsI1AKmam6doZp+b9JGHTq7HN2j54udg/m3tuqe8W2jc0z+8e6l1dZKiWc2utmt6vP3wvX/3Hf4tcfU9ERDZvRP7pb38pf7haeLsScB23nHpdymWfNaN9aV+vx3euPvvkOWrJiaRE0hSYUFPi1CCBClxGQNymNce0puV555ZCoc0HACDMMHk6XMLdJFjN3/ZrWOo3PWJ3iNCPQ4i/yKfygfz2Vx9cfPiHv8inV9+XbzJsQY5EpJkJN/zb5T32GKfZTtfP0MZs9+n//ZZQpX1p15rjOla36qofb0fHiUJ+S0i9aglJU2BCTQlTBs6BeQTC7enhmPZ67wigtJD7fWofeNG8bUAudtLT/v/ca6dex32y06K9gkFZgJ+rIm++l49/+nP57t1M04/f/Ci/eSPy7c8Kb1pEYyvmzZl7XY3jiWO3Wfvivn+imvalTWuO6/BWfTXlBubqse9vWVOvWkHSFFVIeQIfNoZGrnuaxvptdqBTW8ADALjMvm8NgHyGM9FFRPYnRyIisrl+e/J9WhOnGrcJAADMmLu/bYCQ+7bX6T355hciH//wV/nqP78XEZH9zz+Qb3/xvnxXeMu0sccNzTjil4+uFN4qP2tmmgJjap1p+sX9txfqL7mB9UiaoltjCdHhlRf21VvD12rF4HofTKent3s6Aj0i4AXyCplpOnyvlvOypm0BkB59QZ1S993oG5ZRS307jwXquaftOu/Jdz97T35bcGap6b/V1IerNXEK9O6L+2+raWdqQtIU3QlJgKZMnsYcDGe2afumBnHpIPtjILkuHC8Aqe12u9Fo8dIoAAAgAElEQVTHt9ut7GT8uTFaEqch2zAVZ5T+LQCW1dr309BepjLWptoX5qz93b32DTWUmRrqW+vlYNIP38tX//HfIu+W5928Efmnv/2l/OFq4e2qQC1jirGW5x2joX2Bu9jHq5bleWuop7UjaTrh1fFR6U0o6qMb00uP1WxtY+d734CStDSevdelmOzlAocDsmOPYR77qx4cp+k2XUtbjz7tT55fuq+feWx/8vzsMfs1Y+/RYDMT+4bMOi19jlnz3cP39bOkH1CvWma8DbUc40313cb6cDE/f+y51pT+bTXUt1aP/bK/yKfygfz2Vx9cfPiHv8inV9+Xb8pslDpz/UfTv+xV6fYF7no/TowDpUXSFKOWEl0H222mLYkj9gzR2Pc7TTHb1Pzdi2oT/SSViyIg1o/jA+hmkqNjiVHz3Ni/hzQmUtcqdY6h3QT6Umufr9e2iv5HHKX2Yy31rd/ydVXkzffy8U9/Lt+9m2n68Zsf5TdvRL4ttFzvcPls19eXQiKGdroGvR8fU0fnxv+5wH4dkqYTqk3A5JLxJL6mgqe8F2mMJXvtBixV4rQ06tI6wwDb/r99JfHc/zGPgFgvjstFBL3QYizpOXxs6d/GcFZqa3KfY2g3AdSg5bbK7oMN+25Tzw3ft/TZIX3DFtGPw2XvyTe/EPn4h7/KV//5vYiI7H/+gXz7i/flu8xbYvpuYeUz3f1n5/qT9DXP0b7oxXE5ZydPqbtx/aT0BgAp3P/sk7MldFMvo2u+w3xnCC0JTuhjAoGx/w/vUTL1fyxjX+nEcQHqMjdbdPhcizNLpwwHylNhAAFALVpuq54+ezHZd5t6zv7/0mdP/X+ub9j6/gZsH//X9/L3b36U/c8/kH/8XyKbv34vv/nhx+zbYY/z1TDLlKTLZbQvOnFcLtM0eaoVzDRFc0rdbzTG/U5TzDYl6AGAdtC2QwszQ9R1pqjrzFMAAFrGBS5IgXJl/Cjys1/Kb6+KfPxff5a/v/pL+e0vROTNj/KxSPbZpiJ1LM9L/xKoH2NFcZE0RTNSLsXrI+R+p6mW6UVb7CuUh4E3S4cAAHIauz+p/Xfry+76Sn2eJgYAAF2m+m72Mrpr2m36hjA41hdd/58f5burIr/5vyJ7cx/T/3kj8u4ep7n51Mfz16VbnhcAsIzleVG9nEvxuvJZstdOksaeSs/0/PYMl/iL1enGRS3f+0cr9rk72naUtrl+a3F5XTMLde4zzOt6kWqZXmIAAJr1HOON9d0O7tyM1m7TNxzXU5nr/Vhf9p5889M38ukPb+Tbv/2lfPs/38vv/+t7+f1P89/TVETUTYYYm6DBpA0/PbUvGrC//QzHihg7CsdMU6g2d/LWMrN0jr1kr/3vJcw2xRy7M0wnKQ2uzs6LfQ20x06YDhOk5t89zkaNfX6h/QSgGW1U+r4bfcPLeunL9fAbg1x9X765+u7vn30g3/1s9tVJ1JKkYNzRXy/tiwbs5zDkFOIgaYrq1JAsHVpKnuaYbUpj2SYCiHTsK7fZz+kQCK9HO49SlmabDl8z9nqXz2hNrMEW2k8AmtFGXZZ6f7C/z/WQ2Gj5t0X35kf5+Op7RWabakX/MVwP7Utp7F+UxvK8qIq2ZXh92cv2TjFBC1PogfKePnuRbDlFEAivwTkCqNvacwvtJ3qzPz46m0m33W5F5HxmHfShjYIG9ON69KP8/t/+LF9d+u+vcj3TFpCM7APtSzrEEOsxXrQeM00nvDo+Kr0Jqh2866imZAcaNc4unWMnTs1vsmcKDWeerg24Ss5Coi6N++jG7dKbAA8EbGmwXwH0LPQqdQYS0JvNRNxs1wNWB9GF4wAtKIu9eU++/d8fyHdX37v48Jsf5eMyG6QSid04aF/SYL9CA5KmE0hoLEh8NY05gbeWLLW5LNkbg7mypFRARF1Kp5ZA4tXvfn3290f/8M8FtwRI4Ifv5av/+G+Rdx3zzRuRf/rbX8ofri68LwKW5b3I9UpK9hc08U2ckjCNi3ajHSRQ+2T6GTX0MVia9xR9wzDMaHN3KWEqIpJpad4a+mY1bCOA9Zhtug5JU6hlluJtnZ08/fLR5QAmdFC8dLIUcZyf4K4FvPva4DMU+Dv3bdk+eCm7h9dk++CliIjsHp7+Hso09PiLfCofyG9/9cHFh3/4i3x69X35psxGdW2pfVDVHgLvuCZOSZimQbvRni4SqK8Pqy+bZvvtWN/E/948+hgpnW57SL9NnN63rm84/AwFKuobJtlvrw+dXrZ98PJdGxZ+3AEA/TE5hf2Te/Llo9JbUxeSplDHBKNf3H8rX9y/HJi2kjC5HHS/nXytb+KUK8fasbn7eNUMlJjLPK/x6ne/9r6S+ODOzbPfL6LrKikGrv21uc+uirz5Xj7+6c/Prmj++M2P8ps3It/+LM8W5KgXNV3ZPrcvTBtY0+8BarTdbquqZ620G9sMt0+pkYk9motDPjycXLZ4Ld+4Ys2+Hcb6Jv53FdLHiMm+UHnY3wrpwy3te/qGcfqGIWU2xf7aHx+JyPTnbh+8lIM7N2X38Jps7jbUfjWqdL2CDs3FGxmwz9KzV/OEG5KmUMf3au9agpK57b7/2Sfyxf23q38Ls0vbYzqFPoN1dsAR+/64OBV6H7oeNTvDQ0RE3pNvfiHy8Q9/la/+83sREdn//AP59hfvZ1n+KZd6jt30jAP7HFzP70FPls4rNZ1zdrtdsmROfO20G/vjo4r2e37EbmmwT6cTpvb/Xbi8lr5hHDW0B2ZGrfl76piPPT71u8Y+Z+y1rp85tU2xPnOuHzn2eQf/8u/ydGR71vyeubhsjqlfIb/n4M7Ns2M19lr7OP7rv/7r5OvszzSvQ3qmfTF/Yxr7KT3Tn2GmqT+SpqjOMLDXnih03b6ljsvS8z13eloW815n2wcvZf/k3oUOWC4H//LvQfdCHutkaFFDZ7u0PvbPe/Ldz96T32aaWQqgTfuT57KRkVlBJ89l+/nnsvv6a9lcv3X6uuu3ym0oULFmZ50WEmM/jsX6XgnBwD5GDPZSsUPhfbj55VfpG8brG2rvy5nyZWYgn471XC4fPtt/OmN1eczI9TN9vtvnM10SKWPPvfrdr+Wjkcdz/J6p8TjX887wdXPje/ZxnLutmf1956+71v1FEzkQb8wjWZofM039/aT0BgBrbe4+vrBGtxZme8z2xTC2BI39PcCcp89ehN8nCKPsTh0u6yII/uF7+er//Kt89W9/lq/+7c/y//2fP8vv3+TdBNP+azoHAvC3P3k+el7Zff312fP2/wGEIX5br/eBYJO0qHkf0DfU3xbsHl47m3UIxKDplkc9qPkckdLTZy/YNxmQK1iHmaZoxnDQuFTDkOv7S/9O1Onpsxeyufui2FXFLSLY69lf5FP5QH77qw8uPvzDX+TTq+/LN2U2CkACm+uJ7h04SIDuT56LWLNLAaShfZaZdj3vN9fZejWgb6i/LJtZh9sHpbcEU2pMTDDbFGgb9Xs9kqZoTqnkaa7vI7iBj6mykvt+Nq9+92v56B/+2es9ZiDr4tId/V4JDY2uirz5Xj7+6c/lu6vviYjIx29+lN+8Efm20HK9vkvbab66XqP98XPZ3GBpVORB4rQNtBt6kTgtbxjr+x6PkD5GiKV+Uy19dPqG9ert9yK9WtotACiBpCmalSt5aj7/y0dXJu8l4Po5rttIUIMYCJLrZC+n43rsQt7jq89Bx/fkm1+IfPzDX+Wr//xeRET2P/9Avv3F+/Jd5i0x9dlnwNH1/lk4tT9+fvZ/EiD92Z8ciUi6GaeGuW/p02cvZpfh5d6mdTDtBvSqPXYZLrNIXJ9GD/2mHn5jaTn6ZMiLOgNfqcZNQuMBxoraQ7sUB/c0RfPs5GnMtfu5lyhawT0t4ks9ey+k3UnZVvUcBH/8X9/L37/5UfY//0D+8X+JbP76vfzmhx+LbpPrsej1mAGajd23dPv552d/m0QpCdO6kDzVrfZVFzZ3HyeP83rXU3+pp986JWWZZ/wImnCP0/xS3ks5NB5grAi4jJmmaNZwhqmdPF17Qhj7jEd//JPc/+wT79mm5j1f3CdQQV4k/dO5vHRUGvsn90ReHy6/JqG+g+AfRX72S/ntVZGP/+vP8vdXfym//YWIvPlRPhbJOtvUHGcGNoG6mOTn2KxSe9apMTf7FEAYn1Ua9sdHGbbITY4YT4SLrETijiVo1fJv85WjL+fSj1vSdz+svKk6U1tdYpZ5fjluD7AYI7w+ZKyoQcO6TN0OR9IUTfvy0ZWzk4BpKNYGBHPvDU2c0oghN8pceiY4TBkolr4ylCBY5Pr//CjfXRX5zf8V2Zv7mP7PG5F39zjNLcXyvK0lYsN/z3myan/8XLbbz2deC8RjluI1CVPts0y32y3thojsdhfvR5t6n2y326Sf3zqf8+fmRtpluo2SCVpivL7QN7zM7sulEKMfl+tCXbSPxGl+KWecuko5nkQckR91OC6SpmjS/sk96x6jn4jIaULTPC7yNqgxmXqPHWD4JE6ZZQq0r+VAseXf5uY9+eanf5FPfxD59m9/KfLD9/L7H0TkZx/IHwpsTaoAuZ7j7HZv1pDfM7a0Zj37BTXYfv75aJmyE6RTr9Fmt9tlSyqtl67dGNrtvk56P+T98VFF+x3a1dDWlEBioT8uFxiWlONCXVxGO4AYtLcva9AeoXbc0xRNu//ZecJURM4SqfbyOq6WgiLfK3RMwpRgC6m0slwMoNrV9+Wbn70v34nIdz/7QP7wiw/kD1fzbgL3oQHq5jrQqeGKdLjhHqZ1YoAPa5ReAWYJfcO20X5hLe1tGIBpnMvjY6YpurW5+1juf/aJU8PiGjicX3n6p7OE7RQSpgDQqDc/ysdX38t6T1Pktz9+nnTWGPrgOzMkxz2QgJ751C9N9zdFPsw2BfplxgZrrv9zbRjtG1Af6mwaJE3RHHtp3qXEpchyUGAHRcPk6VyQIfJ29jO/uE+jhvw4meqQbcD79WG0j2KQfsyP8vt/+142w4ffvCf/+Ks8SVNTp7kqGKhPaLtK4hRIy6d+2Usi2+fiYbw999yU2aQsMR4ioG/oj/rSN9Pvarnu2H3LVn+jbX/y/MLtMEqL2sZEjBXmxNjmueOg7Rhp4BJXttxO5UDSFM0aLs07d5/RqcSp/dhYgzSVRF1a/pdGC+hbbQPeNW1rXu/Jt//7A/nu6nsXH37zo3xcZoOQwNwym8w2Rai17Wpt55Ge0GbULXadMv3B7YOXlx7T0CekHQnDbKx+cf6FPd7XYhvQ48W4+5PLsdvm+q3Rx+3nU6itjYm5rVPHYek5IAWSpujWMIlqOj5fPjr99zAAsv+e6ugOE6stBlCoV6tBfa1qCYZr2MaSLiVMRUQyLc1LnQbqFKtdreU8AtQmtF7Zs3PmEqObuy8WX5MD7UffiCPD2fcY11qHaqrf2wcvz/anfe923/u4H/zLv4tkvPf79sHLauvR3MSRLx9dOfu3y+p9JZntO/3/W+/324m4pQScnURNnayrJcaPtY1Tx2EuaZ2KXeYvli9dTO5C5OKKm4iHpCma4rs079znzAU+U7NP7cCjdCcYgH7ag2HN2wYANYrdrmo/jwA1WlOvhv3EuX7l5u5jObhzs8igO+3Gesw27ZupP1rrUg2J3RYME6c1twk1bbu9sqCZEPPF/XUzZJcSdLkTeNpj/JjbZiekSyRKbXY+wS5fmj3642n9ffTH0lvSFpKmaJLP0rw23/vCjc0+nXoeKKmmALg3WoNgEd3b1jvqdD5mKU17yU2W10SIVAMf2gdVemO3D7Qb9VpTn/ZP7sn2wUvZPby2mFg7/Z5rwd8Vivaib8SR8WiuS3ZiF+nUPOPUMBNQNM6om7N2punUErxzS8LmVEP70ppaZpoOffno8i0Ga26TNCBpCowIaVjGEqg0UiiFsgf0I3V9b22gJfz3nHeaW9snSC91UlNT4nS73TZXR2poN7bbbdLP702M+w5v7r64sArR3IxTYvc6DY+d1mOpcZuw4MNDkdeHUT7qvC3Lf4GGC3OBiWl3Q2fIvvrdr+Wjf/jnFJu4yLT3QyHLDeeKoexJI/aSvD2ZSoruT55zv8yM7GWPSyeqa/bloyuc7yMiaYpmmIZheAXI2CzTuZmnMRqXqRmoNFwogZMmgDU0JGHcuA0ExbqXJIBxu91ONjdul94MR+20G/vjo4r2ez+G9zklJkdplEO06NXvfl16E87ae7uO+S7jfP66+fhkbDbckuGKfPZ21ybF8rwob3hv0xIJ1BqX57WZpXqH9Tpk1mzoDO5WkDRFU+zKr6VRm1vCt8bgBEB6JWYLaZmhhGUMdgF1ydW+apptCtQutB6ZpXltZiC95BKOtA3paJ1dijKoa2HOx8rsZGHAzNi/05E4G7/tl+vvWX6d763Ixl7nc2uyVi0tzzv8W8MsyBbHisxxGB4PzcdBO1O/TWzimwDmYgSSpuhQyatEhh2pYSMGxJatA//D9/LVf/y3yNX3RERk80bkn/72l/KHq+m/ukW5B77p3ANAGrnbVxKnQByx65E943Tsu1LqrU2YGnAFfcMcajkPa9rG1sbDTD2b28dTz5nHx84X9mPnf791TGpMv67G5OmXj07/f3ov1ou3SBPxK1Nz54nhcxrOKa2OFZl9O7aPUx+HYd2aKl81urjtru3Fxdf2uoImSVM0wWdpXk3mOs9APf4in8oH8ttffXDx4R/+Ip9efV++KbNR1csVDGvqMGMZMxmAepRqX2sZsAV87U+Osn3X9k7YPWLPZx1ern+5z9+h9wWs1djME+5LVwJ9wxrOwzVsI/7/9u6nRc4jT/D4r5oeY2i6TS+YHZaewSqqQcI+yPimw9L0YRYdGvkw0AYnqPcwL6CPAwWSQDDHeQFz2C5IgQx9sOmDdmEYhjn4ZkoHm9JBpBq2DzuYnd2eweD1HGoPpaiKjIp4nojnif/x/YCoVOaTmU8+T0Q8EfF7ImKfuobo/Z+u/k6f13poV548vfrbw+/xRV9RXGbeUvT01aKLoO/B8OXEUgRNHV6d5WuQtejOZlkjMiX9bpCaA6W6EQof8lI5+dLXGyLffS3v/ckP5cvXdxO/99238ovvRH73gwxf37HUleFRKsEAkFvp8nXN9SP1qDdgjcObedZtvSN58sGdD96V7eOj6HX20mVQKWaAdPfieZbAaQtT9NI2zCtGOy71TfYEToF20VcEpEXQ1OHGrTyNsWZV1pmi7rJ6cP9igeIH9+0NgtpHnvaIvDSji6Dym/LbH4u8982/yd/9y9ciIrL74dvyux//SL4svGc9SFlRpRLclto744CW7Saux5vAmwVr6WRY0plSw34Dpsv8eZBxtOmL5QHaGgJoo+Zl1jmrAW1DJUY+JHAKwIW+IiAdgqbohlqgWB9Wr+bgppMZSO1N+fIHb8pfDXT3MACgL4eOG712Z6ciT/w+o7aORzpDoUzdGODLlUdSMPf38Nb7IjftryXbB1n3PXPT46YaZYp9TM9bAm3D2FIHTpGHPptHiinU9SXL1ONRBo5wLcVaI6UhVT6MVk6EIGiK7qi7evXCzlwkvYaCsPTdx+iXSu9Z09c3X8vf/e//K/J6CqbD70T+/k//TP7mjXy7APTMdc3gWgLUo9bgJIFTiKwPeOYKVOpc+5wzeLuUPtrU7BhX/ydgGtfhzdvXRprmDJimHhG4Fm3DdlFO9EHVxfTAacw6mj6znusxgLHpQVKznFDP4wJBU3Rlf5Tp1XNmJdN8HcAa/yp/KW/LX/352/tPf/Ov8pdv/Eh+W2anurZkvTnWqMNSvaWd5b/nqiN26jO22yey2Xy88DtQq7lpOmsPSuYMnG42G8qNS/nKjdBppIMdXIy8zLWmaPLfk8H1INrRtddj6S3PLWGbmlc9x2jTnGgbTmkxr9rykS2/2dYUVs/rawtPvdf1Xa3nYT1gOvV3KRX8cI00JXA6hqXpqMVyCeH0csIcaSpCWWEiaOrwqot1BtO5U3kj1j7K9Or5uddRl5Hzo6q81F2JeUPku6/lvT/5oXz5+m7i9777Vn7xncjvmJIpic+/+Eo2x/7bb45fvq48H81ui/qUHk1acyBon1/6jvF75j6jnWMGxLfdbpsYCXihn3Jjd3ba0HGfdueDdxtLR245rt9XnaTU81xBm2zf/zpQvqQN57Ntqs+Ni7bhlNB2XClm8MUVtLQFQs18p/6vBz/N95mBUdtntBo4nQqMmiNP15gaaYoxLElP9BWNyTXSFFcImjrc6KCBllTVAZx9NQZQS3eAt6br/DgTEA6967BMcPVN+e2PRd775t/k7/7laxER2f3wbfndj38kXxbYm1FsHx95Nbg3xy9fT/9GEAfIZXd21dFzeKvNDh74q32UqcI0vXVLWm78/uG6aUPfeShyEG93fKWeElgFZRd/z9rj6vH5UzbHL0WEG3V0PqPfcriop78MasP5dFovaRtuH+fuCKdtOMe3HVfS5198ZQ2ETt2Y4HuTgm1U6dx7WwuYmjc4mH9twa2QmyJso8T0/5ujTs1tLx6fe/0WtEW/MWOu/L9aW516RI8enVxU3m0j0G0BU/vfccsJgqYYSo0BVIxHrwRPTT22OX5prVxPfZ56n892iu+2Ptv9NxH5T3//3+W//NvX8gt5W778wZurPnOqweD7eUu/O3S7uW3187nmu9W2qqNM/bXRt9Hfs/S7bQ27mo95yHZT58b2ma+sW8X93eo6pKcd38/0TWt6GWPb1pxmk45ZPwRKx9FaEJLAab1Slxt6gM3Waet6vH18JIe33ped5Jv55fMvvko+ytQMlNY4qvViH+3tUL1OF6O+vNc+iVRnDanb6tuHfPedf/pn+fz1Yz0Qs/n4arrrO5H2M6Quqs7PXB3KrJOpY29uq7+mv8+3bWjrOB+hbei7n3PbzeWJ0M/0acfVRgU2147enppGO/fI8JTM+paZfmyvmZztM0u6+elPfyoi++sRnjz91PrZP/3pT+Xk6afy4P5Vn2ctbfKp7VJ8Zi3fHXKtCNkupK/IZun5jtnvFfrdodul+Mxa0u+D++fy6OTAWRYo+qjT62nI/p47H7zbfV8RQVMMa2kA1XwNCKVfSKamUru44+uz2c5N/bWru4mPrqXTkAuY77YX230r7333pnz5hsh7/+d/yn9948/kr34sIt99K++JXN5RHPaZ+9PYrNnHJd8dazt927kR5qGfuXt2b3YUqbrLXaWli324vu2y333knS79P3P9dqGfOdcB4vzM//wfV3/3HHXOVEfX3LXH1gj32859LnuZHhFIodXg45Kpu9AHlV71dDv1uFQ6aTVv5WTW8S5cD4wtqZfEqrOGnkOfmzrM1179+udyQ9W1tYDL9smTve2mRqml+D2+I03NOpnr2OuvLWsbTm83Z/S2oc9MYSGf6dOOK21qFOjc2qRTwc+5tUp7CpyabGWcnq73X59on70u9/WRYipoqqjXPv/iq73Rp7Zt1b75/gZfLXxmHd893a+y5DOX9BWtqUPsbxunnyhk2xbOd4rPDP1ufU1T1/ql6qYK9dpUH2JPS4PYEDQFJCyA6trGF1PzIoR5N7EP193EKd3892/lyzdEfvH/RHZqrZp//07kjTcn34flfNeeUJVhXLDdpW8+9nHnn/45y1T1+rnj+lEvfVpN2/8Zedovgo9YaqrcSFFmLAlC+tQzWrY7O72YdvhAko6kPbyZpkNJ1fEIMl/RAzY+U37Gps8SIlLHmqa0DevTyhqCZkDTzFNzAdC5zxuJGRgVmV7rNJQKctim4VSvYwxqNLtPuf/5F22ssYw49Gm7bVN824KoIyNoChh8puhVj3fP7jGNL5IKrUSru4mvRhXmSJNvym//5F/lL78R+d2f/pnIN1/LX38jIj94W/4mw7eP6Oo8+6WLFtbNwbzN8cu9fE0QFSiHAAVa4zuzgrl9CTny1+V6pnKaLKgp8vo4fpHs4/dmpsG+kiPWlrThfIJoaz6XtmEdQttxpbhGk/qODLXdwKAHVkNGo/bCNqI09k0v+hqF5nqF6J8+a4Ev+orGYysn1P9xhaApMGEqgKr+rwenCKCiBmZazOKNH8lv33j9+Advy5c/mNwaKy25M7mFu5lzMKe9Du1EVl79+udy42//IcUuTjq86566DeUwkhRAqBLlhm8H7dw0mKnlHjm5e5FulOnmg02yz9ZRz7vgmi40y3db+gSGRdvQqcW8OpWHVEBU38b2eG7Uquu7ehudahtpGos+ikxErk3Li/4tTU8tlktYxlVOqNdwpXjQlOnL0ApbAHUqUGpbB5WObuRUPM19962898abl+vWADVobXpeGzXi1LTk9zAyBQDGYFvP1G/bvjvRUo4yFZGko0yxr7fgSmy0DbGEK1/pAT/XNkzXa5dihKniGkE2AvpbsdYoaai2csKMDYrUER8sGjRVB0UdiN3Zc9mdPa/iwABTbFP1Tm0jcj2ICvTjW/nr//W1HJpPf/em/I8/p2GMurQ+0lRRI071ir36Db6NcN+p4HoLrC7/PVeV+d6OCRDTZrPpLo+0UG5sNtMjGvVrw9R1wtyuhJ6mv2a90Xx81lREDrQNR5Ay8AcAGIMeMD28ddsaQC2l+EhTEXtEGejNCHerYFRvyu/+w9vy5Rtv7j/93bfyXpkdEhHZW0Ml5HXXui227XN0zqRsjNLQXebVr39++bdk4DSXdtKI32ioGL+nnWMC5Lfdbi/Xi6xfP+XG7uy0oePu1lPdpORv6ek4hphaXzHp9w4yOsVPnW3DEnrPhwROgbLoK0JPaosPFg2a2iLIjDIFgHhyTcN0rVEsIlLh9Eu2jhQ9GOrqaJn6jJSB09QV1TUjLVt2NfJf7yxfOP3gX5SfRcA+k4Hv7+l72kUAwAX9Oj91zb++HdeJpUrWrUYNZthuhmT06RXahvmMkv9aL2te/fItufHJH7N/75Ljpbf5ds/uyaOTqRntzuXBfdR23GUAACAASURBVPtr+vtanRHv0cmBiIg8uH8uj04O5MH9cxHZX0qtZzn6cEbpKzLzwEXesqevVsUsJ2LnLX32WfO50qqYntd8rpaDAwBoy1RQVKcHSOeCpXpni29gNYZcjc/QKV19TY3ktR1/cwSv7TXXuXR9n62jrLcGlOr48p1q0fZ8q41lAIA/81pguzbYtsmtp4650oGEUTo8FVtwNEfAlFGmMJXO+7nF+q252yQHv/lHEbkInIqInP/qZ9E+236Tri/7e1Q5o5c5J08XfPzr96UMhKR2/6MPReRiv+9/9GH5NZszylm+pOorqomeZlQasqWvlqjfsXt2T06efrq6nEj5+2uODVYxPa+IPbJc0quz09K7ULU7M2vmAAp5CTm5Am/mc3rwbS4IWuLu9BKV0miNXctIXMUW/Jw6F/r5mppm2XaOXa8DAIDro4Nq6BCrYR96U9P5BUZAXgungneb45dZv/dj+Yk8OfqDfPzyJ0m/f+2o0in3P/pQTp5+ung7FVhBO0qUL5Rp7ZjKz77lRei2MdW0rmk1QdNaDohyo4P1YJIqcNcx2kRempEoqKzfaTfSXXdLzAXUSgTdeqyU+hznuffaRpXWGPQGAKA2U3ULVyd/zul5eww01PR7atqXnphtrFrbXLQN8yGvLaMCltmP39Fbq75zbjrYVDM2qJFw5mOf96hAiB4w9f2M2qj9vvjb9hSqqIMtb7WVP86t1/klv6VEvqopPsiapgCA7kxN/arTX5+bohdpTZ2Duec5P3Z6I32k6fkAANfZgpL69K2u9+TS2/WpxyAwAPhaUga2WmaWuBFBBT7XjjQVKbP/a+kBYPXbXGszAiFUmtIflxhxucRUPg79LbnyVU0jS02saYrFSqxxA2CZFivCS01Ny6v4rKlpW4tT/9wRAnWxOvx8gtYhnzF1fnDBNeUinbjAMjuWG7iGY9KHGq4JXJvQopbbViO1DVHGaGsqt0gvA1SZ8OjkoPBehel9pGnN9aOa922NVkeaPrh/vpd/W7nO1xowFalket7a1jPFvB4LRgDtswXTzBGMtgDdkilcQwJ+U2qubJrrnS21dqQoU+yGUefMNdK05jQH1OiQpQau2Z2dymazsb623W4z7w18uMr9qU7tnNPz9qb26yx1ASAO8pLbSDdtxgpQlByc0mrgtFe15xv6Ferx4P559cHROfoAylrig1UETWs5GADQs1buNFpjakSj77Yh268J5rVy523JyrAKTOvBaZ+1T+e2G8HUSNMln9WT5b/nKk31dkyANcybNDabTXd5pIVywxXE1r/fvJbbbrIxX09JfX/tdaFQLXQiMgpsnR7aVCO0DVMi//jr9RiZ+ceVp1xppca6kv4bai4fep+et4V6hEifgdNWpudtIZ/6UNPz1hgbrCJoCgDASFqrWIZUhqem0fUdmTs1Mti19qnvdj1SDW6z4W2OLvV5j007adVvNFSM39POMQHSM8uR7Xbb0OjcfsqN3dlp8HFX+0SZFk9LdbyRRoEBsRAsxe7ZRXAuJFBha4/ZbmqdW2s8lqlAiwrEoIzWrsk9Bk5bkStgmnJJFhUsrXFtU4KmADCQHu5E6kGLFcol+2wLZC55X+jrodu1zmyo2DpzbK9dvYepFwGgd7br+Nya16muEYwwrUuL+1xST20p2obhyC/jMgOJtuDpVJ5ypZ01MwKlQJlQVotlTIv73DqVR6du4oh1jc+xJEttAVMRke+V3gEAAJDIOw9L7wEqUEsDHEBf6CBpi23GAfPmGtesBLH3o8e0k/13UccD0LAW2yeHdz+z/ts9u7d6ZGbOa8hUEIWAaWeoK3RPL4cQF0FTAOiU68LJBRXom363sj4NL9OJAYipxQ5PXLFdC1JfH3oNmIpwbR1Fy8EG2oaoSa5paHOIGTwtqfYyDIBb6mv5iPXcotPzHt6qd9q8Vwnnax7NjUrXNOIcA8ih5w7Cnn9bD2xTLvbSOQHklHIdl5ZNrc+F+ujnZur6rb8Wc3reXusMvd6Q1Ov5AkJRd06np8CpyP50mb4ByFp+PwHTMmo5/ylQj8gv1ZT7KcvqmmODrGnqUGugD/FwjlGFQh2xrF+TR+8VRXMtTdTDrNj22qkL5HJIvXHP7uzU2njuufOndUuu1zHOZ6/rlyo9/y7qePt6bjvRNrS7ygPx13bGhc+/+Eo2x6X3QmT34vp6eoc303fmU8aOq/fyhXpEP0Zt3zE9LwAMiqmY0spRQdw9uze7TkXqzo/e7hDuid5J3XOHNQDA31z9JOZ1vefOMn3a+1Ko4yEm2ob7UpdfPu24UWwf9xU00kecKrWUpbabI7hhIr8c9aPZc/rOw+RlPvWI/MxreYpre691exNBUwAYHI3j+HJ1EtbSuKEyDADjGaXB3BPf+sma67oKJvYaMNVnbujx95mo410YKahA27CSgAayO7x5e+/fqs9q5PyOVLbVoqb6UY5zTz0iv5Q3QY10PpmeFwAGRYM4nSwjTDO8J0QtFX/El7tSvN0+kc3m42Sfv/z3XE3bNUpDAZjiygebzYZy41K+cmOz2cxuE3Kt9u0UGWld25o6OnXU8fJQx7nXAANtwyvJR5iiSuYUvTGn561xqlICpmXUWL5Qj4CvkfpBCJoCQMds69OoCtHm+OXlc6kvfHf+6Z9FFnyHuSajvs+jWtKwoTE0trWNlJyNnN3ZRWfFdvtEDm+FdlT4Te0V4/fQ8APcQbXtdpt1DVhVbizLl/2UG7uz0+THffPxRu7IOEFSkfpHlrZcx9scv7Suvx7SLlnaxgilt0Fant6StmFZLaSRWpQIMKogqW1900Wfd/ezvTRb4zUE/VhavlAu9Ym1ytcjaAoAAyl10Xz165/Ljb/9h6D3qIaS3ll1sf80NtCmV798S0REbnzyx8J7AgDr1Xan8e7s+YKbLeDr8Ob7Il+U3ot09Prmmk7u3Yvn10Yn2Z7DxTqGelBhyUisJW2MtQ7vftVNRyRtQ9SqxMjMWMHSFvRShgHIY6RpeRWCpgAwiN2ze9fu6M6l57uJa5tmpya1HptS02Id/OYfReQieHr+q59F+9yr3+M3YmrfkvcAgL3xXGOZjyu2oMPc417tzk5F5GJaY3N0tC0duzrTfUcm2V5vOZAao47X0khT0+b4ZfNBB9qGV5/DtatONU5pG2r7+Ki6PozWy66WtJ5+U+G45BFrbdMR2gU2BE0BYACqUYy4qOxNq7GhqxqJRSp9RyIfv/yJiEiy/LjkWNe6tlJto8Zq2hegBrZyNHfZqqbmrVVt5Ya6RujXiqnHvXeQhExnrAdH5wKl+vMtB0an1FjHy62HwOnoRk/DLchZ1ujl9UijTpEG5YsbdYh8VOB09+yePDpZ9hm9twdcCJoCQMUW3XHtqHyUrJD0OAUTlTw/NVaIi+3P0VurvlcFN12dc61XZmsPfgCoX203W2AMqnP98OZtr6l41XatW1vHa3V6Xp1rqt6lbTjfbda0DWtY56yGtmFt7RO45TpPPZTLqAPlyzyzPEdah3c/k/sffRjls0a4sVKEoCkAVC2088DctoYRZK9+/fPLvyU7NWKiEhymxsBpq2ro6ALQ/k0KyppyuXSDmRstwiyvUzKNu2luhKkeRO1dDXW8GtoY5o1tqfIbbcM4SqdZL79/WMX5AhCmifKlEuo4cczSUdeRNSNNdaXbfzkRNAWAii1bq9C+bRWNrr8I3Ycjx+OyqNCF45jFEzNwWnuFl1FjqF2rZVuMvF97+YF9+iituXRrjujCPjMYak7pOEKwVBdjFo0LR8bfAMFtjDSut7fWt+Hsn0/bcE3bsJVrt1rOY+1a1Oq17eN62tO1ijkTQK1LJHETblqtlC814ZilF2uk6UhtA4KmCOaqQOiVC/Px1Pv0bfTtpp7zaYza1puxvUdtZ1t7Zm6f5+4inttP1/vnjuNoDfGRqSmrbJWIqU4v9VotleEa7gAHWuabl+emuBmpkgukVsMIqyViBcQIqrXJJ722lqZTM9uEcx3qc2uaMgXkhRhtlJraGCpAMtc+m3ptLpC5tG2oXldTIpdW03lrhe9a1CNIWfdKVT7XUl9UAVMA/VN9SOT5ZQiaIirbXVlrgnzqvepz9c+e+ty5KZP0/bU9H7rPrs917YsrSDr1Xt8gMFAjGsXAcraA6dQdwr6BDN/tcgRFttsnztd2Z89ls/k42ncR5EFMrQVOY+6rKy9tNpvk+SxnmSHSRrmx2WwmX9fPu0/w5uo9jEzyuVk35DMImsZDG6NNnLe8WriGhUhR93INpFjKFaTwvf6mxmhToG+x8/eIN8sSNEUw24hHW0BTF3I3ru25qSDo1CjNqfe6KkG+03FMBUNtQdSpQKzrOK7ZPwDxtNQh3hKOq5vZ0DbXyprjM/Wir7XnaGrdQd+pd/32wa9jnzSH2FoJnMbeR1vj+fMvvpLd2akc3np/1WevLTf8f2c/5cbccV9y/kfrHFlqrnN9ajrfXrVQJmIMLafFmOv99XYTjDk1cQyxymbb6K65gIN6Led1l8Dpei2XLzXjuNZlxICpCEFTBPINhtru0vIJXsa6s8v3vVPB2pDAZMjvtX12aBCUwCnMSjUVinSosKXTSqChBFfjVQ+ettLQ1QMcLa9RqgdxWv0NQEy2xnOsBrXKYyrftZrnai03XNdfrsmIhTrevtRtN9qGdq2nwRyzQ7QsZlA5Fj1gqqbT1rn2c9SgRMtqSne9oQ6xTuw+olHLJoKmCDK39qj+vHrNZ5Tp1FqjS9jeaxsFqo8AdY0O9f0+1/9tv2FqRKrteUDRG8J6JYIGcnwc03n63bNLK2VUiMOo47ymIlz6eNuCIGaAxHwdqF3tZVnN++bDLDfMmzEUyg038/zb6pK2bUJGJk0tWWK+bpuJp6YlSNT6lCIi28dHl4/nbB9fHK/ab2jKofZyMYfUbTfahm49pb01eSnWOuY1q+U8rw1UlDhPrdyEW5u15Uvva0zST4QefK/0DqBNriCh66/vZ041rJeaanQv2c85+jqsvnzXuEmxv2iHqjDolek7H7xrfR7r6McUbmq041qk3XB6Azek0VXDcbYFSIHa7V6cyu7F6eQ2tZZlqToccl4jKTfWs6VN/Rzazufa9KyWHrEtQWIuxWL7f6k2j9mBHFLX0WeCQL3lYg6utpuIRGm70TZ066WjPUZQfX+NaqSwe3Zv77phC0L6pskS54lrVphY5UusvpQa0U9Ujln+cFPEcow0dXh1Nt0p0rMbM2sQ6XcA643ZkOloba+7prhdOnWt7TNDg7jq83zfbzsWr85O5fzg4PLxHu35A+O5g/Pzy/fZvuPg/Nzvh6A7+t2iNU5J0wOOpR9b4yp07U1lpGNuG1mzZFTNkoBpLceZ0WDoVW13Rafcl+yjISg3orPVKZeaW4rF9nroWqBoUy3lYSlmPotdLtM2vK6X37426Km/h8DDeq52l0+7t/Y0yYhTf6Hn0jXqsudA9VQ/kUhYX1Hteacm5OG4CJo6zAUOR2V27IY0ZH06iW2B0yXMfTQDver10M8P3X734rncuPX+5ffa0tXhzdt7z6vvUO9zIY12YuAbNNA+W6VfNbiosE2LNXpGP95q6kBXRxkNDmDaznFN3mw2spWt9+fUEjhdsg+uTlVXmUInbDuWnMPQ6XldXNe8Ncux5EQ6R0y1XCPQnpB0M3IaS/XbXW1fXUgbeORzNApzjVtbuukxeDrVT0SAHq0gaIogaxq1rjVGY36Hz3fnbJjPfW8LnQQoy5zKSf9rrlnj+gvkoE9HpP5PZdgtZvnPlErAeocTN6MtuZ6W7hRf893m+1y/n3pGW5bcUON7juduBDJvjNWfn3q9Bq7jQ/qHi542zLab6zXzfXOfvaRtiPbMrUUd/lnrb4JpQY46mK39NdX2dU2RX1P+pP2e1qjH1py2mn6LNFKnr9rKqxxY0xQAKmZOx6P/1dfEmfqLeSku/mr0n/o3kliV4Z4rZVPrvMVQ67Fjek2MpFTjsqeRC4e3blNuJKbWQFxj7kYg8zpnTtlbY8BUD3LZjpFaM9L8V+v1N1TqOmwvx8lGpQX1WP3V1xo1X9P/zn226+9U27CXa4JNqrRUQztubi3qKb43QPVKL79T0du8UwEL1/Vi7rUc+x3y2ojWpB9GVe4zj8WadDZaeTYnRxob8Zgz0hQAMCyzcyG23qddsbFNP7OUrQOoJ6lG1sQ+VnkryFfHI9X3Lv/c9PuG/uQecVpDwHSz2VBuXMpXbmw2m8nXbenCNvrt+nvWjUwyl0nRnzMf295bcmYeMz/55K9eAqcxOjWn9F7Hm1JDOd2DHOkndT5Ywif9kMYusMbvMq5pZEcSq3whcLovVlB+5DqE4rNGbIp010s91wdBUwBohN7xak63VHoawBbFPl6jrE8Ram1FrefGbsyA6eHdz5JVXksd9/Dv9evYj/F7ekuLSCvXNbqWcnK73U5Od5zSyOXG7ux0dppp21SPU/u25LriCnKWDoAijK0O69NBF6LnOp6Iu+0W63fX3DbU83uKvJ+qHSdSV1vONaX6kt9f+/S8qTvibZ/95OgPIiLy6pdvyccvf7L4s1sMiE0F8kqn+9J6vSbVZm0wufc6RK1GCZiKEDQFgKa4GhNUFMKlCpi67socqfGRYlof0jcA1GWkO417FTOAMxcUaTVgOjcat1e2wJE5m0isIEHPdTxb2ok5OiZH29AW9Jxaozj0fa73T4ndjrPNlFND8HTJWtSu12suw0pNCbuVIzn4zT+KyEUA9fxXP1v8Wa793xy/bKofYPfsnjw6Obj8//2PPiy4N/PU/l38PY/ymbGvSS0G1VsS+3zpaX4/fdXl0cnVY5VvT55+Wm6HOkTQFAAawx1V9aJCjJK2j49kc/yy9G4AsEg96qdEnaDmDlhcZ1vfTn/OlkZrH5mUkjmKzyd/7QfD+jluNU5R2pLUbbdUn+8zQtRcn9j12PZZasruVMtVhGhxCk3X+W61j6DYcf/lW3Ljkz9e7MMnafbh8G74+didnYpIvmNy/6MP5cH9872AKYA2PDo5kAf3z0XkQwKnERE0dXh1dlp6FwBMuFFo2rcUdq7y5vcP8+4IFrGNMgVa4yyHAESTKnBaqoN0xNF3LfMZVWqm0dHPr23a07ntY6vt+pxqtCmu1NQ2NNchNgOc5uOQ0aKlA6Ui+8HSGtNzaJkyVR/o7WaOWFTAtEY5y4IH98+rS/9T1Mi/k6efyv2PLgJFD+7TF4P1VJrSH7cQiDx5enFNO3l68f8ar2mtIWjq0FNABkDdNpuN9fntYxo1saTqUK69oV2KOb1VCq3eRS1yvcOphikLneXQdpt5T4C+xQ6cliwLRw+ooX/m+pA+28fOjzVdn21TmKbScj1vrRrahmaQVP2dC3SmCISmTguupVVqMBcEDZlinWt2e1KXBXpZ/ujkoMopSOesnZ43x7WGm4zyW3NeW5me1+bRSbpg6Yg3yxI0BQB0beROl5JSd0CknuoyJbNDKfTOfOtnPrvH1LxAI2KVX62WgQAwp+V6Xu9sU/KmQhqYRj4Zly2w4/sec9Rci8G8GCNNcwZMcV3KQPKasrHVkaaKGnFqHtslAWD9ZoTRAqYiBE0BoFk0jublqAjnuuO+FTmPh363G/kBQEvWdnTSSYql5tIOnfBXnZxLb0bqeURJzjpvb2kx9e+I/flzM6O4XncFU83n50av5hhhWnsbLubvZ3revqggjm9Ax7ZdzWk/tdzXFkabXijRV9RLHSKUmd5CA8CumxFGGnFK0BQAKqBf0PUL0FVlYkkDZ+xGUc4K0sgNDpvclWGRtgIIsafnNY+zXpa0ckyAES3Np+RtLOWbdkbqEJlyNQViSJ167Pp3bK3VZy7SzNI0MP++dW1Df2vqpmbwVP8s23M2LZ3zlHyOg28eoUxvnz4t71VZcO45wtK9XYt9GY9OLv7unt27nJJU/V9kevRsrvIl55T2Lck5Jbpv+aifH5Wm9Metnr/r++1bXuxvq5c9m+M4+9YCgqYAUAHViNlrzLzzUA5ZX3kxGtr5lWwUtHa+Y61jah5zn47u0E6TvJ0sV8Hkpd87l/6W/571+waYQgMCNXUku8qbzWZDuXEpX7nhWvtMF5J2ug+c/v7h5MujjwapiUq3tuUMbKMUbUE687WpqWWX1tFipJnd2amIOPJygbbh3LGYet32mm20qk3OgAZQM/1arGY/2D4+4hr12snTq7++IzlL1aNHH21aqq/I53yrc3J9dOb+3xGNvAwUQVMAAFagwb1PrwyP2iDIxTzWdz5412uU6VRHuG3Ue6mGZfj3+nUgxPg9tQSt0IeQUSI1pT1XObLdbovd9DVyubE7O+VmOyRXotPTZ+13WzDUFhi1fZY5AwhQC9/rhu8MAoyEb0v3Ny8NgNGmF8xjQD8RWkDQFACAhaj87v92dTwImNbP1gh3TRPekpHzI5Bby2WFbqRyw3ZTzNxj1KGma3SpwKn+1wx0mo9DRosSMB1bze25kBuq5rYtXW4gXC1lPtbTg4W1ljcxufqJgJYQNAUANK+G0Tcjjq60TWNSy++vIU2koDc2XGluyZp1Zmdsiw30WtIesMRch2eNZVprZYRNz+WG2TllX5/T53G/geVWflct1+aSo2VUkFT9JdDZj1quby2242o5dkjDdZOrvLMVkbbSag6u/Fs6n5j7ZbbhW6mLhKi5n0jEnSZq2sdqvPNQRDbF66AlEDQFADSthkqwGl05mpp/c+g6gbVxHdtU00ia6yqPViEGStu9eC6Hcv2atnvxXDYffyzbJ0/2ggbAHP16oTqt7n/0oZw8/dTr/bZtW51W7f5HH4qIyMnTTy9/116H5dn0+qal1XRtzr0Mg8/ao65peFG/0nX11qfO1I9dq20euNnK/BquAy0pXcZMabHM8VX7b2u9r6iEEcsegqYAgGbVVtEZbbRp7b+z5cqw2dltPqeer/0cAPDnCpxunzy5fP1yOwKnCKQCh+qv73v0wGmrgQWsV1NgSZV/qgPvUGRvFOpUMNX2PGuallFjHb2lurXt+NV4TIES9NmUamRr6/ekhXK05b6ikkYacUrQFAAqUMu0Wy2pqYIz8mjT2vVQGbZ1Uk516lCGAPEd3nw/yeeaHfW7F89FtNGlQCz6KEsfUyNNQwKvNdkPHJ+X3ZkG5R5lKiKT0/Gqut2dD94VsWxjBk/1m01szyGfmurm5mjTlgKnph7aPcBa5AH4oswMN1JfE0FTAKhATdNutaLWik0td+HjSq1pJYTZoePqzFn2W4/mNwGQXe2BU270GlOLs2rYpud9cJ+62hSzLlvyBsG5wObnX3w1uY3tNfM5gqd51Vg312d2aaEt5zqGNR5bLEddKxx5ACFIL3AhaAoAQAR656GtQ7GFxjfAqHegLDWq6vMvvpqcLrKGKXopI8ai12tUPefRyUHhvQrDSFN/l+u9Gucd6JGZts22XKl2nKszf25klO31i/9zo2RLaI8BQDkETQEASIRAaZ22j49kc5z/e1/JH1Y3fFOO7iFgCrjtXpyKSLppeq++5/neX5H9Eafmmn0lUVaMrdXAaatyX6OpwwLl80HMdUu5XreHdhkAlEPQFABQvRbXGTADW6Ub3bigOnm3j/Pfaf3kN3+QJ0d/EBGR81/9bPHnuNLS5vjl4nRmdsbSQAfyUYFQ9VjkaiSpGnWqTI0+zY0yAuY0lrWORGx9et4S1+Zaz6WPFtsNPWv1fNQ6Y5DPsWzxeOM6W5nPub2u1TIG9SJNXTdi/xBB0wJenZ2W3gUkdONW2AgE0gMwjQoLYlOdINnT1i/fkhuf/PFiHz5J0xl5eDf89+zOTuXOBy9FhPWVgdzMEaO2oKgeQLW9ByhJD5y2ttZpCinqFlybw+hBZpTFeVjHdux8j6m5HdPztsdW5nMd2EcZgxSoR1w3YtlD0LSA0KAa+kZ6GBxB80lUVJBS7sqwCpgCgGnz8cfWskgPkLq2AVKbCoYSKEWN6PAsj+O/nnkM1xzTETu80TfKGKREPcJupBGn3yu9AwCAq7tIuSBfoYKCHEaq9AGok+/1jvIKqEtIfiTv5keZWQ7tuPhCjynpHz2jjEEOlKPXjXQ8CJoCQAWYdus6KsHIhbQGoJSWO0EpOzH6KFMzP+rTFOtrINK5Ww7HvQyOexxrj6NeRnFO2sR5s+O4IBfS2rgImgIAAEBEGPUO5LQ0kFJL4LSGfUA5owdMFT0/bo5fXv5VjwmYAlhKv84uLUfU+7hmt6eW+h4AjIigKQAAAPbW7aCBDqS1NpBSQz4lEDQuAqb7XPkxZsCUm5qAca293peuL2AZbroBgHIImgIAFtGnHVuLhhxqszZNxswfOZgBUxroQDqx8ljpwCnX7jGYAVICpna2PB0zYMpNTfG4jmFrdbcSXMeIdJlGzHo5dfv28ritzG/xPK497pQvqM2aNGku4dCKFsuetb5fegcAAG0wL+yb45fXngvpRNPfS+cbaqGny82xf+Uwdv7IzVxXmcYpkEbsmxK40QE5ETCdlmr9QK7N00LbFOo8bR8f7T3fWt0tB5/67eb45aL68ujH1kcvN1mttTTd9NI+m3uuJrZg0JrjflVWHwW9D0hhSV+RrRyyPV972q697EmBoCkADERdmEMvyLtn9y4v7nrF4PDu/p3vvp1pajv13tYqDOjHVNq7SPfzlWGVP8zgxeHd/TWElnQ2L82zAOqTKrhJ4BQ5EDD1owJxqg6AuGwd8ipdhozc2D4+umzbiEjXdbe17T/z2qLaf8r28ZFXereNWt//3DqOV21GvL7Ptc98+xtony235De6+owuPme/3Jg77mrbi/KFcgP5zdU3fNpfep4Qud6XKrK8LCpVDrV+E04IgqYAUIGU026Zd2aGTgVhXrzNioG+74d3v5q82Ovfvd94+cy5HRVhxBaSvtSdrVNpWr1mqzSbjfQlDXMz3+bIEyNVhoEcUnd6P15i/AAAFjpJREFUEjgFyrHVranLxuXbOehz3M26m6nVupsuZvtv6toS2v7T0f4Lo49in3tsaqFuEHL+58qDXttnqa0tN0Su0prtuOt11c2xO0hkmwlA3y/bPvdw/FGH8PqGu69IZLqNpj8/lSdcSpRDI/URETQFgAqkmHbLdbEPubCad0aJ2C/6+xXgl5MXe/X9U9Os2O4mrLkivDs7nd/o9w/9toss2Xd6/J7DW++n+e6FfNKS7e5VV4NRzx9zDXLz83z3QW2XM08QMAXgg7JiHCOMMl1VX/r9w3SfXeBza6rj+QRHdHOjTkOCKcpc28b8vhJ1t7nvCW3/6a+72n4iEtz+m9qHUu2/mttxV4EjPYDk89h09VrI78iRz2ton9Wcx3PUtXKVG+bzriDRxXuOgsqNmvuMZvNcofJFJFE9wvP3tNZXtLS+4RMwFZHZmwlc3+UaiV1jXmgNQVOHV5kLrBuVFRax5D6OgFJznkqdL1wX+5DGhtretUaNOTL28y++MirGU422+X3Tt9ErIzVf+P0qfXn3P31FdKLhVFn5b0s/c5VOH2aD0MwXNj6B06lGYsrGYcpR70DNpsqszWaz6rNzjQDNPdqUMqJ/NXdCxuaqM+3OTi/LgLmRXO7X3l/4vulrcdp6Xvk6nk/dLXQqOzNgaqvDmXzaNmpfStTdpj53SfvPtm+uY9VL+6/Kdlyy3+33uTnyeS3tM59ghdqPnHk8dXusp3Kj9j6j+TIm/z6XqkOI1N9XtLYcsgVMY9U39LRulkWtDT6pHUFTh5oDLi3hOALX7eWLyJWFqYu97WI5F7yZ6nh1BU5dnzt397Htt7heA9YITVuu9Gyu2eITMPXZN9vdy/p+q9diNw5rC5juzp6X3gUMZm1w1Cb3lLk5A6e1lBU6yg2koNL6VHpP9ZqZz2rMdznEqLvpfAOmytRItJJ1N9tnrW3/ubhulr2aWvD6MaL9B1+x2mfq/6Hts6lgRak8nrJdFqvcsM1Mpstdbiwt3zCukPRnY6a5qX4i87GNq75hPleivjEagqYA0AnzQi2yvsHp07hw3am9Fhd5pJAqPYUETJfmD9edgzEah7a8PGKnLMZmS/dr8kKpNUZzBU4pIzCKUml95ICp2a6JVXcLGWEaQ8q6m/rMnO0/9yxDcdD+G1OKPK4/br19Zj63FuUGYJciDfVS3xipDqp8r/QOAADWUxdBNUWDOTXDks9TU/POXRhdQRZ1h1Qsc9PCAC6xK7/mHbUhlV9z7ael9Aqwnv+XMtdVHq1CDIjY031rAVNlbbBX/wegDDP/kR+Xc42GCgmmxKy7qf+v+bxS7T/9ddp/WCpX+8w3j9fcPpt7LkTsckNZU27ERrkBX6lu0FJCA6ax8kXs+obImHVQRpoOhjVGAbuWp5LWK76pLvJLRpzGvOBz1yBiiJ2OQkcqpBjBaVbyW88rh7dul94FYLXSAVNlyd38Nex3KMqNtHq4tqQwNTLdVh+O9doIUnZiumbJcUnRya/nqaX5q3T7zzVyjPYfQtWQx0dpn9VabvisGe2jpmONttQUMK09T4xUHyVoOpiWA0NAz5Y2NmNcAG0XUvXc5vjl4sDp9vFRtA4PfR+pCCNErPRi6+DaHNvXqbAx87eeP2LuK9OvAPFtt1uRJ37b1hIwVXJN1Ys+MVrDjYBpejHbD2bdbUnANGbdbU3gtJb2ny0AErP9N7WvaFusdn2MPN5S+2yNHL9jabkRez999hWIyZbelgZMbfW9msqhkeqjBE0BoAJrp8RMVSFUF+0lgdNYd0e1btf5CP9DbsYJDpimyB8xG4ajds4Ca9UanEwVOKWsGAedj3bb7bbo9+eoY/ZWzys5wjS2Gtp/vd+Y03s7TmTsPN5C+yx2GUS5UZfey5jeypdQNdQ3qMMvR9AUAOCkV3r1wO5c4JSL8r5eK4u9V/Kn2Eab2pg3RNTeOBx9VAvGNpXuD29Ol+O1d/6k6KCijBgLnS52vdbxRMrX81KkuSUdmCO2bULaf1MjcXtAHk8ndh73/Txb+6zGOk2t+6W7OuZfUW4s1GsZU7p8KcW3n0gkf32DunyY75XeAQBAeXPTr6mLvT7FRE5c2NEiM1A6lX9qSOMETDE60n2YmoPEQEyk9XGETI0ca2rRUlzfH1J/zaGGOjL64UrfNqXTXo035FFuAHH41jdIy+UQNAUAWB3e/Uy2j4+sF3MRdwXYvKhzkUcvzEaiyiM2rnwjYl8vpzTbmmrAaGzp3icvtJJnYt8QQZB5PKWDPKWQ1tulp9mpepuIu+6Wqt5WYxvJPEa+7T/zGNX429AnW/vMdZ2a6teouX1mPlcbyg20Lkb9tub6Rgw1lj2pETQFADiFBE71qVhi0ivPVKQRKkcHr5n2p/JLrWnYnKaKDmKMyJbu5/JCKwFThZHkCBXSIQ3EkDKNqc82y0HXiI8Ry0vzGJVs/9Vab8Y6tbTP1Da1BiqW1EtLodxAi0arb6zJG7WWPSmxpikAVGLN1JgpK4dXFYkj2Ry/FBH7WqfqTirbPizdNyq8iGltPrFVqPWK9ub46nk9H6vGuNo+BfIKkF9rAVOFwCnWolMSuaStu121bUTy193Wov2HHtA+y4tyA7BbkzdcgVd9fVNdzrIodt4YqR1J0BQAKrA0YBqz0jv1WfpITxGRzfFLr0qv7b3m876oCGMpPW2H5BnfNLsmf6j3xUrbsT5rpMowsAb5BADiW9rGGaHuNkr7j7Zf32if5UW5AdgtyRshadQczRqSJ2osh0Zq+xI0BYAKxJgSM8WdUbbvMLcPbeTbvnPuLkMqv1jL1jDXX1N8np/6jqnPmKKvfxGKuweB/FocYRobZcXYGG2K1PQ0NtVBOXLdref2H/pH+2xeirpWzeWGbb+mPmPNOQJMU/WNuXQ4FzjVt3V9js3Sa6/PfmEaQVMAaFzquzRd37mEvm9zDR4CpojNzCuKTwdO6Pcs2X737F7xSvGaacKB1pHuw3CsQOAUqbnSWMt1txg3hqYeiev6ziVo/2FKj+2zWDd/x66XtlJumPs4VW6Yr1FuYAlXOSQyH5hPWRaZ6XtpXxF5YxmCpgDQgam7NKfeo0t9IZ26Q2uqIcTFHTHZGotzDfEcaXCuQ3BKrE5rAqYYHek+jK2sYARun6auM1Ojg3rBdbGs3upusQKDUyNx575bfX9qtP/ggzxul6JdVnu5YSsz9OcpN5CKnid6K4uwDEFTAOjE1N1RU3I0mHW+lW4u8EjFp5FYIv2ZlW/ffUgRMKWDGCMiCBjGdqwoN9Aj0nV5tdfdpjr0Xe+Lsb9LbpzL3fYTof2HeeTx61LVS1soN0ICRJQbiMUVtHdtl1Pp+saI7TyCpgDQkbkK8NQ0SCVQwUUptaW9uYbhVJ6O8VvMdZVHqxADIvZ0T17wx7Ea0+7ZPXl0cnD5//sffVhwb6apfbv4e152ZxCs5rpbSBsr9uw+oe2/0sex9PejXrWljdJ5PGW9lHIDcKstvS0pi2KPwB6xnUfQFAAqEWuE19RdmrVd/AHY+d5dS54GAJTSyhpJKlh68vRTuf/Rh3Ly9FN5cD//aDv0a276vrltY3w/dUUgndJ5PAXKDaA9vmVRqjw80ohTgqYAUIHYU2JSyQX6kjtPj1QZBgDMM0elqBGmNY8sNTHSFDnlrrvR/gPy6iHP9fAbgNHlzMcj9RERNAWACjAlJoBaEDAF4IOyoi37AUP/95w8/fTa8+aUvAAAID7qWgBQBkFTAAAAiEj8Ue9AS0j3YThWbdGnpvVh23ZuDbRaMT0vAKA11EsBoJzvld4BAAAAlEfAFKMj3Yf5/IuvvJ5DPXwDpq5tXWuf9Y50DQDITbXLAAD5MdLUYXd2WnoXAGBxWXTwkCnTYjl/yJpXS/mmX9JrXEvSrBkw1QOnsetEPZ7v3OWEzznp8TinoJ872w0DqrOKtsF1tmNFueEvdblhBjhjBjzbC55eHOuL0aXnl6NM9d8xlWa5oWLfwcMDkV+W3ov2xMjzXP/jO3h4IDfkdundqA75PK417TPzOZFl9SzKhrjoJ1qH61l+a9LsiDfWEzS1OLz1fuldADCIqYrCZrNZ9Jnb7VZufELDL4bd2SnXhIVCjtv52TnHOZLd2emissNcV1n9XVMOuc5pb+c7dznh+129HecU9HO3Ozu1NgTvfPDu4nwwGv34xU57vaXnHOWGPoXu7tk9kXceNnEMl17HQm0fH8nm+OXr/5HHQ5w/7Cs/5hAjXfu+/3zL+QmxOzuVw084XibyeTxr22fmc0vLEsqGeOgnWof2bH5r6yGjBUxFMgRNdy+eZ3kPALRu6s4dn9f0bUa8oKVAR3kem82GNBvJZrNx3pXsmno3tHzxeW1uH3s637WWE70d5xTmzt3SvJQiD9b0Wok7jXtLzyXKjVaOoe3YpEjPU5iufloraakmerpOfR3h/ISptR5XGukoHjONrW17Tb1vbj84p3FQbuRBmo3HlWZDy5VcdePQ2GCKWGLSoOneDp+fy+4gbFh10A8+5+4DAO2K3YHJ2hdxcAdhHlOjEhHGdQfhVOdvitem9Ha+ay0nejvOKUydu5z5ZSoP5Xyt1oCpSH/puUS50coxtF3HUuSDKQRMp7WSlmqip+vU1xHOT5ha63GlkY7i0fN/qYCpCOc0JsqNPEiz8djq10vKlTV1493ZqUji2KAeezy8uW4GxqRBU33n1E777rA6KN4/kEwEoGFrG8h06gCYkntEGtCyGkd35ngtxU0SqMPh3c9kd/aw9G4sliIfHN79jOsbiqDeBYyrphtZAYxJlRcpbjyccnjrfZGAQKYeMPWJD8YMmIqIHNy4eTvLysW7F8+Ddjh0++D94a4QABVQd/vEbCBvt1umC4lo7ajdnq83sX4bDbz+TN0V2uP5rnF0f4/HOQV17lR5NvJxi9WRn+Ku8B7PS+5yo8djmFuOtF4TVz2PtITeuMrjnttxItO/j3yeRi03ymG9GPW4nsuYGL+NtBtfzDIhdT24dCwx+ZqmAIB5se/wqbEDv0U9V2Jr0nunY06u6Xlr0tv5rrWc6O04p2Ceu9Eb5rmnQA3RW3pmel63mq9jo5cRSitpqSY50zXnJ0yt9bjSSEfxmNNzu6R+jXMaD+VGHqTZeLhBOFy2kaa12Z2dlt4FAEjm4GHYPPFwO3+4/jLZa0Uv1rWU9BpXjDSbUo/nu8Zj3uNxTqHGc4frekzPudNeS8ewpXzZax1PxF3Paykt1SRXuub8hJs6NyPmcRHSUWw1XNc4p3HFOqe9ljEx+opIs3GlKId6Tb8iAwdNAQAAAAAAAAAAAEBE5HuldwAAAAAAAAAAAAAASiJoCgAAAAAAAAAAAGBoBE0BAAAAAAAAAAAADI2gKQAAAAAAAAAAAIChETQFAAAAAAAAAAAAMLTVQdPd2WmM/Uj2eQAAAAAAAAAAAAAwZXXQ9PDW+9ECnbuzUzm89X6UzwIAAAAAAAAAAAAAH1Gm540ROCVgCgAAAAAAAAAAAKCEaGuargmcEjAFAAAAAAAAAAAAUEq0oKnIssApAVMAAAAAAAAAAAAAJUUNmoqEBU5rCpjGWpe1tu9CPpxXrEUaQgykI6xFGqoL56MMjnsYjlddejsfvf2epTgOY+F8j4dzDhfSBtYiDSGGkdJR9KCpiF/gtKaAqYiIHBz0+V3Ih/OKtUhDiIF0hLVIQ3XhfJTBcQ/D8apLb+ejt9+zFMdhLJzv8XDO4ULawFqkIcQwUDpKEjQVmQ6cVhcwBQAAAAAAAAAAADCsZEFTEXvglIApAAAAAAAAAAAAgJokDZqK7AdOCZgCAAAAAAAAAAAAqM33c3yJCpy2HjDdnT2/fHx46/bl//XH6v+j0Y+F/pzt2Ni2RX98zv/o+QbT5tKQ+X/SEEy28sYnTaEt+vnTUV7kMZWfTJwDP6HXPY5pGN/ja/5/5OMbcg1t/Xip+qd6rNCOSW+qbOstnSHsWkd+61fIeScdQKG/EWvR34g5yUea9sJVgTcf2/7fO9uxMI+Bz3FDP1zpgHwDX64yZGo70hB0rrRB2dMX2/lzBZIoL9KbO66cg3Bz6Zhjus7U8TX/P+rxnfrdvR0v2/7T/s9jqmyb2xbtWlL2cs77seS8E7gA/Y1YyydmYf6fNDQegqaB5u6ex76p0R/oU+iFhLSAEK7GEukIoUhD4+Jcp2U7vhzzcOYxm7qZiOMbH9eIKz6/vZfjE/pbe/ndtaP+36+QvgPOd39Gur4gDvobkQPpBiIETRHBXKcOAIQw7+aam+4RMBFcGIft3FJe5OXKX+S15ZgKKi3KjfVGSpekjTxGSlO4wE1WAEIwiAkx0N8IXwRNA00VxKNmsiW/e9RjhetIC5jjk0ZIR5jiM4082uRat8bnPYiDaYvi8zmmHPflpqZg9XkPruvx+LA0RF5T0+2HvAftUJ3VIdujLz7XYM475ky1A0k/mGNLI6QbiBA0DeaTcUa/w8X2+7lbfhxLzzFpA8pUWnCtVQjoQtIFo4z6ELK2KfIhf8Xnc41EONf6lRzT6c6k3o7P1I1V5L185tYm53j3Y25daRvOfz+mzrtrOm7qlOM6vHV7sr957r2ACPU5+Du4cfP2eY4v2p2dyuGt93N81SK7F68razfTZ5Ddi+dyePP25V/0IWcaQp8oGxADZRHWIg3VhWtDGeSDMByvuvR2Pnr7PUtxHMbC9X885HG4kDawFtcUxDBSWTR00FSdaAAAAAAAAAAAAABuvQdOv196B0rS77DIdafFSBH5kXBesRZpCGtx5yBioCyqC+cjP8rScKTTuvR2Pnr7PUtxHMbC+R4P5xwupA2sRRrCWiO2kYdf0zT3iR4lYY2G84q1SENYizSEGEhHdeF85McxD8cxq0tv56O337MUx2EsnO/xcM7hQtrAWqQhrDViGhp6el7dSJFyAAAAAAAAAAAAYM5I8bNsI01rDpgCAAAAAAAAAAAAGNfQa5oCAAAAAPLanT2/fHx46/a1/6ttbK/ZtgUAAAAAIIbh1zQFAAAAAJShB0GnntOfJ1gKAAAAAEiBoCkAAAAAoKipQChBUgAAAABADgRNAQAAAABZuQKhrlGmAAAAAACkRtAUAAAAAFAdFUAlkAoAAAAAyIGgKQAAAAAgK3N9Up/1Ss1tAQAAAACI6eDGzdvnpXeiBrsXrxvpN1kvBwAAAAAAAAAAABgpfjZ00FSdaAAAAAAAAAAAAACG83ORgwMR6T9w+v3SO1DS4c3bsnvxfO8vAAAAAAAAAAAAMLLL+NnBwTDxs+HXNB3lRAMAAAAAAAAAAAA+RoyfDR80BQAAAAAAAAAAADC21UHT3dlpjP0obsSIOQAAAAAAAAAAAOAyUvyMkaYAAAAAAAAAAAAAhkbQFAAAAAAAAAAAAMDQCJoCAAAAAAAAAAAAGBpBUwAAAAAAAAAAAABDI2gKAAAAAAAAAAAAYGgETQEAAAAAAAAAAAAMjaApAAAAAAAAAAAAgKERNAUAAAAAAAAAAAAwNIKmAAAAAAAAAAAAAIZG0BQAAAAAAAAAAADA0AiaAgAAAAAAAAAAABgaQVMAAAAAAAAAAAAAQyNoCgAAAAAAAAAAAGBoBE0BAAAAAAAAAAAADO3/Awh3gY1zhfEEAAAAAElFTkSuQmCC;" vertex="1" parent="1">
          <mxGeometry x="130" y="130" width="1869" height="722" as="geometry" />
        </mxCell>
        <mxCell id="IyXD50Ujy94JnM1tyRpe-4" value="6mm镜头" style="shape=image;verticalLabelPosition=bottom;labelBackgroundColor=default;verticalAlign=top;aspect=fixed;imageAspect=0;image=data:image/png,iVBORw0KGgoAAAANSUhEUgAAAMgAAADICAYAAACtWK6eAAAAAXNSR0IArs4c6QAAFnJJREFUeF7tnQnUdVVZx/+KIuJAToUj5gCmhPOAM6moabhSE01WairOE4lWamiaA2QWgjnkhBoOQYoWaKWEmjiQioqKkmSQJpRKDmiErd/77fN1v/vd6exn7332Pud51jrr3Pe9Z+/z7P8+/3v28AyXkYsj4AgsReAyjo0j4AgsR8AJ4k+HI7ACASeIPx6OgBPEnwFHIA4Bf4PE4ealJoKAE2QiHe3NjEPACRKHm5eaCAJOkIl0tDczDgEnSBxuXmoiCDhBJtLR3sw4BJwgcbh5qYkg4ASZSEd7M+MQcILE4ealJoKAE2QiHe3NjEPACRKHm5eaCAJOkIl0tDczDgEnSBxuXmoiCDhB8nf05SVx7BrO3d/L/neppP+ZO3664H/dNZfkb8J07+AE2azvf07SdSVdW9Iekvi7Oy/73H2/2R3ir4Ig31txfH/uu/+U9O+Szpfk5FqDuxNk24PfHdeb+Tz7/yvFP79Vl/yPGbJ0pOnOEIjPF1bdgszKTYUgPy9pn5lj75nPmSFuvvofSfqqpLPDmc/d8YPmWzexN8hNJe23gAxXG3tHDtQ+3jCzhOHzFySdN5A+yW/b8huE+cAdJN0+HHxmPuAyPALMcz4n6fMz5zOHV6u/Bq0Q5CoLyMB8waUdBH62gDSn1q5+zQS5l6R7S7qPpNvWDqTrF4UAy9cflPQhSadJqu4tUxNBbhUIcQ9JHLw1XKaFwLmBLB+XxHHO0M0fkiDXmCPEzYcGw+9fHQKfCkQ5JRCnuIKlCcLE+r6S7hfOPqku3uXN3vCLkj4QDt4uRaQEQfYKZOiIsXuRlvlNxozA6TNkYaUsm+QiCLvQvz7ztrhcthZ4xVNH4B8kvV/SCTn2X1IT5GaSHhOOa02957z9RRFg7+U4SW8N+y9Jbp6KIGzWdcTYLYlmXokjEI9AR5QPx1exraSVIL8SiHGIVREv7whkQIBJPWR5T2zdsQS5i6TDJT0o9sYTLcducufbMevjMf+/7m9gWuQ3MutbMvt5l4niuq7Zn5D0ujD8WnftDt/HEOQpko7pdZdxXMwY9zuSLgjn7vMPJS06sIKd///FmaFgeIthJgdL6LPnRZ+vL4kDkk1B3ijpcX0a2ocgV5d0tKRH9rlBA9deFHZs2bXl+NYcCToi/G8DbYlV8RcCUTrCLDrH1l1bOSyOmRJ8ZhPFNiXIgcFmZpM6a7wGs+yOAP8yR4hJOwT16KybSMKdYNG5RzXVXPpcSUeu02YTgpwk6dfWVVTJ94zdZ02sO5Pr0Tv2DIz/LGn2DcalLRiYYsJy/1XYrSPIOyUdPDD4y27/7TkyQIyzKtV1qmpBkvmjNixeIukFy5RaRZBXSjqsotZ8VtInJX1M0kclfbMi3VyVzRHoCHO3YGlRw4YyIySWhHeSZQR5WpiQb97stFcyL2ASdcYMKb6b9hZeWyUI3C5YdWOrd88BdUIPnrcdZBFBGJP97QCK8nY4OZg1Y+Y85lWjAeBt4pbXkcTm8wHh+MWCWn9ZEk56rGJul3mC8Lr7p7BSUUK3jhRMlvjs4gjMIsDQpzv2LAANRo8HrSLIkyUdm1kRiAAheFs4KTKDPZLqrzpDFAiT02Xi0bM77vNvkI9kGgeyD8GK2LudFCN5ZIdrBsE6urfKyiXaSBXhAMO8LZklCBMkvkwprDhBDA5MNVwcgZQIPFDSoRn26bAxZP9vB4IwtGKIZRWCKh8fSMEwysURyI1AaqKcKOkhswRhcv4lSdY16RcFcmDv4uIIlEYgJVHuzn5bN8RKMTlniW6HJbLS6Pj9HIGAwO9KepkRjS3L344gr5f0eEOFD7M4pRju60UdgWUIMDfBByRWMFu6RUcQHN+3z9x71gi5ntCzjF/uCJRAAFMpTKZi5CfkgOkIQi4IhkgxctcQ3CumrJdxBHIicGfjs7n1BiF3BolUYoWJvftUxKLn5XIjwPYCzn4xchAE2T+Yl8RUQJl1JvOx9Xo5RyAFApbN72fxcBOu500GTZwgBvC8aHYELAQ5hof7hZKOMKjpBDGA50WzI2AhyMk83H+4yqNqA/WdIBuA5JcMhoCFIKfycONy+DyD+k4QA3heNDsCZoKw48jOY6w4QWKR83IlEDAT5BWSnmPQ1AliAM+LZkfATJCjJD3boKYTxACeF82OgJkg1uglTpDlfXzZEFuX+LqrDvKndN9TGy4DfQ5i/rosRsBMkFdJeqYB3TEThLZhKdAde2CfE+LeLvo8/12pVBDEAP5+z4MYw90xZoKZCfJnkp4+IYIQqJloGTeYefCvOUcECMH/OKYgmApxzJKGz7P/Iw7ZN0J0+pYwMRPk1ZKeamhxjW8Q/JYhAceNZj7zN9+5xCNwXiAKZCHOMefu4LvaxEyQ10h6kqFVjJ+HimHFA3/rcJBnneDK/G8q4fwN3ZalKLGRIcvXQljYLk4yfw8lZoK81ujPQQiWHxdo/X6SIAGE6M6M+V3qR4BcKV0g8dkzPhe5xUwQqzchiVqYIKYU8lOQxYrjToEUnj0pJcJ11PWVEAbqtGBRzt+pxUyQv5D0WINWJF8hyYxFeCtAhjuGg6GSy/QQIH4aZCFl2qfDcYkRBjNBMHXH5D1W+LXvOzlj4vwASXgjQoq9Ym/u5UaNAM5OpweivDcyvbOZIG+R9CgDzDcOqxnrqrhuIAXE4PAh0zrE/Pt5BAiqDlH+uocXq5kgbws522K745ckLRs7so/QEYJzzpiqsfp7ufYQYH8GkkCWdZkIzAR5h6TfNGB0S0lnzpVnDsHu/CNCplVD9V7UEViJAEvJEOXNkv51wZVmghAm9OGGTrj9TMbQKwVikNLqCoY6vagj0BcBEixBEja+z50pbCbIuyQR+C1WWH0ipwibjS8NdkqxdXk5R8CKAJvWEOWPAlHMBHmPpIcatGIFDGJc21CHF3UEciDAAtQNDSk9tlxuT5D04BzaeZ2OQOMIbBGECQ75EFwcAUdgRwS2CEKiEDL2uDgCjsACgpAfmj0KF0fAEVhAEDZacuR6c7AdgdYR2BpikXGWJO4ujoAjsOAN8iFJ93FkHAFHYCcEtt4gluQ5jqkjMGYEtghi2WkcMzjeNkfgFAhiteZ1GB2BsSJwLAR5vqQXj7WFjbQL+yG8MjmIcYWXJseVG9F/rGoeBkEwdcfk3aUMArgG/J0k9p8gBOnv8JxbJBCkIwv59lhMObCMmn4XLExSpGBzJFcjwNvhr0hKH4hxthGwq4WMxPeSdJAkPDVd8iCwLwTZU9K38tQ/6VovCmbX+PzPO5SlAoYErFhT/7akvVNV6vVsR2D3Liri30viF8nFjsC3Q85HiHGOvbqNasBRDZJAFiLEuNgROFXSAR1BHifpDfY6J18D/gcvmvNoKw3Kc0NCJOKVucQj8BRJr+kIwi/QF0LYzvgqp1sSF0+IAUFqkFsEkhxSgzIN6sC8EQfAC2YDT+Oi+PsNNmZolWt4ayzD4OCQoBXCuGyOwImSHsLlswTZN7xFNq/Gr3yGpKMrh+Hmkt4tyUmyeUf9VthA34EgFH+5JMawLusRwMmMvYwWxEmyeS8R8IEFjy2Zz+3BxO5j/muzFk1+jc9ae1VdFzhJ1vcHsYHBaXsw9kXJb5jYYZ/lshiBK0q6uFFw6HzeeuRQcdkZgf1DLODt3yzLDvVOSUzwXHZEgL2iDzcOCtEu/7LxNuRQn1XIF85XvIwgN5N0nCSiJrpsQ4CIfZZcjjXh+KeSWGBw2YYAb9WFgUtW5Re8ejCVwN5n6vL+YPc0FhzY98JRjtQTU5djJD1tGQibJOC0ZqBqvQPYQCXqy7+13pA5/RkuYmI0VWEz8HckkeV5qWxCEApPeRNxy+RgpE/RVIdaZwRLg7U/EJsShOfjtmGP5DdG+rAsataXJd2m4VWrdV3FahYZnLAKnor8saTDN21sH4J0dbIrOxWSPEfSUZuC2eh1mBcxQpiCLFypSjHEmq+D5bAjRo7oN8PbY5m331iaz4SdtwimRmMWvDh7e2PGvEE6EPllffaIEe39a9MwFmQDe1XD+q9T/bPhx27ddTt9byEIlX1xxGYps5mzegPbWAHml59pTOc+6kbbzVkJMtah1icl3alPD4zgWmzLSMg6NjHtYVkJgm3Pl8aGaFgCfMUI27WqSa+TdOgI2xz99gALK0Gog/yEGHmNSSA+S7xTkgdK4td2bEJQEkIrRUkKgrCuzI7kWIQ34thXdJb11c/G0omhHbhCmyyXUxDkniG+71iw3YpmMZbG9GwH5heX7Vmm5sv/RhJvxmhJQRCMGse0VzBlglwiaZfop6m+gi+zxllIQRBgOW9EEf6mTJCfSrp8fc95tEaE1T0+unSiSTr3H1MatykT5CeSdrU8UJWVZS5pWmVN9QZhSRS7pTHIlAnyY0m7jaETJV2aYriYiiCPlPT2kQA7ZYL8SBI+92OQz6UIw5qKIPtJ+vwYUJVUkiC7B0/Fu0jaRxKuzix6sKvN0IAd/fcVDC7+A0kYL45BCDxCfCuTpCIISoxlDb0EQcjzQewl3JkhyTphA++9ISj2umst3//3iJL2JAnql5IgY0kGmpMg1w9ztadGPsUnSTpS0scjy68rRjyoq667qJHvsSv7ilXXlAR5nqSXWBWqoHwugpDohtU+hqNWeWymt8n3JO1hVa6C8l9LlS8lJUHuEcbvFeBjUiEHQZj48mt2A5NmOxbGF+eVCeujqv+SRAar1gXDyyemaERKgrA8CMCtr4LkIEiu+dlhiR2dLpR0jRQP1sB14BJO2juzpCQIyhCAixA5LUtqguS0dmbfgvA9n0gE+AWSrpmorqGqYSXuOpJYcDBLaoL8QUgkY1ZswApSEuRPJD0rc1sIhZoqfR5m4a1HOGEh40GpME9NkPtKOiWVcgPVk4ogJd1YnyCJAH9WIb8iaadbFlYIj03VgNQEQS/SJ7Dx1aqkIkhJDz0Cod0uAeCE/yf1WKvCKhzObsmyNucgCJEIiXfaqqQgSMm3R4dzirfI+WH83mrfvVESCWmTSQ6CYCpBPFsmSi1KCoIQBX5lzNcMwETFfZrTg/jD18ugW6kqWSBirymZ5CAIyrXshpuCIEPlV2GfxRJkm2B57Pa3KNGxr1Y1NhdBhhhipOrUFAQZasONMP6W4S0+3HulArJwPc/PEUI1F0HAho2arVS6jYmVIJiU4GE5hLCsbAmg8Q1JNxxC8QT3zBKJJidBsFTFVLs1sRJkyCAW5Gx/jAHwcyTdyFB+qKJ/LunJOW6ekyDo+8GYgME5GtqjTitBWEV5Q4/7pbzUFEVQEkZ+N0mpUIG6SKh6h7AwlPx2uQnyMEnvSq513gqtBMH1eKiojCSEwdckVs6WdNPYwgOVI+g2NmlZJDdBUPofJd09i/Z5KrUS5MGSTsij2tpa+TF6+Nqrll+AxTGeja0IG4MEGf96LoVLEORRkhgbtyJWggzpfmwdixNuFbffVsQc92pdQ0sQBB0+1VBKaStBMPcn+MEQQqYoljtjBT94VoNaEOzGeHtkXTEsRZBHh5TSLQBvJQhtZNPqVgM09lclnWy4b0v5XnI4jO0EXSmCcOM3S4IotUsKggyRPZbNSauz05mSfrn2Dgo53u9dQs+SBGED6iMNbESlIMgQ8653SDrE+NAQuimFz7xRjbXFIQdBQrJLSYLQmBaGWikIgsk4Kc1KGmyaEsWEJ22ooWGfBx0//GK5MUsTpIWhVgqC0M6S6emsG4TdA/rPKaIR9nnae17LIgJbBgwni8gQBKl9qJWKICXfIineHjxwvPUwNK1VGEIylCwmQxCExtFQQkPWKKkIQtuwrj06cyNfLQn/kxRS83J8slA+fYAaiiDo+FJJv9dH2ULXpiQIKvOLR56KHMJOcso4VsQCxq6pNkGvAyVdVFqxIQlCW4k3mywCRSLwUhMEtdibuF8i/WarubUkopinEsIH1Zb+mqQ+kAOTpeIyNEFIsEgUlL2Lt3z5DXMQhLulnLRjVMgPizn27BwMOWN4xXbxMwdwX96u69AEQRH8iAk4V4vkIkgqkhwnidA2SQKjzYFeW0Satw69uVwDQeijw0PU8hpIkpMgtI/YYQT57humh0Sp2Fm9NiNIH5V014z196maTUuGVt/pUyj1tbUQhHaxGhObFiAlLrkJgq6kGCBCO16XeCCuEpZemavxls2dpKgW1wQCT7B0nbu9a5+bmgiCsjX4sWOwx7CPCB8lhP0SJtvYUREXF2tgYuRyfFUSJuilBFOgdYQtocv+kk4vcaN196iNIOhbw0TxNEmkc5iS4NOdLGSnAbgDakqjUSNBwLaG6BpW5yPDM1K86I1zeuX1aM39a4vtXCtBwLSGnN1ER2SZccyCB2HJYdwyLK0xvbL0Uc0EocE1hMI8PqQwIDXA2ATyE/RgaCni/BTTyNoJQpvIf8G4dEjBkYgcjDXt11jw2EXSCyQdYakkUdniBoh99G6BILSHtX+ilw8tLw8P1iVDK2K4PyYv7KcMnaICO7KHlnJ8isWrFYLQvqNKOsqsAJQVLuYmJ8aCPlA5oraT7SpbDKke7cIxizfHWT3KDHJpSwQBoBcbo3akBJl1eix13y6JX8NahXzhhCPFm/NaFSjJD8vjSzo9WdrcGkFoK0OtIytKeM9CAjvdWOxaIopY+nFRWZZMMWiEGFdIXXlkfbg4MJdrRlokCODeMYT3rG0zjwh/HVEYiv2w8JMAKbqjphi7uMgyvMPQsilplSCAvGt4kzyjUsRx7sG/AgtZgnh/OrGemKjgHovR423C55JBIjZtDpYRkANvxeakZYJ0YBNihyFX7emLibaI/wabcpw5SJpJXm9M1zlz4CB0lXBcOZyx0WJDj4M5BecW8pm/KZCjuCdgKiaOgSBgccuw/Npiwp5UfVlTPczL+NGyZLuqoj1jIUgH5qFhlavVPHtVPBRGJSAF5LDkSjSqkK742AgCMrjxslKCv4VLOQTIssteFefRyBgJ0nXOweFtsu9oeqvOhoxmOLUI3jEThPYSEodVLjamalzhqfOR30wrFhQYTnGcv1mR9q4aO0G6HmFJlA1GJ0qaZxTbOFykqzcVsTZ3KgRxoliflG3lMf3njcHexiRkagSZJwrLwj5HWf2oXxpiBZBGryZTmiIEnSpBZsEl6SZm15CF3XmXbQgQsZFkpATSSB2grhmMnSD/31XYLkEUjpojnOd8uNjt70hxUs4btVK3E2RxT+FURL5xMhm1kHHJ8rx9N3htkrGJIdS5lsrGVtYJsr5HidHUkeVu6y9v4gribeHKDCk4QxKXBQg4Qfo9FqRI5q2Cuyom93v1Kz7Y1ReGQGxnBFIQYtRlAwScIBuAtOISMsLeWRJvGdIG7GOrLllpdrchAab2kILwpaxGufREwAnSE7A1l+PSygSfNHO8XTh3x55pbyUm1ATYmz+IZ8v/XBIg4ARJAOKGVewWyILJC5+XHZeTdPGKA98KCDDGOF0bQlnuMidIOaz9Tg0i4ARpsNNc5XIIOEHKYe13ahABJ0iDneYql0PACVIOa79Tgwg4QRrsNFe5HAJOkHJY+50aRMAJ0mCnucrlEHCClMPa79QgAk6QBjvNVS6HgBOkHNZ+pwYRcII02GmucjkEnCDlsPY7NYiAE6TBTnOVyyHgBCmHtd+pQQScIA12mqtcDgEnSDms/U4NIuAEabDTXOVyCPwfScDST3bgOVoAAAAASUVORK5CYII=;fontColor=#000000;" vertex="1" parent="1">
          <mxGeometry x="490" y="470" width="26.5" height="26.5" as="geometry" />
        </mxCell>
        <mxCell id="IyXD50Ujy94JnM1tyRpe-5" value="6mm镜头" style="shape=image;verticalLabelPosition=bottom;labelBackgroundColor=default;verticalAlign=top;aspect=fixed;imageAspect=0;image=data:image/png,iVBORw0KGgoAAAANSUhEUgAAAMgAAADICAYAAACtWK6eAAAAAXNSR0IArs4c6QAAFnJJREFUeF7tnQnUdVVZx/+KIuJAToUj5gCmhPOAM6moabhSE01WairOE4lWamiaA2QWgjnkhBoOQYoWaKWEmjiQioqKkmSQJpRKDmiErd/77fN1v/vd6exn7332Pud51jrr3Pe9Z+/z7P8+/3v28AyXkYsj4AgsReAyjo0j4AgsR8AJ4k+HI7ACASeIPx6OgBPEnwFHIA4Bf4PE4ealJoKAE2QiHe3NjEPACRKHm5eaCAJOkIl0tDczDgEnSBxuXmoiCDhBJtLR3sw4BJwgcbh5qYkg4ASZSEd7M+MQcILE4ealJoKAE2QiHe3NjEPACRKHm5eaCAJOkIl0tDczDgEnSBxuXmoiCDhB8nf05SVx7BrO3d/L/neppP+ZO3664H/dNZfkb8J07+AE2azvf07SdSVdW9Iekvi7Oy/73H2/2R3ir4Ig31txfH/uu/+U9O+Szpfk5FqDuxNk24PfHdeb+Tz7/yvFP79Vl/yPGbJ0pOnOEIjPF1bdgszKTYUgPy9pn5lj75nPmSFuvvofSfqqpLPDmc/d8YPmWzexN8hNJe23gAxXG3tHDtQ+3jCzhOHzFySdN5A+yW/b8huE+cAdJN0+HHxmPuAyPALMcz4n6fMz5zOHV6u/Bq0Q5CoLyMB8waUdBH62gDSn1q5+zQS5l6R7S7qPpNvWDqTrF4UAy9cflPQhSadJqu4tUxNBbhUIcQ9JHLw1XKaFwLmBLB+XxHHO0M0fkiDXmCPEzYcGw+9fHQKfCkQ5JRCnuIKlCcLE+r6S7hfOPqku3uXN3vCLkj4QDt4uRaQEQfYKZOiIsXuRlvlNxozA6TNkYaUsm+QiCLvQvz7ztrhcthZ4xVNH4B8kvV/SCTn2X1IT5GaSHhOOa02957z9RRFg7+U4SW8N+y9Jbp6KIGzWdcTYLYlmXokjEI9AR5QPx1exraSVIL8SiHGIVREv7whkQIBJPWR5T2zdsQS5i6TDJT0o9sYTLcducufbMevjMf+/7m9gWuQ3MutbMvt5l4niuq7Zn5D0ujD8WnftDt/HEOQpko7pdZdxXMwY9zuSLgjn7vMPJS06sIKd///FmaFgeIthJgdL6LPnRZ+vL4kDkk1B3ijpcX0a2ocgV5d0tKRH9rlBA9deFHZs2bXl+NYcCToi/G8DbYlV8RcCUTrCLDrH1l1bOSyOmRJ8ZhPFNiXIgcFmZpM6a7wGs+yOAP8yR4hJOwT16KybSMKdYNG5RzXVXPpcSUeu02YTgpwk6dfWVVTJ94zdZ02sO5Pr0Tv2DIz/LGn2DcalLRiYYsJy/1XYrSPIOyUdPDD4y27/7TkyQIyzKtV1qmpBkvmjNixeIukFy5RaRZBXSjqsotZ8VtInJX1M0kclfbMi3VyVzRHoCHO3YGlRw4YyIySWhHeSZQR5WpiQb97stFcyL2ASdcYMKb6b9hZeWyUI3C5YdWOrd88BdUIPnrcdZBFBGJP97QCK8nY4OZg1Y+Y85lWjAeBt4pbXkcTm8wHh+MWCWn9ZEk56rGJul3mC8Lr7p7BSUUK3jhRMlvjs4gjMIsDQpzv2LAANRo8HrSLIkyUdm1kRiAAheFs4KTKDPZLqrzpDFAiT02Xi0bM77vNvkI9kGgeyD8GK2LudFCN5ZIdrBsE6urfKyiXaSBXhAMO8LZklCBMkvkwprDhBDA5MNVwcgZQIPFDSoRn26bAxZP9vB4IwtGKIZRWCKh8fSMEwysURyI1AaqKcKOkhswRhcv4lSdY16RcFcmDv4uIIlEYgJVHuzn5bN8RKMTlniW6HJbLS6Pj9HIGAwO9KepkRjS3L344gr5f0eEOFD7M4pRju60UdgWUIMDfBByRWMFu6RUcQHN+3z9x71gi5ntCzjF/uCJRAAFMpTKZi5CfkgOkIQi4IhkgxctcQ3CumrJdxBHIicGfjs7n1BiF3BolUYoWJvftUxKLn5XIjwPYCzn4xchAE2T+Yl8RUQJl1JvOx9Xo5RyAFApbN72fxcBOu500GTZwgBvC8aHYELAQ5hof7hZKOMKjpBDGA50WzI2AhyMk83H+4yqNqA/WdIBuA5JcMhoCFIKfycONy+DyD+k4QA3heNDsCZoKw48jOY6w4QWKR83IlEDAT5BWSnmPQ1AliAM+LZkfATJCjJD3boKYTxACeF82OgJkg1uglTpDlfXzZEFuX+LqrDvKndN9TGy4DfQ5i/rosRsBMkFdJeqYB3TEThLZhKdAde2CfE+LeLvo8/12pVBDEAP5+z4MYw90xZoKZCfJnkp4+IYIQqJloGTeYefCvOUcECMH/OKYgmApxzJKGz7P/Iw7ZN0J0+pYwMRPk1ZKeamhxjW8Q/JYhAceNZj7zN9+5xCNwXiAKZCHOMefu4LvaxEyQ10h6kqFVjJ+HimHFA3/rcJBnneDK/G8q4fwN3ZalKLGRIcvXQljYLk4yfw8lZoK81ujPQQiWHxdo/X6SIAGE6M6M+V3qR4BcKV0g8dkzPhe5xUwQqzchiVqYIKYU8lOQxYrjToEUnj0pJcJ11PWVEAbqtGBRzt+pxUyQv5D0WINWJF8hyYxFeCtAhjuGg6GSy/QQIH4aZCFl2qfDcYkRBjNBMHXH5D1W+LXvOzlj4vwASXgjQoq9Ym/u5UaNAM5OpweivDcyvbOZIG+R9CgDzDcOqxnrqrhuIAXE4PAh0zrE/Pt5BAiqDlH+uocXq5kgbws522K745ckLRs7so/QEYJzzpiqsfp7ufYQYH8GkkCWdZkIzAR5h6TfNGB0S0lnzpVnDsHu/CNCplVD9V7UEViJAEvJEOXNkv51wZVmghAm9OGGTrj9TMbQKwVikNLqCoY6vagj0BcBEixBEja+z50pbCbIuyQR+C1WWH0ipwibjS8NdkqxdXk5R8CKAJvWEOWPAlHMBHmPpIcatGIFDGJc21CHF3UEciDAAtQNDSk9tlxuT5D04BzaeZ2OQOMIbBGECQ75EFwcAUdgRwS2CEKiEDL2uDgCjsACgpAfmj0KF0fAEVhAEDZacuR6c7AdgdYR2BpikXGWJO4ujoAjsOAN8iFJ93FkHAFHYCcEtt4gluQ5jqkjMGYEtghi2WkcMzjeNkfgFAhiteZ1GB2BsSJwLAR5vqQXj7WFjbQL+yG8MjmIcYWXJseVG9F/rGoeBkEwdcfk3aUMArgG/J0k9p8gBOnv8JxbJBCkIwv59lhMObCMmn4XLExSpGBzJFcjwNvhr0hKH4hxthGwq4WMxPeSdJAkPDVd8iCwLwTZU9K38tQ/6VovCmbX+PzPO5SlAoYErFhT/7akvVNV6vVsR2D3Liri30viF8nFjsC3Q85HiHGOvbqNasBRDZJAFiLEuNgROFXSAR1BHifpDfY6J18D/gcvmvNoKw3Kc0NCJOKVucQj8BRJr+kIwi/QF0LYzvgqp1sSF0+IAUFqkFsEkhxSgzIN6sC8EQfAC2YDT+Oi+PsNNmZolWt4ayzD4OCQoBXCuGyOwImSHsLlswTZN7xFNq/Gr3yGpKMrh+Hmkt4tyUmyeUf9VthA34EgFH+5JMawLusRwMmMvYwWxEmyeS8R8IEFjy2Zz+3BxO5j/muzFk1+jc9ae1VdFzhJ1vcHsYHBaXsw9kXJb5jYYZ/lshiBK0q6uFFw6HzeeuRQcdkZgf1DLODt3yzLDvVOSUzwXHZEgL2iDzcOCtEu/7LxNuRQn1XIF85XvIwgN5N0nCSiJrpsQ4CIfZZcjjXh+KeSWGBw2YYAb9WFgUtW5Re8ejCVwN5n6vL+YPc0FhzY98JRjtQTU5djJD1tGQibJOC0ZqBqvQPYQCXqy7+13pA5/RkuYmI0VWEz8HckkeV5qWxCEApPeRNxy+RgpE/RVIdaZwRLg7U/EJsShOfjtmGP5DdG+rAsataXJd2m4VWrdV3FahYZnLAKnor8saTDN21sH4J0dbIrOxWSPEfSUZuC2eh1mBcxQpiCLFypSjHEmq+D5bAjRo7oN8PbY5m331iaz4SdtwimRmMWvDh7e2PGvEE6EPllffaIEe39a9MwFmQDe1XD+q9T/bPhx27ddTt9byEIlX1xxGYps5mzegPbWAHml59pTOc+6kbbzVkJMtah1icl3alPD4zgWmzLSMg6NjHtYVkJgm3Pl8aGaFgCfMUI27WqSa+TdOgI2xz99gALK0Gog/yEGHmNSSA+S7xTkgdK4td2bEJQEkIrRUkKgrCuzI7kWIQ34thXdJb11c/G0omhHbhCmyyXUxDkniG+71iw3YpmMZbG9GwH5heX7Vmm5sv/RhJvxmhJQRCMGse0VzBlglwiaZfop6m+gi+zxllIQRBgOW9EEf6mTJCfSrp8fc95tEaE1T0+unSiSTr3H1MatykT5CeSdrU8UJWVZS5pWmVN9QZhSRS7pTHIlAnyY0m7jaETJV2aYriYiiCPlPT2kQA7ZYL8SBI+92OQz6UIw5qKIPtJ+vwYUJVUkiC7B0/Fu0jaRxKuzix6sKvN0IAd/fcVDC7+A0kYL45BCDxCfCuTpCIISoxlDb0EQcjzQewl3JkhyTphA++9ISj2umst3//3iJL2JAnql5IgY0kGmpMg1w9ztadGPsUnSTpS0scjy68rRjyoq667qJHvsSv7ilXXlAR5nqSXWBWqoHwugpDohtU+hqNWeWymt8n3JO1hVa6C8l9LlS8lJUHuEcbvFeBjUiEHQZj48mt2A5NmOxbGF+eVCeujqv+SRAar1gXDyyemaERKgrA8CMCtr4LkIEiu+dlhiR2dLpR0jRQP1sB14BJO2juzpCQIyhCAixA5LUtqguS0dmbfgvA9n0gE+AWSrpmorqGqYSXuOpJYcDBLaoL8QUgkY1ZswApSEuRPJD0rc1sIhZoqfR5m4a1HOGEh40GpME9NkPtKOiWVcgPVk4ogJd1YnyCJAH9WIb8iaadbFlYIj03VgNQEQS/SJ7Dx1aqkIkhJDz0Cod0uAeCE/yf1WKvCKhzObsmyNucgCJEIiXfaqqQgSMm3R4dzirfI+WH83mrfvVESCWmTSQ6CYCpBPFsmSi1KCoIQBX5lzNcMwETFfZrTg/jD18ugW6kqWSBirymZ5CAIyrXshpuCIEPlV2GfxRJkm2B57Pa3KNGxr1Y1NhdBhhhipOrUFAQZasONMP6W4S0+3HulArJwPc/PEUI1F0HAho2arVS6jYmVIJiU4GE5hLCsbAmg8Q1JNxxC8QT3zBKJJidBsFTFVLs1sRJkyCAW5Gx/jAHwcyTdyFB+qKJ/LunJOW6ekyDo+8GYgME5GtqjTitBWEV5Q4/7pbzUFEVQEkZ+N0mpUIG6SKh6h7AwlPx2uQnyMEnvSq513gqtBMH1eKiojCSEwdckVs6WdNPYwgOVI+g2NmlZJDdBUPofJd09i/Z5KrUS5MGSTsij2tpa+TF6+Nqrll+AxTGeja0IG4MEGf96LoVLEORRkhgbtyJWggzpfmwdixNuFbffVsQc92pdQ0sQBB0+1VBKaStBMPcn+MEQQqYoljtjBT94VoNaEOzGeHtkXTEsRZBHh5TSLQBvJQhtZNPqVgM09lclnWy4b0v5XnI4jO0EXSmCcOM3S4IotUsKggyRPZbNSauz05mSfrn2Dgo53u9dQs+SBGED6iMNbESlIMgQ8653SDrE+NAQuimFz7xRjbXFIQdBQrJLSYLQmBaGWikIgsk4Kc1KGmyaEsWEJ22ooWGfBx0//GK5MUsTpIWhVgqC0M6S6emsG4TdA/rPKaIR9nnae17LIgJbBgwni8gQBKl9qJWKICXfIineHjxwvPUwNK1VGEIylCwmQxCExtFQQkPWKKkIQtuwrj06cyNfLQn/kxRS83J8slA+fYAaiiDo+FJJv9dH2ULXpiQIKvOLR56KHMJOcso4VsQCxq6pNkGvAyVdVFqxIQlCW4k3mywCRSLwUhMEtdibuF8i/WarubUkopinEsIH1Zb+mqQ+kAOTpeIyNEFIsEgUlL2Lt3z5DXMQhLulnLRjVMgPizn27BwMOWN4xXbxMwdwX96u69AEQRH8iAk4V4vkIkgqkhwnidA2SQKjzYFeW0Satw69uVwDQeijw0PU8hpIkpMgtI/YYQT57humh0Sp2Fm9NiNIH5V014z196maTUuGVt/pUyj1tbUQhHaxGhObFiAlLrkJgq6kGCBCO16XeCCuEpZemavxls2dpKgW1wQCT7B0nbu9a5+bmgiCsjX4sWOwx7CPCB8lhP0SJtvYUREXF2tgYuRyfFUSJuilBFOgdYQtocv+kk4vcaN196iNIOhbw0TxNEmkc5iS4NOdLGSnAbgDakqjUSNBwLaG6BpW5yPDM1K86I1zeuX1aM39a4vtXCtBwLSGnN1ER2SZccyCB2HJYdwyLK0xvbL0Uc0EocE1hMI8PqQwIDXA2ATyE/RgaCni/BTTyNoJQpvIf8G4dEjBkYgcjDXt11jw2EXSCyQdYakkUdniBoh99G6BILSHtX+ilw8tLw8P1iVDK2K4PyYv7KcMnaICO7KHlnJ8isWrFYLQvqNKOsqsAJQVLuYmJ8aCPlA5oraT7SpbDKke7cIxizfHWT3KDHJpSwQBoBcbo3akBJl1eix13y6JX8NahXzhhCPFm/NaFSjJD8vjSzo9WdrcGkFoK0OtIytKeM9CAjvdWOxaIopY+nFRWZZMMWiEGFdIXXlkfbg4MJdrRlokCODeMYT3rG0zjwh/HVEYiv2w8JMAKbqjphi7uMgyvMPQsilplSCAvGt4kzyjUsRx7sG/AgtZgnh/OrGemKjgHovR423C55JBIjZtDpYRkANvxeakZYJ0YBNihyFX7emLibaI/wabcpw5SJpJXm9M1zlz4CB0lXBcOZyx0WJDj4M5BecW8pm/KZCjuCdgKiaOgSBgccuw/Npiwp5UfVlTPczL+NGyZLuqoj1jIUgH5qFhlavVPHtVPBRGJSAF5LDkSjSqkK742AgCMrjxslKCv4VLOQTIssteFefRyBgJ0nXOweFtsu9oeqvOhoxmOLUI3jEThPYSEodVLjamalzhqfOR30wrFhQYTnGcv1mR9q4aO0G6HmFJlA1GJ0qaZxTbOFykqzcVsTZ3KgRxoliflG3lMf3njcHexiRkagSZJwrLwj5HWf2oXxpiBZBGryZTmiIEnSpBZsEl6SZm15CF3XmXbQgQsZFkpATSSB2grhmMnSD/31XYLkEUjpojnOd8uNjt70hxUs4btVK3E2RxT+FURL5xMhm1kHHJ8rx9N3htkrGJIdS5lsrGVtYJsr5HidHUkeVu6y9v4gribeHKDCk4QxKXBQg4Qfo9FqRI5q2Cuyom93v1Kz7Y1ReGQGxnBFIQYtRlAwScIBuAtOISMsLeWRJvGdIG7GOrLllpdrchAab2kILwpaxGufREwAnSE7A1l+PSygSfNHO8XTh3x55pbyUm1ATYmz+IZ8v/XBIg4ARJAOKGVewWyILJC5+XHZeTdPGKA98KCDDGOF0bQlnuMidIOaz9Tg0i4ARpsNNc5XIIOEHKYe13ahABJ0iDneYql0PACVIOa79Tgwg4QRrsNFe5HAJOkHJY+50aRMAJ0mCnucrlEHCClMPa79QgAk6QBjvNVS6HgBOkHNZ+pwYRcII02GmucjkEnCDlsPY7NYiAE6TBTnOVyyHgBCmHtd+pQQScIA12mqtcDgEnSDms/U4NIuAEabDTXOVyCPwfScDST3bgOVoAAAAASUVORK5CYII=;fontColor=#000000;" vertex="1" parent="1">
          <mxGeometry x="1400" y="460" width="26.5" height="26.5" as="geometry" />
        </mxCell>
        <mxCell id="IyXD50Ujy94JnM1tyRpe-6" value="4mm镜头" style="shape=image;verticalLabelPosition=bottom;labelBackgroundColor=default;verticalAlign=top;aspect=fixed;imageAspect=0;image=data:image/png,iVBORw0KGgoAAAANSUhEUgAAAMgAAADICAYAAACtWK6eAAAAAXNSR0IArs4c6QAAFnJJREFUeF7tnQnUdVVZx/+KIuJAToUj5gCmhPOAM6moabhSE01WairOE4lWamiaA2QWgjnkhBoOQYoWaKWEmjiQioqKkmSQJpRKDmiErd/77fN1v/vd6exn7332Pud51jrr3Pe9Z+/z7P8+/3v28AyXkYsj4AgsReAyjo0j4AgsR8AJ4k+HI7ACASeIPx6OgBPEnwFHIA4Bf4PE4ealJoKAE2QiHe3NjEPACRKHm5eaCAJOkIl0tDczDgEnSBxuXmoiCDhBJtLR3sw4BJwgcbh5qYkg4ASZSEd7M+MQcILE4ealJoKAE2QiHe3NjEPACRKHm5eaCAJOkIl0tDczDgEnSBxuXmoiCDhB8nf05SVx7BrO3d/L/neppP+ZO3664H/dNZfkb8J07+AE2azvf07SdSVdW9Iekvi7Oy/73H2/2R3ir4Ig31txfH/uu/+U9O+Szpfk5FqDuxNk24PfHdeb+Tz7/yvFP79Vl/yPGbJ0pOnOEIjPF1bdgszKTYUgPy9pn5lj75nPmSFuvvofSfqqpLPDmc/d8YPmWzexN8hNJe23gAxXG3tHDtQ+3jCzhOHzFySdN5A+yW/b8huE+cAdJN0+HHxmPuAyPALMcz4n6fMz5zOHV6u/Bq0Q5CoLyMB8waUdBH62gDSn1q5+zQS5l6R7S7qPpNvWDqTrF4UAy9cflPQhSadJqu4tUxNBbhUIcQ9JHLw1XKaFwLmBLB+XxHHO0M0fkiDXmCPEzYcGw+9fHQKfCkQ5JRCnuIKlCcLE+r6S7hfOPqku3uXN3vCLkj4QDt4uRaQEQfYKZOiIsXuRlvlNxozA6TNkYaUsm+QiCLvQvz7ztrhcthZ4xVNH4B8kvV/SCTn2X1IT5GaSHhOOa02957z9RRFg7+U4SW8N+y9Jbp6KIGzWdcTYLYlmXokjEI9AR5QPx1exraSVIL8SiHGIVREv7whkQIBJPWR5T2zdsQS5i6TDJT0o9sYTLcducufbMevjMf+/7m9gWuQ3MutbMvt5l4niuq7Zn5D0ujD8WnftDt/HEOQpko7pdZdxXMwY9zuSLgjn7vMPJS06sIKd///FmaFgeIthJgdL6LPnRZ+vL4kDkk1B3ijpcX0a2ocgV5d0tKRH9rlBA9deFHZs2bXl+NYcCToi/G8DbYlV8RcCUTrCLDrH1l1bOSyOmRJ8ZhPFNiXIgcFmZpM6a7wGs+yOAP8yR4hJOwT16KybSMKdYNG5RzXVXPpcSUeu02YTgpwk6dfWVVTJ94zdZ02sO5Pr0Tv2DIz/LGn2DcalLRiYYsJy/1XYrSPIOyUdPDD4y27/7TkyQIyzKtV1qmpBkvmjNixeIukFy5RaRZBXSjqsotZ8VtInJX1M0kclfbMi3VyVzRHoCHO3YGlRw4YyIySWhHeSZQR5WpiQb97stFcyL2ASdcYMKb6b9hZeWyUI3C5YdWOrd88BdUIPnrcdZBFBGJP97QCK8nY4OZg1Y+Y85lWjAeBt4pbXkcTm8wHh+MWCWn9ZEk56rGJul3mC8Lr7p7BSUUK3jhRMlvjs4gjMIsDQpzv2LAANRo8HrSLIkyUdm1kRiAAheFs4KTKDPZLqrzpDFAiT02Xi0bM77vNvkI9kGgeyD8GK2LudFCN5ZIdrBsE6urfKyiXaSBXhAMO8LZklCBMkvkwprDhBDA5MNVwcgZQIPFDSoRn26bAxZP9vB4IwtGKIZRWCKh8fSMEwysURyI1AaqKcKOkhswRhcv4lSdY16RcFcmDv4uIIlEYgJVHuzn5bN8RKMTlniW6HJbLS6Pj9HIGAwO9KepkRjS3L344gr5f0eEOFD7M4pRju60UdgWUIMDfBByRWMFu6RUcQHN+3z9x71gi5ntCzjF/uCJRAAFMpTKZi5CfkgOkIQi4IhkgxctcQ3CumrJdxBHIicGfjs7n1BiF3BolUYoWJvftUxKLn5XIjwPYCzn4xchAE2T+Yl8RUQJl1JvOx9Xo5RyAFApbN72fxcBOu500GTZwgBvC8aHYELAQ5hof7hZKOMKjpBDGA50WzI2AhyMk83H+4yqNqA/WdIBuA5JcMhoCFIKfycONy+DyD+k4QA3heNDsCZoKw48jOY6w4QWKR83IlEDAT5BWSnmPQ1AliAM+LZkfATJCjJD3boKYTxACeF82OgJkg1uglTpDlfXzZEFuX+LqrDvKndN9TGy4DfQ5i/rosRsBMkFdJeqYB3TEThLZhKdAde2CfE+LeLvo8/12pVBDEAP5+z4MYw90xZoKZCfJnkp4+IYIQqJloGTeYefCvOUcECMH/OKYgmApxzJKGz7P/Iw7ZN0J0+pYwMRPk1ZKeamhxjW8Q/JYhAceNZj7zN9+5xCNwXiAKZCHOMefu4LvaxEyQ10h6kqFVjJ+HimHFA3/rcJBnneDK/G8q4fwN3ZalKLGRIcvXQljYLk4yfw8lZoK81ujPQQiWHxdo/X6SIAGE6M6M+V3qR4BcKV0g8dkzPhe5xUwQqzchiVqYIKYU8lOQxYrjToEUnj0pJcJ11PWVEAbqtGBRzt+pxUyQv5D0WINWJF8hyYxFeCtAhjuGg6GSy/QQIH4aZCFl2qfDcYkRBjNBMHXH5D1W+LXvOzlj4vwASXgjQoq9Ym/u5UaNAM5OpweivDcyvbOZIG+R9CgDzDcOqxnrqrhuIAXE4PAh0zrE/Pt5BAiqDlH+uocXq5kgbws522K745ckLRs7so/QEYJzzpiqsfp7ufYQYH8GkkCWdZkIzAR5h6TfNGB0S0lnzpVnDsHu/CNCplVD9V7UEViJAEvJEOXNkv51wZVmghAm9OGGTrj9TMbQKwVikNLqCoY6vagj0BcBEixBEja+z50pbCbIuyQR+C1WWH0ipwibjS8NdkqxdXk5R8CKAJvWEOWPAlHMBHmPpIcatGIFDGJc21CHF3UEciDAAtQNDSk9tlxuT5D04BzaeZ2OQOMIbBGECQ75EFwcAUdgRwS2CEKiEDL2uDgCjsACgpAfmj0KF0fAEVhAEDZacuR6c7AdgdYR2BpikXGWJO4ujoAjsOAN8iFJ93FkHAFHYCcEtt4gluQ5jqkjMGYEtghi2WkcMzjeNkfgFAhiteZ1GB2BsSJwLAR5vqQXj7WFjbQL+yG8MjmIcYWXJseVG9F/rGoeBkEwdcfk3aUMArgG/J0k9p8gBOnv8JxbJBCkIwv59lhMObCMmn4XLExSpGBzJFcjwNvhr0hKH4hxthGwq4WMxPeSdJAkPDVd8iCwLwTZU9K38tQ/6VovCmbX+PzPO5SlAoYErFhT/7akvVNV6vVsR2D3Liri30viF8nFjsC3Q85HiHGOvbqNasBRDZJAFiLEuNgROFXSAR1BHifpDfY6J18D/gcvmvNoKw3Kc0NCJOKVucQj8BRJr+kIwi/QF0LYzvgqp1sSF0+IAUFqkFsEkhxSgzIN6sC8EQfAC2YDT+Oi+PsNNmZolWt4ayzD4OCQoBXCuGyOwImSHsLlswTZN7xFNq/Gr3yGpKMrh+Hmkt4tyUmyeUf9VthA34EgFH+5JMawLusRwMmMvYwWxEmyeS8R8IEFjy2Zz+3BxO5j/muzFk1+jc9ae1VdFzhJ1vcHsYHBaXsw9kXJb5jYYZ/lshiBK0q6uFFw6HzeeuRQcdkZgf1DLODt3yzLDvVOSUzwXHZEgL2iDzcOCtEu/7LxNuRQn1XIF85XvIwgN5N0nCSiJrpsQ4CIfZZcjjXh+KeSWGBw2YYAb9WFgUtW5Re8ejCVwN5n6vL+YPc0FhzY98JRjtQTU5djJD1tGQibJOC0ZqBqvQPYQCXqy7+13pA5/RkuYmI0VWEz8HckkeV5qWxCEApPeRNxy+RgpE/RVIdaZwRLg7U/EJsShOfjtmGP5DdG+rAsataXJd2m4VWrdV3FahYZnLAKnor8saTDN21sH4J0dbIrOxWSPEfSUZuC2eh1mBcxQpiCLFypSjHEmq+D5bAjRo7oN8PbY5m331iaz4SdtwimRmMWvDh7e2PGvEE6EPllffaIEe39a9MwFmQDe1XD+q9T/bPhx27ddTt9byEIlX1xxGYps5mzegPbWAHml59pTOc+6kbbzVkJMtah1icl3alPD4zgWmzLSMg6NjHtYVkJgm3Pl8aGaFgCfMUI27WqSa+TdOgI2xz99gALK0Gog/yEGHmNSSA+S7xTkgdK4td2bEJQEkIrRUkKgrCuzI7kWIQ34thXdJb11c/G0omhHbhCmyyXUxDkniG+71iw3YpmMZbG9GwH5heX7Vmm5sv/RhJvxmhJQRCMGse0VzBlglwiaZfop6m+gi+zxllIQRBgOW9EEf6mTJCfSrp8fc95tEaE1T0+unSiSTr3H1MatykT5CeSdrU8UJWVZS5pWmVN9QZhSRS7pTHIlAnyY0m7jaETJV2aYriYiiCPlPT2kQA7ZYL8SBI+92OQz6UIw5qKIPtJ+vwYUJVUkiC7B0/Fu0jaRxKuzix6sKvN0IAd/fcVDC7+A0kYL45BCDxCfCuTpCIISoxlDb0EQcjzQewl3JkhyTphA++9ISj2umst3//3iJL2JAnql5IgY0kGmpMg1w9ztadGPsUnSTpS0scjy68rRjyoq667qJHvsSv7ilXXlAR5nqSXWBWqoHwugpDohtU+hqNWeWymt8n3JO1hVa6C8l9LlS8lJUHuEcbvFeBjUiEHQZj48mt2A5NmOxbGF+eVCeujqv+SRAar1gXDyyemaERKgrA8CMCtr4LkIEiu+dlhiR2dLpR0jRQP1sB14BJO2juzpCQIyhCAixA5LUtqguS0dmbfgvA9n0gE+AWSrpmorqGqYSXuOpJYcDBLaoL8QUgkY1ZswApSEuRPJD0rc1sIhZoqfR5m4a1HOGEh40GpME9NkPtKOiWVcgPVk4ogJd1YnyCJAH9WIb8iaadbFlYIj03VgNQEQS/SJ7Dx1aqkIkhJDz0Cod0uAeCE/yf1WKvCKhzObsmyNucgCJEIiXfaqqQgSMm3R4dzirfI+WH83mrfvVESCWmTSQ6CYCpBPFsmSi1KCoIQBX5lzNcMwETFfZrTg/jD18ugW6kqWSBirymZ5CAIyrXshpuCIEPlV2GfxRJkm2B57Pa3KNGxr1Y1NhdBhhhipOrUFAQZasONMP6W4S0+3HulArJwPc/PEUI1F0HAho2arVS6jYmVIJiU4GE5hLCsbAmg8Q1JNxxC8QT3zBKJJidBsFTFVLs1sRJkyCAW5Gx/jAHwcyTdyFB+qKJ/LunJOW6ekyDo+8GYgME5GtqjTitBWEV5Q4/7pbzUFEVQEkZ+N0mpUIG6SKh6h7AwlPx2uQnyMEnvSq513gqtBMH1eKiojCSEwdckVs6WdNPYwgOVI+g2NmlZJDdBUPofJd09i/Z5KrUS5MGSTsij2tpa+TF6+Nqrll+AxTGeja0IG4MEGf96LoVLEORRkhgbtyJWggzpfmwdixNuFbffVsQc92pdQ0sQBB0+1VBKaStBMPcn+MEQQqYoljtjBT94VoNaEOzGeHtkXTEsRZBHh5TSLQBvJQhtZNPqVgM09lclnWy4b0v5XnI4jO0EXSmCcOM3S4IotUsKggyRPZbNSauz05mSfrn2Dgo53u9dQs+SBGED6iMNbESlIMgQ8653SDrE+NAQuimFz7xRjbXFIQdBQrJLSYLQmBaGWikIgsk4Kc1KGmyaEsWEJ22ooWGfBx0//GK5MUsTpIWhVgqC0M6S6emsG4TdA/rPKaIR9nnae17LIgJbBgwni8gQBKl9qJWKICXfIineHjxwvPUwNK1VGEIylCwmQxCExtFQQkPWKKkIQtuwrj06cyNfLQn/kxRS83J8slA+fYAaiiDo+FJJv9dH2ULXpiQIKvOLR56KHMJOcso4VsQCxq6pNkGvAyVdVFqxIQlCW4k3mywCRSLwUhMEtdibuF8i/WarubUkopinEsIH1Zb+mqQ+kAOTpeIyNEFIsEgUlL2Lt3z5DXMQhLulnLRjVMgPizn27BwMOWN4xXbxMwdwX96u69AEQRH8iAk4V4vkIkgqkhwnidA2SQKjzYFeW0Satw69uVwDQeijw0PU8hpIkpMgtI/YYQT57humh0Sp2Fm9NiNIH5V014z196maTUuGVt/pUyj1tbUQhHaxGhObFiAlLrkJgq6kGCBCO16XeCCuEpZemavxls2dpKgW1wQCT7B0nbu9a5+bmgiCsjX4sWOwx7CPCB8lhP0SJtvYUREXF2tgYuRyfFUSJuilBFOgdYQtocv+kk4vcaN196iNIOhbw0TxNEmkc5iS4NOdLGSnAbgDakqjUSNBwLaG6BpW5yPDM1K86I1zeuX1aM39a4vtXCtBwLSGnN1ER2SZccyCB2HJYdwyLK0xvbL0Uc0EocE1hMI8PqQwIDXA2ATyE/RgaCni/BTTyNoJQpvIf8G4dEjBkYgcjDXt11jw2EXSCyQdYakkUdniBoh99G6BILSHtX+ilw8tLw8P1iVDK2K4PyYv7KcMnaICO7KHlnJ8isWrFYLQvqNKOsqsAJQVLuYmJ8aCPlA5oraT7SpbDKke7cIxizfHWT3KDHJpSwQBoBcbo3akBJl1eix13y6JX8NahXzhhCPFm/NaFSjJD8vjSzo9WdrcGkFoK0OtIytKeM9CAjvdWOxaIopY+nFRWZZMMWiEGFdIXXlkfbg4MJdrRlokCODeMYT3rG0zjwh/HVEYiv2w8JMAKbqjphi7uMgyvMPQsilplSCAvGt4kzyjUsRx7sG/AgtZgnh/OrGemKjgHovR423C55JBIjZtDpYRkANvxeakZYJ0YBNihyFX7emLibaI/wabcpw5SJpJXm9M1zlz4CB0lXBcOZyx0WJDj4M5BecW8pm/KZCjuCdgKiaOgSBgccuw/Npiwp5UfVlTPczL+NGyZLuqoj1jIUgH5qFhlavVPHtVPBRGJSAF5LDkSjSqkK742AgCMrjxslKCv4VLOQTIssteFefRyBgJ0nXOweFtsu9oeqvOhoxmOLUI3jEThPYSEodVLjamalzhqfOR30wrFhQYTnGcv1mR9q4aO0G6HmFJlA1GJ0qaZxTbOFykqzcVsTZ3KgRxoliflG3lMf3njcHexiRkagSZJwrLwj5HWf2oXxpiBZBGryZTmiIEnSpBZsEl6SZm15CF3XmXbQgQsZFkpATSSB2grhmMnSD/31XYLkEUjpojnOd8uNjt70hxUs4btVK3E2RxT+FURL5xMhm1kHHJ8rx9N3htkrGJIdS5lsrGVtYJsr5HidHUkeVu6y9v4gribeHKDCk4QxKXBQg4Qfo9FqRI5q2Cuyom93v1Kz7Y1ReGQGxnBFIQYtRlAwScIBuAtOISMsLeWRJvGdIG7GOrLllpdrchAab2kILwpaxGufREwAnSE7A1l+PSygSfNHO8XTh3x55pbyUm1ATYmz+IZ8v/XBIg4ARJAOKGVewWyILJC5+XHZeTdPGKA98KCDDGOF0bQlnuMidIOaz9Tg0i4ARpsNNc5XIIOEHKYe13ahABJ0iDneYql0PACVIOa79Tgwg4QRrsNFe5HAJOkHJY+50aRMAJ0mCnucrlEHCClMPa79QgAk6QBjvNVS6HgBOkHNZ+pwYRcII02GmucjkEnCDlsPY7NYiAE6TBTnOVyyHgBCmHtd+pQQScIA12mqtcDgEnSDms/U4NIuAEabDTXOVyCPwfScDST3bgOVoAAAAASUVORK5CYII=;fontColor=#000000;" vertex="1" parent="1">
          <mxGeometry x="1880" y="460" width="26.5" height="26.5" as="geometry" />
        </mxCell>
        <mxCell id="IyXD50Ujy94JnM1tyRpe-7" value="4mm镜头" style="shape=image;verticalLabelPosition=bottom;labelBackgroundColor=default;verticalAlign=top;aspect=fixed;imageAspect=0;image=data:image/png,iVBORw0KGgoAAAANSUhEUgAAAMgAAADICAYAAACtWK6eAAAAAXNSR0IArs4c6QAAFnJJREFUeF7tnQnUdVVZx/+KIuJAToUj5gCmhPOAM6moabhSE01WairOE4lWamiaA2QWgjnkhBoOQYoWaKWEmjiQioqKkmSQJpRKDmiErd/77fN1v/vd6exn7332Pud51jrr3Pe9Z+/z7P8+/3v28AyXkYsj4AgsReAyjo0j4AgsR8AJ4k+HI7ACASeIPx6OgBPEnwFHIA4Bf4PE4ealJoKAE2QiHe3NjEPACRKHm5eaCAJOkIl0tDczDgEnSBxuXmoiCDhBJtLR3sw4BJwgcbh5qYkg4ASZSEd7M+MQcILE4ealJoKAE2QiHe3NjEPACRKHm5eaCAJOkIl0tDczDgEnSBxuXmoiCDhB8nf05SVx7BrO3d/L/neppP+ZO3664H/dNZfkb8J07+AE2azvf07SdSVdW9Iekvi7Oy/73H2/2R3ir4Ig31txfH/uu/+U9O+Szpfk5FqDuxNk24PfHdeb+Tz7/yvFP79Vl/yPGbJ0pOnOEIjPF1bdgszKTYUgPy9pn5lj75nPmSFuvvofSfqqpLPDmc/d8YPmWzexN8hNJe23gAxXG3tHDtQ+3jCzhOHzFySdN5A+yW/b8huE+cAdJN0+HHxmPuAyPALMcz4n6fMz5zOHV6u/Bq0Q5CoLyMB8waUdBH62gDSn1q5+zQS5l6R7S7qPpNvWDqTrF4UAy9cflPQhSadJqu4tUxNBbhUIcQ9JHLw1XKaFwLmBLB+XxHHO0M0fkiDXmCPEzYcGw+9fHQKfCkQ5JRCnuIKlCcLE+r6S7hfOPqku3uXN3vCLkj4QDt4uRaQEQfYKZOiIsXuRlvlNxozA6TNkYaUsm+QiCLvQvz7ztrhcthZ4xVNH4B8kvV/SCTn2X1IT5GaSHhOOa02957z9RRFg7+U4SW8N+y9Jbp6KIGzWdcTYLYlmXokjEI9AR5QPx1exraSVIL8SiHGIVREv7whkQIBJPWR5T2zdsQS5i6TDJT0o9sYTLcducufbMevjMf+/7m9gWuQ3MutbMvt5l4niuq7Zn5D0ujD8WnftDt/HEOQpko7pdZdxXMwY9zuSLgjn7vMPJS06sIKd///FmaFgeIthJgdL6LPnRZ+vL4kDkk1B3ijpcX0a2ocgV5d0tKRH9rlBA9deFHZs2bXl+NYcCToi/G8DbYlV8RcCUTrCLDrH1l1bOSyOmRJ8ZhPFNiXIgcFmZpM6a7wGs+yOAP8yR4hJOwT16KybSMKdYNG5RzXVXPpcSUeu02YTgpwk6dfWVVTJ94zdZ02sO5Pr0Tv2DIz/LGn2DcalLRiYYsJy/1XYrSPIOyUdPDD4y27/7TkyQIyzKtV1qmpBkvmjNixeIukFy5RaRZBXSjqsotZ8VtInJX1M0kclfbMi3VyVzRHoCHO3YGlRw4YyIySWhHeSZQR5WpiQb97stFcyL2ASdcYMKb6b9hZeWyUI3C5YdWOrd88BdUIPnrcdZBFBGJP97QCK8nY4OZg1Y+Y85lWjAeBt4pbXkcTm8wHh+MWCWn9ZEk56rGJul3mC8Lr7p7BSUUK3jhRMlvjs4gjMIsDQpzv2LAANRo8HrSLIkyUdm1kRiAAheFs4KTKDPZLqrzpDFAiT02Xi0bM77vNvkI9kGgeyD8GK2LudFCN5ZIdrBsE6urfKyiXaSBXhAMO8LZklCBMkvkwprDhBDA5MNVwcgZQIPFDSoRn26bAxZP9vB4IwtGKIZRWCKh8fSMEwysURyI1AaqKcKOkhswRhcv4lSdY16RcFcmDv4uIIlEYgJVHuzn5bN8RKMTlniW6HJbLS6Pj9HIGAwO9KepkRjS3L344gr5f0eEOFD7M4pRju60UdgWUIMDfBByRWMFu6RUcQHN+3z9x71gi5ntCzjF/uCJRAAFMpTKZi5CfkgOkIQi4IhkgxctcQ3CumrJdxBHIicGfjs7n1BiF3BolUYoWJvftUxKLn5XIjwPYCzn4xchAE2T+Yl8RUQJl1JvOx9Xo5RyAFApbN72fxcBOu500GTZwgBvC8aHYELAQ5hof7hZKOMKjpBDGA50WzI2AhyMk83H+4yqNqA/WdIBuA5JcMhoCFIKfycONy+DyD+k4QA3heNDsCZoKw48jOY6w4QWKR83IlEDAT5BWSnmPQ1AliAM+LZkfATJCjJD3boKYTxACeF82OgJkg1uglTpDlfXzZEFuX+LqrDvKndN9TGy4DfQ5i/rosRsBMkFdJeqYB3TEThLZhKdAde2CfE+LeLvo8/12pVBDEAP5+z4MYw90xZoKZCfJnkp4+IYIQqJloGTeYefCvOUcECMH/OKYgmApxzJKGz7P/Iw7ZN0J0+pYwMRPk1ZKeamhxjW8Q/JYhAceNZj7zN9+5xCNwXiAKZCHOMefu4LvaxEyQ10h6kqFVjJ+HimHFA3/rcJBnneDK/G8q4fwN3ZalKLGRIcvXQljYLk4yfw8lZoK81ujPQQiWHxdo/X6SIAGE6M6M+V3qR4BcKV0g8dkzPhe5xUwQqzchiVqYIKYU8lOQxYrjToEUnj0pJcJ11PWVEAbqtGBRzt+pxUyQv5D0WINWJF8hyYxFeCtAhjuGg6GSy/QQIH4aZCFl2qfDcYkRBjNBMHXH5D1W+LXvOzlj4vwASXgjQoq9Ym/u5UaNAM5OpweivDcyvbOZIG+R9CgDzDcOqxnrqrhuIAXE4PAh0zrE/Pt5BAiqDlH+uocXq5kgbws522K745ckLRs7so/QEYJzzpiqsfp7ufYQYH8GkkCWdZkIzAR5h6TfNGB0S0lnzpVnDsHu/CNCplVD9V7UEViJAEvJEOXNkv51wZVmghAm9OGGTrj9TMbQKwVikNLqCoY6vagj0BcBEixBEja+z50pbCbIuyQR+C1WWH0ipwibjS8NdkqxdXk5R8CKAJvWEOWPAlHMBHmPpIcatGIFDGJc21CHF3UEciDAAtQNDSk9tlxuT5D04BzaeZ2OQOMIbBGECQ75EFwcAUdgRwS2CEKiEDL2uDgCjsACgpAfmj0KF0fAEVhAEDZacuR6c7AdgdYR2BpikXGWJO4ujoAjsOAN8iFJ93FkHAFHYCcEtt4gluQ5jqkjMGYEtghi2WkcMzjeNkfgFAhiteZ1GB2BsSJwLAR5vqQXj7WFjbQL+yG8MjmIcYWXJseVG9F/rGoeBkEwdcfk3aUMArgG/J0k9p8gBOnv8JxbJBCkIwv59lhMObCMmn4XLExSpGBzJFcjwNvhr0hKH4hxthGwq4WMxPeSdJAkPDVd8iCwLwTZU9K38tQ/6VovCmbX+PzPO5SlAoYErFhT/7akvVNV6vVsR2D3Liri30viF8nFjsC3Q85HiHGOvbqNasBRDZJAFiLEuNgROFXSAR1BHifpDfY6J18D/gcvmvNoKw3Kc0NCJOKVucQj8BRJr+kIwi/QF0LYzvgqp1sSF0+IAUFqkFsEkhxSgzIN6sC8EQfAC2YDT+Oi+PsNNmZolWt4ayzD4OCQoBXCuGyOwImSHsLlswTZN7xFNq/Gr3yGpKMrh+Hmkt4tyUmyeUf9VthA34EgFH+5JMawLusRwMmMvYwWxEmyeS8R8IEFjy2Zz+3BxO5j/muzFk1+jc9ae1VdFzhJ1vcHsYHBaXsw9kXJb5jYYZ/lshiBK0q6uFFw6HzeeuRQcdkZgf1DLODt3yzLDvVOSUzwXHZEgL2iDzcOCtEu/7LxNuRQn1XIF85XvIwgN5N0nCSiJrpsQ4CIfZZcjjXh+KeSWGBw2YYAb9WFgUtW5Re8ejCVwN5n6vL+YPc0FhzY98JRjtQTU5djJD1tGQibJOC0ZqBqvQPYQCXqy7+13pA5/RkuYmI0VWEz8HckkeV5qWxCEApPeRNxy+RgpE/RVIdaZwRLg7U/EJsShOfjtmGP5DdG+rAsataXJd2m4VWrdV3FahYZnLAKnor8saTDN21sH4J0dbIrOxWSPEfSUZuC2eh1mBcxQpiCLFypSjHEmq+D5bAjRo7oN8PbY5m331iaz4SdtwimRmMWvDh7e2PGvEE6EPllffaIEe39a9MwFmQDe1XD+q9T/bPhx27ddTt9byEIlX1xxGYps5mzegPbWAHml59pTOc+6kbbzVkJMtah1icl3alPD4zgWmzLSMg6NjHtYVkJgm3Pl8aGaFgCfMUI27WqSa+TdOgI2xz99gALK0Gog/yEGHmNSSA+S7xTkgdK4td2bEJQEkIrRUkKgrCuzI7kWIQ34thXdJb11c/G0omhHbhCmyyXUxDkniG+71iw3YpmMZbG9GwH5heX7Vmm5sv/RhJvxmhJQRCMGse0VzBlglwiaZfop6m+gi+zxllIQRBgOW9EEf6mTJCfSrp8fc95tEaE1T0+unSiSTr3H1MatykT5CeSdrU8UJWVZS5pWmVN9QZhSRS7pTHIlAnyY0m7jaETJV2aYriYiiCPlPT2kQA7ZYL8SBI+92OQz6UIw5qKIPtJ+vwYUJVUkiC7B0/Fu0jaRxKuzix6sKvN0IAd/fcVDC7+A0kYL45BCDxCfCuTpCIISoxlDb0EQcjzQewl3JkhyTphA++9ISj2umst3//3iJL2JAnql5IgY0kGmpMg1w9ztadGPsUnSTpS0scjy68rRjyoq667qJHvsSv7ilXXlAR5nqSXWBWqoHwugpDohtU+hqNWeWymt8n3JO1hVa6C8l9LlS8lJUHuEcbvFeBjUiEHQZj48mt2A5NmOxbGF+eVCeujqv+SRAar1gXDyyemaERKgrA8CMCtr4LkIEiu+dlhiR2dLpR0jRQP1sB14BJO2juzpCQIyhCAixA5LUtqguS0dmbfgvA9n0gE+AWSrpmorqGqYSXuOpJYcDBLaoL8QUgkY1ZswApSEuRPJD0rc1sIhZoqfR5m4a1HOGEh40GpME9NkPtKOiWVcgPVk4ogJd1YnyCJAH9WIb8iaadbFlYIj03VgNQEQS/SJ7Dx1aqkIkhJDz0Cod0uAeCE/yf1WKvCKhzObsmyNucgCJEIiXfaqqQgSMm3R4dzirfI+WH83mrfvVESCWmTSQ6CYCpBPFsmSi1KCoIQBX5lzNcMwETFfZrTg/jD18ugW6kqWSBirymZ5CAIyrXshpuCIEPlV2GfxRJkm2B57Pa3KNGxr1Y1NhdBhhhipOrUFAQZasONMP6W4S0+3HulArJwPc/PEUI1F0HAho2arVS6jYmVIJiU4GE5hLCsbAmg8Q1JNxxC8QT3zBKJJidBsFTFVLs1sRJkyCAW5Gx/jAHwcyTdyFB+qKJ/LunJOW6ekyDo+8GYgME5GtqjTitBWEV5Q4/7pbzUFEVQEkZ+N0mpUIG6SKh6h7AwlPx2uQnyMEnvSq513gqtBMH1eKiojCSEwdckVs6WdNPYwgOVI+g2NmlZJDdBUPofJd09i/Z5KrUS5MGSTsij2tpa+TF6+Nqrll+AxTGeja0IG4MEGf96LoVLEORRkhgbtyJWggzpfmwdixNuFbffVsQc92pdQ0sQBB0+1VBKaStBMPcn+MEQQqYoljtjBT94VoNaEOzGeHtkXTEsRZBHh5TSLQBvJQhtZNPqVgM09lclnWy4b0v5XnI4jO0EXSmCcOM3S4IotUsKggyRPZbNSauz05mSfrn2Dgo53u9dQs+SBGED6iMNbESlIMgQ8653SDrE+NAQuimFz7xRjbXFIQdBQrJLSYLQmBaGWikIgsk4Kc1KGmyaEsWEJ22ooWGfBx0//GK5MUsTpIWhVgqC0M6S6emsG4TdA/rPKaIR9nnae17LIgJbBgwni8gQBKl9qJWKICXfIineHjxwvPUwNK1VGEIylCwmQxCExtFQQkPWKKkIQtuwrj06cyNfLQn/kxRS83J8slA+fYAaiiDo+FJJv9dH2ULXpiQIKvOLR56KHMJOcso4VsQCxq6pNkGvAyVdVFqxIQlCW4k3mywCRSLwUhMEtdibuF8i/WarubUkopinEsIH1Zb+mqQ+kAOTpeIyNEFIsEgUlL2Lt3z5DXMQhLulnLRjVMgPizn27BwMOWN4xXbxMwdwX96u69AEQRH8iAk4V4vkIkgqkhwnidA2SQKjzYFeW0Satw69uVwDQeijw0PU8hpIkpMgtI/YYQT57humh0Sp2Fm9NiNIH5V014z196maTUuGVt/pUyj1tbUQhHaxGhObFiAlLrkJgq6kGCBCO16XeCCuEpZemavxls2dpKgW1wQCT7B0nbu9a5+bmgiCsjX4sWOwx7CPCB8lhP0SJtvYUREXF2tgYuRyfFUSJuilBFOgdYQtocv+kk4vcaN196iNIOhbw0TxNEmkc5iS4NOdLGSnAbgDakqjUSNBwLaG6BpW5yPDM1K86I1zeuX1aM39a4vtXCtBwLSGnN1ER2SZccyCB2HJYdwyLK0xvbL0Uc0EocE1hMI8PqQwIDXA2ATyE/RgaCni/BTTyNoJQpvIf8G4dEjBkYgcjDXt11jw2EXSCyQdYakkUdniBoh99G6BILSHtX+ilw8tLw8P1iVDK2K4PyYv7KcMnaICO7KHlnJ8isWrFYLQvqNKOsqsAJQVLuYmJ8aCPlA5oraT7SpbDKke7cIxizfHWT3KDHJpSwQBoBcbo3akBJl1eix13y6JX8NahXzhhCPFm/NaFSjJD8vjSzo9WdrcGkFoK0OtIytKeM9CAjvdWOxaIopY+nFRWZZMMWiEGFdIXXlkfbg4MJdrRlokCODeMYT3rG0zjwh/HVEYiv2w8JMAKbqjphi7uMgyvMPQsilplSCAvGt4kzyjUsRx7sG/AgtZgnh/OrGemKjgHovR423C55JBIjZtDpYRkANvxeakZYJ0YBNihyFX7emLibaI/wabcpw5SJpJXm9M1zlz4CB0lXBcOZyx0WJDj4M5BecW8pm/KZCjuCdgKiaOgSBgccuw/Npiwp5UfVlTPczL+NGyZLuqoj1jIUgH5qFhlavVPHtVPBRGJSAF5LDkSjSqkK742AgCMrjxslKCv4VLOQTIssteFefRyBgJ0nXOweFtsu9oeqvOhoxmOLUI3jEThPYSEodVLjamalzhqfOR30wrFhQYTnGcv1mR9q4aO0G6HmFJlA1GJ0qaZxTbOFykqzcVsTZ3KgRxoliflG3lMf3njcHexiRkagSZJwrLwj5HWf2oXxpiBZBGryZTmiIEnSpBZsEl6SZm15CF3XmXbQgQsZFkpATSSB2grhmMnSD/31XYLkEUjpojnOd8uNjt70hxUs4btVK3E2RxT+FURL5xMhm1kHHJ8rx9N3htkrGJIdS5lsrGVtYJsr5HidHUkeVu6y9v4gribeHKDCk4QxKXBQg4Qfo9FqRI5q2Cuyom93v1Kz7Y1ReGQGxnBFIQYtRlAwScIBuAtOISMsLeWRJvGdIG7GOrLllpdrchAab2kILwpaxGufREwAnSE7A1l+PSygSfNHO8XTh3x55pbyUm1ATYmz+IZ8v/XBIg4ARJAOKGVewWyILJC5+XHZeTdPGKA98KCDDGOF0bQlnuMidIOaz9Tg0i4ARpsNNc5XIIOEHKYe13ahABJ0iDneYql0PACVIOa79Tgwg4QRrsNFe5HAJOkHJY+50aRMAJ0mCnucrlEHCClMPa79QgAk6QBjvNVS6HgBOkHNZ+pwYRcII02GmucjkEnCDlsPY7NYiAE6TBTnOVyyHgBCmHtd+pQQScIA12mqtcDgEnSDms/U4NIuAEabDTXOVyCPwfScDST3bgOVoAAAAASUVORK5CYII=;fontColor=#000000;" vertex="1" parent="1">
          <mxGeometry x="910" y="460" width="26.5" height="26.5" as="geometry" />
        </mxCell>
        <mxCell id="IyXD50Ujy94JnM1tyRpe-8" value="" style="endArrow=classic;html=1;rounded=0;fontColor=#000000;strokeColor=#FFFFFF;exitX=1;exitY=0.5;exitDx=0;exitDy=0;entryX=0.647;entryY=0.485;entryDx=0;entryDy=0;entryPerimeter=0;dashed=1;" edge="1" parent="1" source="IyXD50Ujy94JnM1tyRpe-4" target="IyXD50Ujy94JnM1tyRpe-2">
          <mxGeometry width="50" height="50" relative="1" as="geometry">
            <mxPoint x="540" y="510" as="sourcePoint" />
            <mxPoint x="590" y="460" as="targetPoint" />
          </mxGeometry>
        </mxCell>
        <mxCell id="IyXD50Ujy94JnM1tyRpe-9" value="" style="endArrow=classic;html=1;rounded=0;fontColor=#000000;strokeColor=#FFFFFF;entryX=0.424;entryY=0.886;entryDx=0;entryDy=0;entryPerimeter=0;dashed=1;" edge="1" parent="1" target="IyXD50Ujy94JnM1tyRpe-2">
          <mxGeometry width="50" height="50" relative="1" as="geometry">
            <mxPoint x="922" y="491" as="sourcePoint" />
            <mxPoint x="1349.243" y="490.1700000000001" as="targetPoint" />
          </mxGeometry>
        </mxCell>
        <mxCell id="IyXD50Ujy94JnM1tyRpe-10" value="" style="endArrow=classic;html=1;rounded=0;fontColor=#000000;strokeColor=#FFFFFF;exitX=0;exitY=0.5;exitDx=0;exitDy=0;entryX=0.391;entryY=0.475;entryDx=0;entryDy=0;entryPerimeter=0;dashed=1;" edge="1" parent="1" source="IyXD50Ujy94JnM1tyRpe-5" target="IyXD50Ujy94JnM1tyRpe-2">
          <mxGeometry width="50" height="50" relative="1" as="geometry">
            <mxPoint x="536.5" y="503.25" as="sourcePoint" />
            <mxPoint x="1359.243" y="500.1700000000001" as="targetPoint" />
          </mxGeometry>
        </mxCell>
        <mxCell id="IyXD50Ujy94JnM1tyRpe-11" value="" style="endArrow=classic;html=1;rounded=0;fontColor=#000000;strokeColor=#FFFFFF;exitX=0;exitY=0.5;exitDx=0;exitDy=0;entryX=0.701;entryY=0.475;entryDx=0;entryDy=0;entryPerimeter=0;dashed=1;" edge="1" parent="1" source="IyXD50Ujy94JnM1tyRpe-6" target="IyXD50Ujy94JnM1tyRpe-2">
          <mxGeometry width="50" height="50" relative="1" as="geometry">
            <mxPoint x="1899.22" y="483.05" as="sourcePoint" />
            <mxPoint x="1359.999" y="482.75000000000006" as="targetPoint" />
          </mxGeometry>
        </mxCell>
        <mxCell id="IyXD50Ujy94JnM1tyRpe-12" value="4mm镜头" style="shape=image;verticalLabelPosition=bottom;labelBackgroundColor=default;verticalAlign=bottom;aspect=fixed;imageAspect=0;image=data:image/png,iVBORw0KGgoAAAANSUhEUgAAAMgAAADICAYAAACtWK6eAAAAAXNSR0IArs4c6QAAFnJJREFUeF7tnQnUdVVZx/+KIuJAToUj5gCmhPOAM6moabhSE01WairOE4lWamiaA2QWgjnkhBoOQYoWaKWEmjiQioqKkmSQJpRKDmiErd/77fN1v/vd6exn7332Pud51jrr3Pe9Z+/z7P8+/3v28AyXkYsj4AgsReAyjo0j4AgsR8AJ4k+HI7ACASeIPx6OgBPEnwFHIA4Bf4PE4ealJoKAE2QiHe3NjEPACRKHm5eaCAJOkIl0tDczDgEnSBxuXmoiCDhBJtLR3sw4BJwgcbh5qYkg4ASZSEd7M+MQcILE4ealJoKAE2QiHe3NjEPACRKHm5eaCAJOkIl0tDczDgEnSBxuXmoiCDhB8nf05SVx7BrO3d/L/neppP+ZO3664H/dNZfkb8J07+AE2azvf07SdSVdW9Iekvi7Oy/73H2/2R3ir4Ig31txfH/uu/+U9O+Szpfk5FqDuxNk24PfHdeb+Tz7/yvFP79Vl/yPGbJ0pOnOEIjPF1bdgszKTYUgPy9pn5lj75nPmSFuvvofSfqqpLPDmc/d8YPmWzexN8hNJe23gAxXG3tHDtQ+3jCzhOHzFySdN5A+yW/b8huE+cAdJN0+HHxmPuAyPALMcz4n6fMz5zOHV6u/Bq0Q5CoLyMB8waUdBH62gDSn1q5+zQS5l6R7S7qPpNvWDqTrF4UAy9cflPQhSadJqu4tUxNBbhUIcQ9JHLw1XKaFwLmBLB+XxHHO0M0fkiDXmCPEzYcGw+9fHQKfCkQ5JRCnuIKlCcLE+r6S7hfOPqku3uXN3vCLkj4QDt4uRaQEQfYKZOiIsXuRlvlNxozA6TNkYaUsm+QiCLvQvz7ztrhcthZ4xVNH4B8kvV/SCTn2X1IT5GaSHhOOa02957z9RRFg7+U4SW8N+y9Jbp6KIGzWdcTYLYlmXokjEI9AR5QPx1exraSVIL8SiHGIVREv7whkQIBJPWR5T2zdsQS5i6TDJT0o9sYTLcducufbMevjMf+/7m9gWuQ3MutbMvt5l4niuq7Zn5D0ujD8WnftDt/HEOQpko7pdZdxXMwY9zuSLgjn7vMPJS06sIKd///FmaFgeIthJgdL6LPnRZ+vL4kDkk1B3ijpcX0a2ocgV5d0tKRH9rlBA9deFHZs2bXl+NYcCToi/G8DbYlV8RcCUTrCLDrH1l1bOSyOmRJ8ZhPFNiXIgcFmZpM6a7wGs+yOAP8yR4hJOwT16KybSMKdYNG5RzXVXPpcSUeu02YTgpwk6dfWVVTJ94zdZ02sO5Pr0Tv2DIz/LGn2DcalLRiYYsJy/1XYrSPIOyUdPDD4y27/7TkyQIyzKtV1qmpBkvmjNixeIukFy5RaRZBXSjqsotZ8VtInJX1M0kclfbMi3VyVzRHoCHO3YGlRw4YyIySWhHeSZQR5WpiQb97stFcyL2ASdcYMKb6b9hZeWyUI3C5YdWOrd88BdUIPnrcdZBFBGJP97QCK8nY4OZg1Y+Y85lWjAeBt4pbXkcTm8wHh+MWCWn9ZEk56rGJul3mC8Lr7p7BSUUK3jhRMlvjs4gjMIsDQpzv2LAANRo8HrSLIkyUdm1kRiAAheFs4KTKDPZLqrzpDFAiT02Xi0bM77vNvkI9kGgeyD8GK2LudFCN5ZIdrBsE6urfKyiXaSBXhAMO8LZklCBMkvkwprDhBDA5MNVwcgZQIPFDSoRn26bAxZP9vB4IwtGKIZRWCKh8fSMEwysURyI1AaqKcKOkhswRhcv4lSdY16RcFcmDv4uIIlEYgJVHuzn5bN8RKMTlniW6HJbLS6Pj9HIGAwO9KepkRjS3L344gr5f0eEOFD7M4pRju60UdgWUIMDfBByRWMFu6RUcQHN+3z9x71gi5ntCzjF/uCJRAAFMpTKZi5CfkgOkIQi4IhkgxctcQ3CumrJdxBHIicGfjs7n1BiF3BolUYoWJvftUxKLn5XIjwPYCzn4xchAE2T+Yl8RUQJl1JvOx9Xo5RyAFApbN72fxcBOu500GTZwgBvC8aHYELAQ5hof7hZKOMKjpBDGA50WzI2AhyMk83H+4yqNqA/WdIBuA5JcMhoCFIKfycONy+DyD+k4QA3heNDsCZoKw48jOY6w4QWKR83IlEDAT5BWSnmPQ1AliAM+LZkfATJCjJD3boKYTxACeF82OgJkg1uglTpDlfXzZEFuX+LqrDvKndN9TGy4DfQ5i/rosRsBMkFdJeqYB3TEThLZhKdAde2CfE+LeLvo8/12pVBDEAP5+z4MYw90xZoKZCfJnkp4+IYIQqJloGTeYefCvOUcECMH/OKYgmApxzJKGz7P/Iw7ZN0J0+pYwMRPk1ZKeamhxjW8Q/JYhAceNZj7zN9+5xCNwXiAKZCHOMefu4LvaxEyQ10h6kqFVjJ+HimHFA3/rcJBnneDK/G8q4fwN3ZalKLGRIcvXQljYLk4yfw8lZoK81ujPQQiWHxdo/X6SIAGE6M6M+V3qR4BcKV0g8dkzPhe5xUwQqzchiVqYIKYU8lOQxYrjToEUnj0pJcJ11PWVEAbqtGBRzt+pxUyQv5D0WINWJF8hyYxFeCtAhjuGg6GSy/QQIH4aZCFl2qfDcYkRBjNBMHXH5D1W+LXvOzlj4vwASXgjQoq9Ym/u5UaNAM5OpweivDcyvbOZIG+R9CgDzDcOqxnrqrhuIAXE4PAh0zrE/Pt5BAiqDlH+uocXq5kgbws522K745ckLRs7so/QEYJzzpiqsfp7ufYQYH8GkkCWdZkIzAR5h6TfNGB0S0lnzpVnDsHu/CNCplVD9V7UEViJAEvJEOXNkv51wZVmghAm9OGGTrj9TMbQKwVikNLqCoY6vagj0BcBEixBEja+z50pbCbIuyQR+C1WWH0ipwibjS8NdkqxdXk5R8CKAJvWEOWPAlHMBHmPpIcatGIFDGJc21CHF3UEciDAAtQNDSk9tlxuT5D04BzaeZ2OQOMIbBGECQ75EFwcAUdgRwS2CEKiEDL2uDgCjsACgpAfmj0KF0fAEVhAEDZacuR6c7AdgdYR2BpikXGWJO4ujoAjsOAN8iFJ93FkHAFHYCcEtt4gluQ5jqkjMGYEtghi2WkcMzjeNkfgFAhiteZ1GB2BsSJwLAR5vqQXj7WFjbQL+yG8MjmIcYWXJseVG9F/rGoeBkEwdcfk3aUMArgG/J0k9p8gBOnv8JxbJBCkIwv59lhMObCMmn4XLExSpGBzJFcjwNvhr0hKH4hxthGwq4WMxPeSdJAkPDVd8iCwLwTZU9K38tQ/6VovCmbX+PzPO5SlAoYErFhT/7akvVNV6vVsR2D3Liri30viF8nFjsC3Q85HiHGOvbqNasBRDZJAFiLEuNgROFXSAR1BHifpDfY6J18D/gcvmvNoKw3Kc0NCJOKVucQj8BRJr+kIwi/QF0LYzvgqp1sSF0+IAUFqkFsEkhxSgzIN6sC8EQfAC2YDT+Oi+PsNNmZolWt4ayzD4OCQoBXCuGyOwImSHsLlswTZN7xFNq/Gr3yGpKMrh+Hmkt4tyUmyeUf9VthA34EgFH+5JMawLusRwMmMvYwWxEmyeS8R8IEFjy2Zz+3BxO5j/muzFk1+jc9ae1VdFzhJ1vcHsYHBaXsw9kXJb5jYYZ/lshiBK0q6uFFw6HzeeuRQcdkZgf1DLODt3yzLDvVOSUzwXHZEgL2iDzcOCtEu/7LxNuRQn1XIF85XvIwgN5N0nCSiJrpsQ4CIfZZcjjXh+KeSWGBw2YYAb9WFgUtW5Re8ejCVwN5n6vL+YPc0FhzY98JRjtQTU5djJD1tGQibJOC0ZqBqvQPYQCXqy7+13pA5/RkuYmI0VWEz8HckkeV5qWxCEApPeRNxy+RgpE/RVIdaZwRLg7U/EJsShOfjtmGP5DdG+rAsataXJd2m4VWrdV3FahYZnLAKnor8saTDN21sH4J0dbIrOxWSPEfSUZuC2eh1mBcxQpiCLFypSjHEmq+D5bAjRo7oN8PbY5m331iaz4SdtwimRmMWvDh7e2PGvEE6EPllffaIEe39a9MwFmQDe1XD+q9T/bPhx27ddTt9byEIlX1xxGYps5mzegPbWAHml59pTOc+6kbbzVkJMtah1icl3alPD4zgWmzLSMg6NjHtYVkJgm3Pl8aGaFgCfMUI27WqSa+TdOgI2xz99gALK0Gog/yEGHmNSSA+S7xTkgdK4td2bEJQEkIrRUkKgrCuzI7kWIQ34thXdJb11c/G0omhHbhCmyyXUxDkniG+71iw3YpmMZbG9GwH5heX7Vmm5sv/RhJvxmhJQRCMGse0VzBlglwiaZfop6m+gi+zxllIQRBgOW9EEf6mTJCfSrp8fc95tEaE1T0+unSiSTr3H1MatykT5CeSdrU8UJWVZS5pWmVN9QZhSRS7pTHIlAnyY0m7jaETJV2aYriYiiCPlPT2kQA7ZYL8SBI+92OQz6UIw5qKIPtJ+vwYUJVUkiC7B0/Fu0jaRxKuzix6sKvN0IAd/fcVDC7+A0kYL45BCDxCfCuTpCIISoxlDb0EQcjzQewl3JkhyTphA++9ISj2umst3//3iJL2JAnql5IgY0kGmpMg1w9ztadGPsUnSTpS0scjy68rRjyoq667qJHvsSv7ilXXlAR5nqSXWBWqoHwugpDohtU+hqNWeWymt8n3JO1hVa6C8l9LlS8lJUHuEcbvFeBjUiEHQZj48mt2A5NmOxbGF+eVCeujqv+SRAar1gXDyyemaERKgrA8CMCtr4LkIEiu+dlhiR2dLpR0jRQP1sB14BJO2juzpCQIyhCAixA5LUtqguS0dmbfgvA9n0gE+AWSrpmorqGqYSXuOpJYcDBLaoL8QUgkY1ZswApSEuRPJD0rc1sIhZoqfR5m4a1HOGEh40GpME9NkPtKOiWVcgPVk4ogJd1YnyCJAH9WIb8iaadbFlYIj03VgNQEQS/SJ7Dx1aqkIkhJDz0Cod0uAeCE/yf1WKvCKhzObsmyNucgCJEIiXfaqqQgSMm3R4dzirfI+WH83mrfvVESCWmTSQ6CYCpBPFsmSi1KCoIQBX5lzNcMwETFfZrTg/jD18ugW6kqWSBirymZ5CAIyrXshpuCIEPlV2GfxRJkm2B57Pa3KNGxr1Y1NhdBhhhipOrUFAQZasONMP6W4S0+3HulArJwPc/PEUI1F0HAho2arVS6jYmVIJiU4GE5hLCsbAmg8Q1JNxxC8QT3zBKJJidBsFTFVLs1sRJkyCAW5Gx/jAHwcyTdyFB+qKJ/LunJOW6ekyDo+8GYgME5GtqjTitBWEV5Q4/7pbzUFEVQEkZ+N0mpUIG6SKh6h7AwlPx2uQnyMEnvSq513gqtBMH1eKiojCSEwdckVs6WdNPYwgOVI+g2NmlZJDdBUPofJd09i/Z5KrUS5MGSTsij2tpa+TF6+Nqrll+AxTGeja0IG4MEGf96LoVLEORRkhgbtyJWggzpfmwdixNuFbffVsQc92pdQ0sQBB0+1VBKaStBMPcn+MEQQqYoljtjBT94VoNaEOzGeHtkXTEsRZBHh5TSLQBvJQhtZNPqVgM09lclnWy4b0v5XnI4jO0EXSmCcOM3S4IotUsKggyRPZbNSauz05mSfrn2Dgo53u9dQs+SBGED6iMNbESlIMgQ8653SDrE+NAQuimFz7xRjbXFIQdBQrJLSYLQmBaGWikIgsk4Kc1KGmyaEsWEJ22ooWGfBx0//GK5MUsTpIWhVgqC0M6S6emsG4TdA/rPKaIR9nnae17LIgJbBgwni8gQBKl9qJWKICXfIineHjxwvPUwNK1VGEIylCwmQxCExtFQQkPWKKkIQtuwrj06cyNfLQn/kxRS83J8slA+fYAaiiDo+FJJv9dH2ULXpiQIKvOLR56KHMJOcso4VsQCxq6pNkGvAyVdVFqxIQlCW4k3mywCRSLwUhMEtdibuF8i/WarubUkopinEsIH1Zb+mqQ+kAOTpeIyNEFIsEgUlL2Lt3z5DXMQhLulnLRjVMgPizn27BwMOWN4xXbxMwdwX96u69AEQRH8iAk4V4vkIkgqkhwnidA2SQKjzYFeW0Satw69uVwDQeijw0PU8hpIkpMgtI/YYQT57humh0Sp2Fm9NiNIH5V014z196maTUuGVt/pUyj1tbUQhHaxGhObFiAlLrkJgq6kGCBCO16XeCCuEpZemavxls2dpKgW1wQCT7B0nbu9a5+bmgiCsjX4sWOwx7CPCB8lhP0SJtvYUREXF2tgYuRyfFUSJuilBFOgdYQtocv+kk4vcaN196iNIOhbw0TxNEmkc5iS4NOdLGSnAbgDakqjUSNBwLaG6BpW5yPDM1K86I1zeuX1aM39a4vtXCtBwLSGnN1ER2SZccyCB2HJYdwyLK0xvbL0Uc0EocE1hMI8PqQwIDXA2ATyE/RgaCni/BTTyNoJQpvIf8G4dEjBkYgcjDXt11jw2EXSCyQdYakkUdniBoh99G6BILSHtX+ilw8tLw8P1iVDK2K4PyYv7KcMnaICO7KHlnJ8isWrFYLQvqNKOsqsAJQVLuYmJ8aCPlA5oraT7SpbDKke7cIxizfHWT3KDHJpSwQBoBcbo3akBJl1eix13y6JX8NahXzhhCPFm/NaFSjJD8vjSzo9WdrcGkFoK0OtIytKeM9CAjvdWOxaIopY+nFRWZZMMWiEGFdIXXlkfbg4MJdrRlokCODeMYT3rG0zjwh/HVEYiv2w8JMAKbqjphi7uMgyvMPQsilplSCAvGt4kzyjUsRx7sG/AgtZgnh/OrGemKjgHovR423C55JBIjZtDpYRkANvxeakZYJ0YBNihyFX7emLibaI/wabcpw5SJpJXm9M1zlz4CB0lXBcOZyx0WJDj4M5BecW8pm/KZCjuCdgKiaOgSBgccuw/Npiwp5UfVlTPczL+NGyZLuqoj1jIUgH5qFhlavVPHtVPBRGJSAF5LDkSjSqkK742AgCMrjxslKCv4VLOQTIssteFefRyBgJ0nXOweFtsu9oeqvOhoxmOLUI3jEThPYSEodVLjamalzhqfOR30wrFhQYTnGcv1mR9q4aO0G6HmFJlA1GJ0qaZxTbOFykqzcVsTZ3KgRxoliflG3lMf3njcHexiRkagSZJwrLwj5HWf2oXxpiBZBGryZTmiIEnSpBZsEl6SZm15CF3XmXbQgQsZFkpATSSB2grhmMnSD/31XYLkEUjpojnOd8uNjt70hxUs4btVK3E2RxT+FURL5xMhm1kHHJ8rx9N3htkrGJIdS5lsrGVtYJsr5HidHUkeVu6y9v4gribeHKDCk4QxKXBQg4Qfo9FqRI5q2Cuyom93v1Kz7Y1ReGQGxnBFIQYtRlAwScIBuAtOISMsLeWRJvGdIG7GOrLllpdrchAab2kILwpaxGufREwAnSE7A1l+PSygSfNHO8XTh3x55pbyUm1ATYmz+IZ8v/XBIg4ARJAOKGVewWyILJC5+XHZeTdPGKA98KCDDGOF0bQlnuMidIOaz9Tg0i4ARpsNNc5XIIOEHKYe13ahABJ0iDneYql0PACVIOa79Tgwg4QRrsNFe5HAJOkHJY+50aRMAJ0mCnucrlEHCClMPa79QgAk6QBjvNVS6HgBOkHNZ+pwYRcII02GmucjkEnCDlsPY7NYiAE6TBTnOVyyHgBCmHtd+pQQScIA12mqtcDgEnSDms/U4NIuAEabDTXOVyCPwfScDST3bgOVoAAAAASUVORK5CYII=;fontColor=#000000;" vertex="1" parent="1">
          <mxGeometry x="1150" y="660" width="26.5" height="26.5" as="geometry" />
        </mxCell>
        <mxCell id="IyXD50Ujy94JnM1tyRpe-14" value="" style="endArrow=classic;html=1;rounded=0;fontColor=#000000;strokeColor=#FFFFFF;exitX=0.5;exitY=0;exitDx=0;exitDy=0;entryX=0.553;entryY=0.512;entryDx=0;entryDy=0;entryPerimeter=0;dashed=1;" edge="1" parent="1" source="IyXD50Ujy94JnM1tyRpe-12" target="IyXD50Ujy94JnM1tyRpe-2">
          <mxGeometry width="50" height="50" relative="1" as="geometry">
            <mxPoint x="1890" y="483.25" as="sourcePoint" />
            <mxPoint x="1450.1689999999999" y="482.95000000000005" as="targetPoint" />
          </mxGeometry>
        </mxCell>
      </root>
    </mxGraphModel>
  </diagram>
</mxfile>
